<svg width="491" height="491" viewBox="0 0 491 491" fill="none" xmlns="http://www.w3.org/2000/svg">
<path d="M270.628 275.302C257.262 275.789 246.2 281.596 235.505 287.211C223.418 293.556 212.011 299.545 195.891 299.545C181.031 299.545 173.87 267.515 172.845 252.734L172.57 245.942L172.804 239.15C173.82 224.318 181.001 192.328 195.851 192.328C211.98 192.328 223.387 198.328 235.464 204.673C246.16 210.287 257.221 216.084 270.588 216.572C286.342 217.12 302.898 204.734 322.664 177.516C334.761 160.867 346.28 140.674 349.073 132.958L348.88 132.897H312.314C308.698 139.232 303.619 147.496 297.626 155.953C283.142 176.389 273.94 182.755 271.218 183.678C265.448 183.272 258.612 179.679 250.741 175.557C237.14 168.379 220.127 159.435 195.932 159.435C183.195 159.435 171.676 164.653 162.626 174.521C156.349 181.364 151.199 190.511 147.309 201.699C143.449 213.221 141.004 225.17 140.026 237.282L139.722 245.942L140.006 254.145V254.592C140.971 266.713 143.406 278.672 147.258 290.205C151.149 301.373 156.298 310.51 162.576 317.383C171.626 327.251 183.144 332.469 195.881 332.469C220.127 332.469 237.14 323.535 250.812 316.357C258.684 312.226 265.519 308.642 271.289 308.236C274.001 309.149 283.203 315.525 297.698 335.951C303.589 344.266 308.606 352.398 312.212 358.692H349.002C346.077 350.814 334.68 330.865 322.705 314.388C302.939 287.16 286.403 274.744 270.628 275.302Z" fill="white"/>
<path d="M358.509 118.187H130.865L112.643 81.7302H376.731L358.509 118.187Z" fill="white"/>
<path d="M201.59 358.662H238.054V336.51C226.473 341.388 214.138 344.239 201.59 344.936V358.662Z" fill="white"/>
<path d="M268.882 321.677C264.709 323.392 260.639 325.348 256.693 327.535C254.794 328.55 252.793 329.565 250.7 330.642V358.672H287.175V342.997C278.704 331.078 272.355 324.601 268.882 321.677Z" fill="white"/>
<path d="M238.054 132.948H201.59V146.938C214.138 147.638 226.472 150.489 238.054 155.364V132.948Z" fill="white"/>
<path d="M268.881 170.207C272.355 167.283 278.714 160.806 287.164 148.887V132.948H250.71V161.273C252.802 162.339 254.773 163.385 256.693 164.379C260.64 166.554 264.71 168.5 268.881 170.207Z" fill="white"/>
<path d="M245.255 489.605C380.247 489.605 489.68 380.227 489.68 245.302C489.68 110.378 380.247 1 245.255 1C110.264 1 0.831055 110.378 0.831055 245.302C0.831055 380.227 110.264 489.605 245.255 489.605Z" stroke="white" stroke-width="1.38" stroke-miterlimit="10" stroke-linecap="round" stroke-linejoin="round" stroke-dasharray="0.5 8"/>
<path d="M245.255 478.996C374.385 478.996 479.065 374.368 479.065 245.302C479.065 116.237 374.385 11.6089 245.255 11.6089C116.126 11.6089 11.4453 116.237 11.4453 245.302C11.4453 374.368 116.126 478.996 245.255 478.996Z" stroke="white" stroke-width="0.34" stroke-miterlimit="10" stroke-linecap="round"/>
<path d="M60.1905 381.799C30.9374 342.303 15.1849 294.443 15.265 245.302" stroke="white" stroke-width="8.25" stroke-miterlimit="10"/>
<path d="M475.257 245.302C475.321 286.237 464.399 326.439 443.627 361.718" stroke="white" stroke-width="8.25" stroke-miterlimit="10"/>
<path d="M360.022 46.563C371.612 53.246 382.596 60.9265 392.851 69.5171" stroke="white" stroke-width="8.25" stroke-miterlimit="10"/>
<path d="M245.256 11.6089V19.2636" stroke="white" stroke-width="2.75" stroke-miterlimit="10"/>
<path d="M204.769 15.01L206.099 22.5531" stroke="white" stroke-width="2.75" stroke-miterlimit="10"/>
<path d="M127.299 445.89L131.138 439.26" stroke="white" stroke-width="2.75" stroke-miterlimit="10"/>
<path d="M164.068 463.169L166.689 455.971" stroke="white" stroke-width="2.75" stroke-miterlimit="10"/>
<path d="M203.275 473.808L204.606 466.265" stroke="white" stroke-width="2.75" stroke-miterlimit="10"/>
<path d="M243.731 477.483V469.818" stroke="white" stroke-width="2.75" stroke-miterlimit="10"/>
<path d="M284.208 474.072L282.878 466.529" stroke="white" stroke-width="2.75" stroke-miterlimit="10"/>
<path d="M323.487 463.696L320.866 456.499" stroke="white" stroke-width="2.75" stroke-miterlimit="10"/>
<path d="M360.358 446.651L356.528 440.021" stroke="white" stroke-width="2.75" stroke-miterlimit="10"/>
<path d="M463.748 165.587L456.547 168.207" stroke="white" stroke-width="2.75" stroke-miterlimit="10"/>
<path d="M446.704 128.735L440.062 132.562" stroke="white" stroke-width="2.75" stroke-miterlimit="10"/>
<path d="M423.506 95.395L417.635 100.319" stroke="white" stroke-width="2.75" stroke-miterlimit="10"/>
<path d="M324.919 25.9136L322.288 33.1115" stroke="white" stroke-width="2.75" stroke-miterlimit="10"/>
<path d="M285.711 15.2739L284.381 22.817" stroke="white" stroke-width="2.75" stroke-miterlimit="10"/>
<path d="M207.635 395.107H209.505V385.713C209.505 385.251 209.461 382.787 209.395 381.533H209.483C209.681 382.919 210.297 385.053 210.473 385.801L211.969 392.027H214.301L215.841 385.801C216.017 385.053 216.545 383.183 216.787 381.533H216.875C216.809 382.787 216.765 385.251 216.765 385.713V395.107H218.635V379.707H215.533L214.147 385.515C213.751 387.209 213.289 388.859 213.179 389.871H213.113C213.003 388.859 212.629 387.627 212.123 385.515L210.737 379.707H207.635V395.107ZM238.041 381.445V379.707H228.735V381.445H232.387V393.369H228.735V395.107H238.041V393.369H234.389V381.445H238.041ZM248.296 395.107H250.254V386.329C250.254 385.911 250.21 383.953 250.144 382.479H250.166C250.76 383.645 251.53 385.295 251.838 385.889L256.678 395.107H258.944V379.707H256.986V388.265C256.986 388.903 257.03 390.839 257.096 392.115H257.074C256.436 390.905 255.886 389.717 255.358 388.705L250.584 379.707H248.296V395.107ZM277.911 395.107H279.957L275.007 379.707H272.741L267.769 395.107H269.859L271.223 390.509H276.525L277.911 395.107ZM271.751 388.749L273.137 384.107C273.423 383.139 273.599 382.435 273.841 381.621H273.863L274.589 384.107L275.997 388.749H271.751Z" fill="white"/>
<path d="M161.016 422.107H163.018V408.445H167.748V406.707H156.308V408.445H161.016V422.107ZM177.871 422.107H187.573V420.325H179.851V415.221H186.825V413.439H179.851V408.489H187.573V406.707H177.871V422.107ZM202.778 422.371C205.44 422.371 208.476 421.359 208.476 417.641C208.476 414.451 206.078 413.835 203.24 413.307C201.326 412.955 199.192 412.471 199.192 410.711C199.192 409.017 200.666 408.093 202.426 408.093C204.516 408.093 205.836 409.369 205.968 411.525L208.058 411.151C207.662 407.653 205.22 406.443 202.338 406.443C199.918 406.443 197.146 407.697 197.146 410.777C197.146 413.659 199.588 414.561 201.81 415.111C203.944 415.639 206.408 415.661 206.408 417.795C206.408 419.907 204.648 420.699 202.712 420.699C200.512 420.699 198.928 419.423 198.796 417.091L196.684 417.311C196.816 420.765 199.588 422.371 202.778 422.371ZM221.744 422.107H223.746V408.445H228.476V406.707H217.036V408.445H221.744V422.107ZM238.665 422.107H241.217L242.361 415.639C242.603 414.231 242.845 412.823 242.955 411.811H243.021C243.153 412.779 243.417 414.319 243.659 415.617L244.869 422.107H247.355L249.115 406.707H247.047L246.343 415.969C246.233 417.465 246.145 418.675 246.101 419.621H246.035C245.903 418.653 245.705 417.663 245.375 415.969L244.187 409.787H241.855L240.645 415.969C240.403 417.201 240.139 418.675 240.029 419.621H239.963C239.897 418.631 239.787 417.707 239.655 415.969L238.951 406.707H236.883L238.665 422.107ZM263.263 422.371C267.091 422.371 269.137 419.181 269.137 414.407C269.137 409.699 267.091 406.443 263.263 406.443C259.391 406.443 257.345 409.677 257.345 414.407C257.345 419.599 259.435 422.371 263.263 422.371ZM263.263 420.677C262.185 420.677 261.261 420.281 260.667 419.533C259.831 418.455 259.611 416.695 259.611 414.407C259.611 412.251 259.853 410.469 260.645 409.391C261.239 408.577 262.185 408.181 263.351 408.181C264.473 408.181 265.463 408.621 266.035 409.545C266.717 410.645 266.893 412.405 266.893 414.407C266.893 416.673 266.629 418.543 265.749 419.621C265.177 420.325 264.275 420.677 263.263 420.677ZM288.61 418.257C288.61 416.673 288.06 415.551 286.608 415.001C287.95 414.539 288.984 413.131 288.984 411.239C288.984 407.059 285.706 406.707 283.022 406.707H278.336V422.107H280.316V415.727H283.22C285.838 415.727 286.63 416.431 286.63 418.477C286.63 420.611 286.784 421.337 287.29 422.107H289.468L289.49 422.041C288.742 421.095 288.61 420.039 288.61 418.257ZM283 414.033H280.316V408.423H283.022C284.848 408.423 287.026 408.423 287.026 411.327C287.026 413.879 284.848 414.033 283 414.033ZM299.546 422.107H309.006V420.369H301.526V406.707H299.546V422.107ZM319.129 422.107H323.815C327.687 422.107 329.909 419.313 329.909 414.407C329.909 409.721 327.797 406.707 323.837 406.707H319.129V422.107ZM321.109 420.391V408.423H323.639C325.047 408.423 326.147 408.775 326.785 409.853C327.445 410.975 327.665 412.515 327.665 414.407C327.665 416.277 327.511 417.685 326.741 418.895C326.081 419.929 325.025 420.391 323.639 420.391H321.109Z" fill="white"/>
</svg>
