<svg id="Layer_1" data-name="Layer 1" xmlns="http://www.w3.org/2000/svg" viewBox="0 0 284 284"><defs><style>.cls-1{fill:#2d2d2d;}</style></defs><path class="cls-1" d="M280.21,160.32,268,151.19l1,3.5c-.76-.4-1.56-.84-2.38-1.34-6.58-3.91-12.58-9.14-19.39-16.89V60.19L175.94,86.47v78.79q-1.69,2.09-3.5,4.09V60.19L101.19,86.47v24a43.27,43.27,0,0,0-3.5-4.2V60.19L26.44,86.47v50.75C19.9,142,12.12,145.65,4,145l-.41,4.71c.82.07,1.64.11,2.45.11,7.39,0,14.34-2.87,20.41-6.81v54.57l71.25,26.28V113.68a59.85,59.85,0,0,1,3.5,5.58v78.27l71.25,26.28V176.22q1.78-1.77,3.5-3.67v25l71.25,26.28V143.5a79.86,79.86,0,0,0,17,13.92c1.32.79,2.57,1.47,3.78,2.06l-2.85,2.89Zm-249,33.91V139.56a79.68,79.68,0,0,0,8-7.28,93.37,93.37,0,0,0,9.39-12.14c1.65-2.39,3.34-4.84,5.14-7.14l.91,3.65,6.11-14-14.16,5.71,3.91,1.09c-2.07,2.6-4,5.33-5.8,8A90.77,90.77,0,0,1,35.76,129c-1.4,1.45-2.94,2.94-4.59,4.4V89.77L93,67V106l-1,1.21c.35.31.7.64,1,1V217Zm74.75,0v-65c1.45,3.45,2.78,6.95,4,10.31,1.52,4,3,7.82,4.49,11.3l.84,1.9c3.4,7.72,7.25,16.39,12.89,23.35l-3.87,1.27,14.39,5.08L132,168.69l-.74,3.63c-4.93-6.36-8.47-14.38-11.62-21.54l-.84-1.91c-1.49-3.35-2.9-7.09-4.4-11.05a166,166,0,0,0-8.47-19.77V89.77L167.7,67V174.19l-.8.74.8.91V217Zm74.75,0V166.9c3.72-4.7,7-9.48,9.71-13.43,1-1.5,2-2.9,2.88-4.16,1.61-2.28,3.15-4.78,4.78-7.44a101.9,101.9,0,0,1,8.37-12.21l.48,3.66,7.68-13.19-14.72,4,3.74,1.53A94.71,94.71,0,0,0,194,139.4c-1.59,2.58-3.09,5-4.61,7.18-.9,1.28-1.88,2.69-2.92,4.21-1.78,2.59-3.72,5.41-5.81,8.28V89.77L242.45,67v69.47l-.88.75c.3.34.59.68.88,1V217Z"/><path class="cls-1" d="M213.59,118l2,4.31a13.68,13.68,0,0,1,1.89-.71L216.13,117A18.17,18.17,0,0,0,213.59,118Z"/><path class="cls-1" d="M221.34,121.12a12.56,12.56,0,0,1,3.88.88l1.73-4.41a17.68,17.68,0,0,0-5.33-1.2Z"/><path class="cls-1" d="M231.58,120.09,228.92,124a29.43,29.43,0,0,1,3.42,2.75l3.21-3.48A35,35,0,0,0,231.58,120.09Z"/><path class="cls-1" d="M241.91,130.19c-1-1.28-2-2.38-2.88-3.37L235.51,130c.84.93,1.74,2,2.73,3.2l.26.32,3.68-3Z"/><path class="cls-1" d="M59.37,100.71l2.68,3.91a19.24,19.24,0,0,1,1.81-1.12l-2.27-4.15C60.84,99.76,60.09,100.22,59.37,100.71Z"/><path class="cls-1" d="M84.59,102.73a25.5,25.5,0,0,1,3.83,1.94l2.49-4a29.47,29.47,0,0,0-4.55-2.31Z"/><path class="cls-1" d="M66.34,97.32l1.41,4.52A22.82,22.82,0,0,1,71.9,101l-.52-4.7A27.17,27.17,0,0,0,66.34,97.32Z"/><path class="cls-1" d="M76.48,96.15l-.29,4.72a29.38,29.38,0,0,1,3.3.4l1,.19,1-4.62-1.18-.23A32.13,32.13,0,0,0,76.48,96.15Z"/><path class="cls-1" d="M137.49,184.42c.75.45,1.52.87,2.28,1.23l2-4.27c-.62-.3-1.26-.64-1.88-1Z"/><path class="cls-1" d="M153,182.8l1,4.63a26.11,26.11,0,0,0,4.55-1.41l-1.79-4.38A22.45,22.45,0,0,1,153,182.8Z"/><path class="cls-1" d="M160.3,179.84l2.41,4.08a43.17,43.17,0,0,0,3.82-2.56l-2.84-3.79A37.12,37.12,0,0,1,160.3,179.84Z"/><path class="cls-1" d="M144.31,187.29a21.46,21.46,0,0,0,4.83.62l.06-4.74a16,16,0,0,1-3.76-.48Z"/></svg>