<svg id="Layer_1" data-name="Layer 1" xmlns="http://www.w3.org/2000/svg" viewBox="0 0 284 284"><defs><style>.cls-1{fill:#2d2d2d;}.cls-2{fill:#a45a8d;}</style></defs><path class="cls-1" d="M266.26,179.57a2.32,2.32,0,0,0-.06-.46s0-.09,0-.13a2.43,2.43,0,0,0-1.11-1.43l-48.92-28.11a2.38,2.38,0,0,0-2.42,0L192.26,162.6V135.27a2.32,2.32,0,0,0-.06-.45s0-.1,0-.14a2.4,2.4,0,0,0-1.11-1.43l-22.6-13,22.66-13.85a2.37,2.37,0,0,0,1.13-2V48.16h0v0a2.32,2.32,0,0,0-.06-.46c0-.05,0-.09,0-.14a2.38,2.38,0,0,0-1.11-1.42L142.15,18a2.38,2.38,0,0,0-2.42,0l-46,28.12c-.09.06-.16.13-.25.2s-.15.11-.21.17a1.71,1.71,0,0,0-.2.27,1.84,1.84,0,0,0-.17.22,2.85,2.85,0,0,0-.12.31,1.56,1.56,0,0,0-.11.26,1.86,1.86,0,0,0,0,.34,2.17,2.17,0,0,0,0,.25v56.23a2.4,2.4,0,0,0,1.19,2.06l22.61,13L93.73,133.29c-.09.05-.16.13-.25.19a1.81,1.81,0,0,0-.21.18,1.64,1.64,0,0,0-.2.26,2,2,0,0,0-.17.23,2.68,2.68,0,0,0-.12.3c0,.09-.08.17-.11.26a2,2,0,0,0,0,.34,2.34,2.34,0,0,0,0,.26v28.18L68.15,149.44a2.38,2.38,0,0,0-2.42,0l-46,28.12a2,2,0,0,0-.23.18c-.08.07-.16.12-.23.19a2.07,2.07,0,0,0-.19.25,2.15,2.15,0,0,0-.18.24,2.52,2.52,0,0,0-.12.29c0,.09-.08.18-.11.27s0,.23,0,.34a2.34,2.34,0,0,0,0,.26v56.23a2.37,2.37,0,0,0,1.19,2L68.71,266h0a2.13,2.13,0,0,0,.35.14l.21.09a2.46,2.46,0,0,0,.6.07,2.57,2.57,0,0,0,.62-.08l.18-.08a1.77,1.77,0,0,0,.38-.15l0,0h0l46-28.12a2.37,2.37,0,0,0,1.13-2V207.66l24.45,14.05h0a3.65,3.65,0,0,0,.35.14l.21.08a2.47,2.47,0,0,0,.6.08,2.16,2.16,0,0,0,.62-.09,1.34,1.34,0,0,0,.18-.07,2.54,2.54,0,0,0,.38-.16l0,0s0,0,0,0l21.47-13.12v27.29a2.37,2.37,0,0,0,1.19,2L216.71,266h0a2.13,2.13,0,0,0,.35.14l.21.09a2.46,2.46,0,0,0,.6.07,2.57,2.57,0,0,0,.62-.08l.18-.08a1.77,1.77,0,0,0,.38-.15l0,0h0l46-28.12a2.37,2.37,0,0,0,1.13-2V179.57ZM215,154.24l44.25,25.43L217.85,205l-40.78-23.43-3.47-2Zm-27.48-51.17-41.27,25.22V77.61l2.46-1.51,38.81-23.72ZM141,22.79l44.25,25.43L147.11,71.53l-3.26,2L99.6,48.1ZM97.33,52.25l44.19,25.4v50.77L97.33,103Zm23.74,69.87,21.64,12.44h0a2.54,2.54,0,0,0,.38.16l.18.07a2.47,2.47,0,0,0,.6.08,2.16,2.16,0,0,0,.62-.09l.21-.08a3.68,3.68,0,0,0,.35-.15l0,0h0l18.75-11.45,21.39,12.29-41.41,25.3L99.6,135.25ZM67,154.24l44.25,25.43L69.85,205,29.07,181.54l-3.47-2ZM23.33,183.7l44.19,25.4v50.77l-44.19-25.4Zm90.2,50.81L72.26,259.74V209.05l41.27-25.22Zm4.73-54.92v0a2.32,2.32,0,0,0-.06-.46s0-.09,0-.13a2.46,2.46,0,0,0-1.1-1.43L97.33,166.21V139.4l44.19,25.39v50.77L118.26,202.2V179.59Zm28,35.84V164.75l41.27-25.22v26l-19.8,12.1a2,2,0,0,0-.23.18c-.08.07-.16.12-.23.19a2.07,2.07,0,0,0-.19.25,2.15,2.15,0,0,0-.18.24,2.52,2.52,0,0,0-.12.29c0,.09-.08.18-.11.27s0,.23,0,.34a2.34,2.34,0,0,0,0,.26V203Zm25.07-31.73,44.19,25.4v50.77l-44.19-25.4Zm90.2,50.81-41.27,25.23V209.05l41.27-25.22Z"/><polygon class="cls-2" points="-82.36 270.18 -28.61 379.09 91.57 396.56 4.61 481.33 25.14 601.03 -82.36 544.51 -189.86 601.03 -169.33 481.33 -256.29 396.56 -136.11 379.09 -82.36 270.18"/></svg>