<svg id="Layer_1" data-name="Layer 1" xmlns="http://www.w3.org/2000/svg" viewBox="0 0 832 454"><defs><style>.cls-1{fill:#2d2d2d;}.cls-2{fill:#fff;}</style></defs><rect class="cls-1" x="-19.04" y="-20.96" width="872.39" height="497.34"/><path class="cls-2" d="M590.34,280.56v0a1.42,1.42,0,0,0-.66-.86l-69.21-39.77a1.4,1.4,0,0,0-1.44,0l-33.32,20.36V218.23h0a1.65,1.65,0,0,0,0-.32,0,0,0,0,0,0,0A1.39,1.39,0,0,0,485,217l-34.8-20L485,175.72a1.39,1.39,0,0,0,.67-1.2V95h0a1.65,1.65,0,0,0,0-.32,0,0,0,0,0,0,0,1.39,1.39,0,0,0-.66-.86L415.8,54a1.4,1.4,0,0,0-1.44,0L349.28,93.77a1.5,1.5,0,0,0-.13.11,1.2,1.2,0,0,0-.26.26l-.1.15s-.05.11-.08.17l-.06.16a1.52,1.52,0,0,0,0,.21s0,.1,0,.15v79.54a1.41,1.41,0,0,0,.71,1.22l34.81,20L349.28,217a.69.69,0,0,0-.13.11l-.14.11a1.58,1.58,0,0,0-.12.15l-.1.14-.08.18-.06.16a1.2,1.2,0,0,0,0,.2s0,.1,0,.16v43.2l-37.47-21.54a1.42,1.42,0,0,0-1.45,0L244.61,279.7l-.14.11-.14.12a1.71,1.71,0,0,0-.11.14.49.49,0,0,0-.1.15.89.89,0,0,0-.08.17,1.66,1.66,0,0,0-.06.16,1.52,1.52,0,0,0,0,.21c0,.05,0,.1,0,.15v79.54a1.41,1.41,0,0,0,.71,1.22l69.21,39.77h0a.9.9,0,0,0,.21.08l.13.05a1.34,1.34,0,0,0,.35.05,1.65,1.65,0,0,0,.38-.05l.1-.05a.92.92,0,0,0,.23-.09h0l65.08-39.77a1.39,1.39,0,0,0,.67-1.2V317.24l37.48,21.54h0l.21.09.13.05a1.34,1.34,0,0,0,.35,0,1.2,1.2,0,0,0,.38,0l.1,0a.94.94,0,0,0,.23-.1h0l33.31-20.36v42.05a1.43,1.43,0,0,0,.71,1.22l69.21,39.77h0a.9.9,0,0,0,.21.08l.13.05a1.49,1.49,0,0,0,.36.05,1.57,1.57,0,0,0,.37-.05l.11-.05a1,1,0,0,0,.22-.09h0l65.08-39.77a1.4,1.4,0,0,0,.68-1.2V280.91h0v0A1.92,1.92,0,0,0,590.34,280.56ZM482.89,173.72l-62.25,38V135.54l62.25-38ZM415.11,56.85,481.53,95l-62.33,38.1-65-37.37-1.38-.8ZM351.43,173.7V97.42l66.38,38.15v76.27ZM313.14,397.77l-66.38-38.14V283.35l66.38,38.15ZM314.53,319l-60.31-34.65-6.1-3.51,62.32-38.09,66.42,38.16Zm63.68,40.62-62.24,38V321.47l62.24-38Zm39.6-24.54L381,314V280.91h0v0a1.87,1.87,0,0,0,0-.32s0,0,0,0a1.39,1.39,0,0,0-.66-.86l-28.9-16.61V220.69l66.38,38.14Zm1.39-78.74-60.3-34.65-6.11-3.51,34.13-20.86,31.6,18.16h0a.9.9,0,0,0,.21.08l.13.05a1.34,1.34,0,0,0,.35,0,1.58,1.58,0,0,0,.38,0l.1-.05a.92.92,0,0,0,.23-.09h0l27.49-16.8,34.08,19.59ZM454,279.7a1.5,1.5,0,0,0-.13.11,1.2,1.2,0,0,0-.26.26c0,.05-.07.09-.1.15a.87.87,0,0,0-.07.17l-.07.16a.75.75,0,0,0,0,.21.8.8,0,0,0,0,.15v34.17L420.64,335V258.81l62.25-38V262Zm68.53,118.07L456.1,359.63V283.35l66.38,38.15ZM523.87,319l-60.3-34.65-6.11-3.51,62.33-38.09,66.41,38.16Zm63.69,40.62-62.25,38V321.47l62.25-38Z"/></svg>