<svg width="40" height="40" viewBox="0 0 40 40" fill="none" xmlns="http://www.w3.org/2000/svg">
<g clip-path="url(#clip0)">
<circle cx="11.9738" cy="10.6887" r="5.93865" stroke="#2D2D2D" stroke-width="1.5"/>
<circle cx="28.0031" cy="10.6887" r="5.93865" stroke="#2D2D2D" stroke-width="1.5"/>
<mask id="path-3-inside-1" fill="white">
<path fill-rule="evenodd" clip-rule="evenodd" d="M-0.0242179 27.0794C0.483902 20.8979 5.66181 16.0396 11.9744 16.0396C18.26 16.0396 23.4206 20.8563 23.9663 27H24.0009V35C24.0009 35.5523 23.5532 36 23.0009 36H1.00091C0.448624 36 0.000908062 35.5523 0.000908062 35V27.379C-0.023514 27.2843 -0.0327891 27.1837 -0.0242179 27.0794Z"/>
</mask>
<path d="M-0.0242179 27.0794L1.47074 27.2023H1.47074L-0.0242179 27.0794ZM23.9663 27L22.4722 27.1327C22.5409 27.9066 23.1893 28.5 23.9663 28.5V27ZM24.0009 27H25.5009C25.5009 26.1715 24.8293 25.5 24.0009 25.5V27ZM0.000908062 27.379H1.50091C1.50091 27.2525 1.48492 27.1266 1.45333 27.0042L0.000908062 27.379ZM11.9744 14.5396C4.87458 14.5396 -0.947621 20.0033 -1.51918 26.9565L1.47074 27.2023C1.91543 21.7925 6.44905 17.5396 11.9744 17.5396V14.5396ZM25.4604 26.8672C24.8465 19.9565 19.0439 14.5396 11.9744 14.5396V17.5396C17.4761 17.5396 21.9946 21.756 22.4722 27.1327L25.4604 26.8672ZM23.9663 28.5H24.0009V25.5H23.9663V28.5ZM22.5009 27V35H25.5009V27H22.5009ZM22.5009 35C22.5009 34.7238 22.7248 34.5 23.0009 34.5V37.5C24.3816 37.5 25.5009 36.3807 25.5009 35H22.5009ZM23.0009 34.5H1.00091V37.5H23.0009V34.5ZM1.00091 34.5C1.27705 34.5 1.50091 34.7238 1.50091 35H-1.49909C-1.49909 36.3807 -0.379803 37.5 1.00091 37.5V34.5ZM1.50091 35V27.379H-1.49909V35H1.50091ZM-1.51918 26.9565C-1.54156 27.2289 -1.51758 27.4977 -1.45152 27.7538L1.45333 27.0042C1.47055 27.0709 1.47599 27.1385 1.47074 27.2023L-1.51918 26.9565Z" fill="#2D2D2D" mask="url(#path-3-inside-1)"/>
<mask id="path-5-inside-2" fill="white">
<path fill-rule="evenodd" clip-rule="evenodd" d="M16.0031 27.0794C16.5112 20.8979 21.6892 16.0396 28.0018 16.0396C34.2874 16.0396 39.4479 20.8563 39.9937 27H40.0283V35C40.0283 35.5523 39.5805 36 39.0283 36H17.0283C16.476 36 16.0283 35.5523 16.0283 35V27.379C16.0038 27.2843 15.9946 27.1837 16.0031 27.0794Z"/>
</mask>
<path d="M16.0031 27.0794L17.4981 27.2023H17.4981L16.0031 27.0794ZM39.9937 27L38.4995 27.1327C38.5683 27.9066 39.2167 28.5 39.9937 28.5V27ZM40.0283 27H41.5283C41.5283 26.1715 40.8567 25.5 40.0283 25.5V27ZM16.0283 27.379H17.5283C17.5283 27.2525 17.5123 27.1266 17.4807 27.0042L16.0283 27.379ZM28.0018 14.5396C20.9019 14.5396 15.0797 20.0033 14.5082 26.9565L17.4981 27.2023C17.9428 21.7925 22.4764 17.5396 28.0018 17.5396V14.5396ZM41.4878 26.8672C40.8739 19.9565 35.0713 14.5396 28.0018 14.5396V17.5396C33.5034 17.5396 38.0219 21.756 38.4995 27.1327L41.4878 26.8672ZM39.9937 28.5H40.0283V25.5H39.9937V28.5ZM38.5283 27V35H41.5283V27H38.5283ZM38.5283 35C38.5283 34.7238 38.7521 34.5 39.0283 34.5V37.5C40.409 37.5 41.5283 36.3807 41.5283 35H38.5283ZM39.0283 34.5H17.0283V37.5H39.0283V34.5ZM17.0283 34.5C17.3044 34.5 17.5283 34.7238 17.5283 35H14.5283C14.5283 36.3807 15.6475 37.5 17.0283 37.5V34.5ZM17.5283 35V27.379H14.5283V35H17.5283ZM14.5082 26.9565C14.4858 27.2289 14.5098 27.4977 14.5758 27.7538L17.4807 27.0042C17.4979 27.0709 17.5033 27.1385 17.4981 27.2023L14.5082 26.9565Z" fill="#2D2D2D" mask="url(#path-5-inside-2)"/>
</g>
<defs>
<clipPath id="clip0">
<rect width="40" height="40" fill="white"/>
</clipPath>
</defs>
</svg>
