<svg width="155" height="44" viewBox="0 0 155 44" fill="none" xmlns="http://www.w3.org/2000/svg">
<g clip-path="url(#clip0)">
<path d="M24.08 43.9092C23.2699 43.9328 22.4815 43.6453 21.8763 43.1058C21.2711 42.5662 20.895 41.8155 20.8249 41.0073L20.4586 38.1333C16.9699 37.1381 14.9289 34.554 14.3986 30.4508L11.2588 6.23683C10.5852 6.12834 9.90345 6.07926 9.22133 6.09016C8.21169 6.08189 7.20568 6.21231 6.23146 6.47778V43.2003H0.0703125V13.6819C0.0703125 9.67651 1.86702 6.84794 5.13948 5.67112V3.76794C5.13948 1.56794 6.47567 0.090798 8.46078 0.090798C10.4459 0.090798 11.6914 1.32699 12.0123 3.58286L12.2566 5.34635C15.8395 6.34858 17.9328 9.22953 18.5538 13.9054L21.4564 37.2464C23.1906 37.5816 24.9728 37.5816 26.707 37.2464L29.6096 13.9089C30.2167 9.22953 32.3344 6.34858 35.9068 5.33588L36.1511 3.57239C36.472 1.32699 37.735 0.0803223 39.7026 0.0803223C41.6703 0.0803223 43.0239 1.55746 43.0239 3.75746V5.66064C46.2964 6.83747 48.0931 9.66604 48.0931 13.6714V43.1898H41.925V6.47429C40.9507 6.20882 39.9447 6.0784 38.9351 6.08667C38.253 6.07577 37.5712 6.12484 36.8977 6.23334L33.7578 30.4508C33.2379 34.4806 31.1482 37.1276 27.6978 38.1333L27.3524 41.0108C27.2985 41.828 26.9246 42.591 26.3118 43.1337C25.699 43.6765 24.8969 43.9552 24.08 43.9092ZM21.5994 38.4127L21.9169 40.8886C21.9502 41.4315 22.196 41.9394 22.6009 42.3022C23.0058 42.665 23.5372 42.8534 24.08 42.8267C24.35 42.8461 24.6212 42.811 24.8774 42.7236C25.1337 42.6362 25.3698 42.4982 25.5718 42.3179C25.7739 42.1375 25.9377 41.9183 26.0535 41.6734C26.1694 41.4285 26.235 41.1628 26.2465 40.8921L26.564 38.4127C24.9201 38.6828 23.2433 38.6828 21.5994 38.4127ZM43.0239 42.1178H46.9941V13.6819C46.9941 10.2876 45.6265 7.94445 43.0239 6.85143V42.1178ZM1.15881 42.1178H5.13948V6.85143C2.54036 7.94445 1.18672 10.2876 1.18672 13.6819L1.15881 42.1178ZM12.4135 6.53715L15.4906 30.3076C15.9302 33.7473 17.5525 35.9718 20.3086 36.9425L17.4653 14.0416C16.942 10.0048 15.2848 7.53937 12.4135 6.53715ZM35.7499 6.53715C32.8786 7.53937 31.2145 10.0048 30.6981 14.0451L27.8548 36.9286C30.6144 35.9578 32.2332 33.7333 32.6728 30.2937L35.7499 6.53715ZM6.23844 5.32191C7.21707 5.08371 8.22118 4.96644 9.22831 4.9727C9.85812 4.96605 10.4876 5.00339 11.1122 5.08445L10.9238 3.71207C10.6831 2.02889 9.85279 1.17683 8.46078 1.17683C7.06876 1.17683 6.23844 2.16508 6.23844 3.75397V5.32191ZM38.9351 4.9727C39.9422 4.96644 40.9463 5.08371 41.925 5.32191V3.76794C41.925 2.17905 41.0737 1.1908 39.7026 1.1908C38.3315 1.1908 37.4803 2.04286 37.2396 3.72604L37.0512 5.09842C37.6758 5.01735 38.3053 4.98002 38.9351 4.98667V4.9727Z" fill="white"/>
<path d="M65.1009 43.2002H59.0479V0.799561H65.1009V43.2002ZM60.1468 42.1002H64.0019V1.89956H60.1468V42.1002Z" fill="white"/>
<path d="M104.37 43.9092C101.743 43.9092 101.143 41.5102 100.947 40.721L100.494 38.7096C96.5619 38.0111 94.1616 35.4724 93.1673 30.9711L87.4702 6.20542C86.8187 6.12375 86.1626 6.08409 85.506 6.08669C84.4156 6.06901 83.3289 6.21617 82.2824 6.5232V43.1899H76.1143V13.5073C76.1143 9.66606 77.8586 6.99463 81.1834 5.74447V3.76796C81.1834 1.56796 82.5161 0.0908203 84.5012 0.0908203C86.2142 0.0908203 87.4737 1.18034 87.8714 3.0032L88.3773 5.23812C92.2149 5.93653 94.5175 8.40193 95.5885 12.973L101.397 37.7422C102.051 37.8238 102.71 37.8635 103.368 37.861C104.454 37.8693 105.537 37.7367 106.589 37.4664V0.79971H112.757V31.4286C112.757 34.5715 110.918 37.0368 107.688 38.2486V40.1588C107.688 42.4775 106.418 43.9092 104.37 43.9092ZM101.662 38.8842L102.011 40.4661C102.426 42.1283 103.11 42.8092 104.366 42.8092C105.762 42.8092 106.585 41.8489 106.585 40.1727V38.5943C105.529 38.8361 104.448 38.9533 103.365 38.9435C102.796 38.9449 102.228 38.9169 101.662 38.8597V38.8772V38.8842ZM77.2132 42.1003H81.1834V6.92479C78.5459 8.06669 77.2132 10.2772 77.2132 13.5038V42.1003ZM88.6459 6.41146L94.2279 30.7267C95.0931 34.6203 97.0189 36.8029 100.215 37.5327L94.521 13.2175C93.5929 9.26796 91.7683 7.13431 88.6459 6.41146ZM107.688 1.89971V37.0788C110.255 35.9892 111.658 34.0092 111.658 31.4426V1.89971H107.688ZM82.2824 5.36384C83.3351 5.09218 84.419 4.96068 85.506 4.97273C86.0746 4.97139 86.6428 4.99936 87.2085 5.05653V5.03907L86.7968 3.22669C86.6294 2.45844 86.0991 1.17685 84.5012 1.17685C82.9034 1.17685 82.2824 2.50733 82.2824 3.754V5.36384Z" fill="white"/>
<path d="M155.111 43.2004H148.657L145.475 30.5731H127.584L124.462 43.2004H118.008L126.332 12.5331C127.295 9.03052 129.496 6.63497 132.713 5.58735L133.289 3.17783C133.637 1.85084 134.335 0.101318 136.537 0.101318C138.738 0.101318 139.439 1.84735 139.781 3.16735L140.35 5.58735C143.559 6.63497 145.761 9.041 146.727 12.54L155.111 43.2004ZM149.511 42.1004H153.67L145.667 12.8229C144.875 9.94894 143.158 7.90957 140.674 6.8864L145.621 26.4454H127.515L132.399 6.86894C129.911 7.91655 128.195 9.94544 127.403 12.8054L119.456 42.1004H123.614L126.737 29.4731H146.319L149.511 42.1004ZM128.928 25.3385H144.201L139.443 6.4464C137.536 5.96098 135.538 5.96098 133.63 6.4464L128.928 25.3385ZM133.934 5.21021V5.25211C135.652 4.8994 137.424 4.8994 139.143 5.25211V5.20671L138.717 3.41529C138.302 1.81243 137.691 1.18386 136.54 1.18386C135.389 1.18386 134.778 1.81243 134.36 3.42576L133.934 5.20671V5.21021Z" fill="white"/>
</g>
<defs>
<clipPath id="clip0">
<rect width="154.898" height="44" fill="white"/>
</clipPath>
</defs>
</svg>
