<svg fill="none" height="40" viewBox="0 0 40 40" width="40" xmlns="http://www.w3.org/2000/svg"><path d="m20.0001 33.9423c-.5164.0155-1.0191-.1672-1.4051-.5106-.3859-.3433-.6258-.8214-.6704-1.3361l-.2223-1.8289c-2.2222-.6333-3.5244-2.2778-3.86-4.8889l-2-15.40889c-.4297-.06903-.8647-.10026-1.3-.09333-.64234-.00529-1.28239.07771-1.90218.24662v23.3689h-3.93333v-18.7844c0-2.5489 1.14222-4.3489 3.22889-5.09779v-1.21111c0-1.4.84889-2.34 2.11332-2.34 1.2645 0 2.0578.78667 2.2622 2.22222l.1556 1.12223c2.2778.64445 3.6267 2.47775 4.0133 5.45335l1.8467 14.8533c1.1053.2133 2.2413.2133 3.3467 0l1.8466-14.8511c.3867-2.9778 1.7356-4.8111 4.0134-5.45555l.1555-1.12223c.2045-1.42889 1.0067-2.22222 2.2622-2.22222 1.2556 0 2.1134.94 2.1134 2.34v1.21111c2.0866.74889 3.2289 2.54889 3.2289 5.09779v18.7844h-3.9289v-23.3711c-.6198-.16876-1.2599-.25176-1.9023-.24664-.4352-.00693-.8702.0243-1.3.09333l-2 15.41111c-.3288 2.5645-1.6622 4.2489-3.86 4.8889l-.2222 1.8333c-.0343.5191-.272 1.0037-.6614 1.3486s-.8992.5223-1.4186.4937zm-1.58-3.4978.2 1.5755c.024.3439.1821.6647.4402.8933.258.2285.5955.3467.9398.329.172.0123.3448-.01.508-.0656s.3136-.1434.4423-.2582.233-.2543.3068-.4101c.0738-.1559.1156-.325.1229-.4973l.2-1.5777c-1.0463.1718-2.1137.1718-3.16 0zm13.6445 2.3578h2.5289v-18.0956c0-2.16-.8712-3.6511-2.5289-4.3467zm-26.6667 0h2.53778v-22.4423c-1.65778.6956-2.52889 2.1867-2.52889 4.3467zm7.1711-22.6423 1.9578 15.1267c.2822 2.1889 1.3133 3.6044 3.0711 4.2222l-1.82-14.5733c-.3267-2.5689-1.38-4.1378-3.2089-4.7756zm14.8622 0c-1.8289.6378-2.8889 2.2067-3.2155 4.7778l-1.8111 14.5622c1.7555-.6177 2.7889-2.0333 3.0689-4.2222zm-18.79552-.77331c.62262-.15147 1.26145-.2261 1.90222-.22222.4019-.0042.8036.01956 1.2022.07111l-.1222-.87333c-.1533-1.07112-.68-1.61334-1.5689-1.61334-.88888 0-1.41332.62889-1.41332 1.64zm20.82662-.22222c.6408-.00388 1.2796.07075 1.9023.22222v-.98889c0-1.01111-.5423-1.64-1.4134-1.64s-1.4155.54222-1.5689 1.61333l-.1222.87334c.3986-.05155.8003-.07532 1.2022-.07111z" fill="#fff"/></svg>