<svg id="Layer_1" data-name="Layer 1" xmlns="http://www.w3.org/2000/svg" viewBox="0 0 704 1140"><defs><style>.cls-1{fill:#2d2d2d;}.cls-2{fill:#fff;}</style></defs><rect class="cls-1" width="704" height="1140"/><path class="cls-2" d="M477,778.88a5.07,5.07,0,1,0,6.41-3.22A5.08,5.08,0,0,0,477,778.88Z"/><path class="cls-2" d="M509.37,803.81a4.15,4.15,0,1,0-2.64-5.24A4.16,4.16,0,0,0,509.37,803.81Z"/><path class="cls-2" d="M535.57,626.74a7.49,7.49,0,1,0-9.47,4.76A7.51,7.51,0,0,0,535.57,626.74Z"/><path class="cls-2" d="M520.55,568.94a6,6,0,1,0-3.79-7.55A6,6,0,0,0,520.55,568.94Z"/><path class="cls-2" d="M563.62,581.77a7.49,7.49,0,1,0,4.76,9.47A7.51,7.51,0,0,0,563.62,581.77Z"/><path class="cls-2" d="M325.53,600.73a4.62,4.62,0,1,0-5.85,2.94A4.63,4.63,0,0,0,325.53,600.73Z"/><path class="cls-2" d="M380.14,618.82a4.94,4.94,0,1,0,6.24-3.14A4.94,4.94,0,0,0,380.14,618.82Z"/><path class="cls-2" d="M579,543.27a7.5,7.5,0,1,0-9.47,4.76A7.51,7.51,0,0,0,579,543.27Z"/><path class="cls-2" d="M510.44,667.9a5.64,5.64,0,1,0-3.58-7.13A5.65,5.65,0,0,0,510.44,667.9Z"/><path class="cls-2" d="M613.92,536.32a8.88,8.88,0,1,0,5.64,11.22A8.89,8.89,0,0,0,613.92,536.32Z"/><path class="cls-2" d="M445.38,638.25a7.51,7.51,0,0,0,3.33-10.07h0a7.5,7.5,0,1,0-9,10.48A7.43,7.43,0,0,0,445.38,638.25Z"/><path class="cls-2" d="M382.94,585.07a4.51,4.51,0,0,0-3.49.25,4.58,4.58,0,1,0,3.49-.25Z"/><path class="cls-2" d="M246.27,862.06a4.06,4.06,0,1,0-5.68-4.9,4,4,0,0,0,.23,3.09,4.08,4.08,0,0,0,2.35,2A4,4,0,0,0,246.27,862.06Z"/><path class="cls-2" d="M583.63,455.93a7.29,7.29,0,0,0-1-13.44,7.21,7.21,0,0,0-5.56.4,7.3,7.3,0,0,0,6.55,13Z"/><path class="cls-2" d="M504.05,575.53a7.5,7.5,0,1,0-5.72.41A7.47,7.47,0,0,0,504.05,575.53Z"/><path class="cls-2" d="M516.15,433.64a7.5,7.5,0,1,0,13.39-6.74h0a7.5,7.5,0,1,0-13.39,6.74Z"/><path class="cls-2" d="M431.84,464a3.92,3.92,0,0,0,2.32,2,4,4,0,0,0,3.06-.22,4,4,0,0,0-.54-7.38,4,4,0,0,0-3.06.22A4,4,0,0,0,431.84,464Z"/><path class="cls-2" d="M492,425.39a7.5,7.5,0,1,0,10.06,3.33A7.49,7.49,0,0,0,492,425.39Z"/><path class="cls-2" d="M555.62,536.38a7.52,7.52,0,1,0-5.72.41A7.51,7.51,0,0,0,555.62,536.38Z"/><path class="cls-2" d="M594.07,711.37a7.5,7.5,0,1,0,4.34,3.75A7.44,7.44,0,0,0,594.07,711.37Z"/><path class="cls-2" d="M515.17,297.56a7.49,7.49,0,1,0-4.76-9.47A7.5,7.5,0,0,0,515.17,297.56Z"/><path class="cls-2" d="M581.11,413.49a7.5,7.5,0,1,0,9.47-4.76A7.51,7.51,0,0,0,581.11,413.49Z"/><path class="cls-2" d="M405.34,526.35a7.5,7.5,0,1,0,9.47-4.76A7.51,7.51,0,0,0,405.34,526.35Z"/><path class="cls-2" d="M408.72,446.5a7.49,7.49,0,1,0,4.76,9.47A7.5,7.5,0,0,0,408.72,446.5Z"/><path class="cls-2" d="M405.93,755.42a5.65,5.65,0,1,0-7.14,3.59A5.65,5.65,0,0,0,405.93,755.42Z"/><path class="cls-2" d="M295.2,343.34a4.43,4.43,0,1,0,5.6-2.82A4.44,4.44,0,0,0,295.2,343.34Z"/><path class="cls-2" d="M558.92,347.16a6.48,6.48,0,1,0,4.12,8.19A6.49,6.49,0,0,0,558.92,347.16Z"/><path class="cls-2" d="M340,222.16a5.07,5.07,0,1,0-3.21-6.4A5.07,5.07,0,0,0,340,222.16Z"/><path class="cls-2" d="M452.41,693.24a7.49,7.49,0,1,0-3.33,10.07A7.5,7.5,0,0,0,452.41,693.24Z"/><path class="cls-2" d="M555.23,569.85a7.49,7.49,0,1,0-3.33,10.07A7.45,7.45,0,0,0,555.23,569.85Z"/><path class="cls-2" d="M428.57,665.13a7.5,7.5,0,1,0-4.34-3.75A7.46,7.46,0,0,0,428.57,665.13Z"/><path class="cls-2" d="M237,596.41a3.87,3.87,0,1,0,1.93-2.22h0A3.84,3.84,0,0,0,237,596.41Z"/><path class="cls-2" d="M587.05,527.53a7.5,7.5,0,1,0,3.33-10.06A7.45,7.45,0,0,0,587.05,527.53Z"/><path class="cls-2" d="M478.8,592.07a4.7,4.7,0,0,0-6.31-2.09h0a4.71,4.71,0,1,0,6.31,2.09Z"/><path class="cls-2" d="M592,692.56a9.64,9.64,0,1,0-7.34.53A9.63,9.63,0,0,0,592,692.56Z"/><path class="cls-2" d="M610,590.08a7.5,7.5,0,1,0-3.75,4.34A7.48,7.48,0,0,0,610,590.08Z"/><path class="cls-2" d="M625.93,598.64a7.5,7.5,0,1,0,4.34,3.75A7.44,7.44,0,0,0,625.93,598.64Z"/><path class="cls-2" d="M452,241.51a5.52,5.52,0,0,0,1.92,1.1,5.79,5.79,0,0,0,2.2.27,5.68,5.68,0,1,0-4.12-1.37Z"/><path class="cls-2" d="M500.19,651.62a5.66,5.66,0,1,0-7.43,5.79,5.4,5.4,0,0,0,2.19.27A5.67,5.67,0,0,0,500.19,651.62Z"/><path class="cls-2" d="M399.1,731.88a5.67,5.67,0,0,0,3.29-9.94,5.6,5.6,0,0,0-4.12-1.36,5.66,5.66,0,0,0-1.36,11A5.49,5.49,0,0,0,399.1,731.88Z"/><path class="cls-2" d="M455.63,391.4a5.67,5.67,0,1,0-5.48,9.67,5.53,5.53,0,0,0,2.19.27,5.67,5.67,0,0,0,5.24-6.07A5.6,5.6,0,0,0,455.63,391.4Z"/><path class="cls-2" d="M222.11,534a2.59,2.59,0,0,0,1,.13,2.69,2.69,0,1,0-2-.65A2.59,2.59,0,0,0,222.11,534Z"/><path class="cls-2" d="M237.43,486.61a2.69,2.69,0,0,0,2.48-2.87,2.68,2.68,0,1,0-4.43,2.23,2.76,2.76,0,0,0,.91.52A2.59,2.59,0,0,0,237.43,486.61Z"/><path class="cls-2" d="M256,543.18a2.67,2.67,0,0,0,1.95.65,2.69,2.69,0,1,0-1.95-.65Z"/><path class="cls-2" d="M255.46,467.42a2.78,2.78,0,0,0,1,.12,2.67,2.67,0,0,0,1.84-.92,2.69,2.69,0,1,0-3.79.28A2.76,2.76,0,0,0,255.46,467.42Z"/><path class="cls-2" d="M245.78,568.83a2.68,2.68,0,1,0-4.43,2.23,2.73,2.73,0,0,0,.91.51,2.59,2.59,0,0,0,1,.13,2.69,2.69,0,0,0,2.48-2.87Z"/><path class="cls-2" d="M350.59,628.33a5.75,5.75,0,0,0,1.92,1.09,5.67,5.67,0,1,0-1.92-1.09Z"/><path class="cls-2" d="M242.75,825.59a4.68,4.68,0,0,0,1.72.21,4.46,4.46,0,0,0,4.11-4.77,4.45,4.45,0,0,0-4.76-4.11,4.45,4.45,0,0,0-1.07,8.67Z"/><path class="cls-2" d="M403.44,343.17a5.66,5.66,0,0,0-6.06-5.24,5.67,5.67,0,1,0,6.06,5.24Z"/><path class="cls-2" d="M458.19,669.33a5.67,5.67,0,1,0-9.36,4.71,5.79,5.79,0,0,0,1.93,1.09,5.55,5.55,0,0,0,2.19.27A5.67,5.67,0,0,0,458.19,669.33Z"/><path class="cls-2" d="M546.06,685.26a5.67,5.67,0,1,0-.59-8A5.65,5.65,0,0,0,546.06,685.26Z"/><path class="cls-2" d="M484.86,446a5.68,5.68,0,0,0,.58,8,5.75,5.75,0,0,0,1.92,1.09,5.69,5.69,0,0,0,6.08-1.68,5.67,5.67,0,0,0-.59-8h0A5.67,5.67,0,0,0,484.86,446Z"/><path class="cls-2" d="M549.8,496.8a5.62,5.62,0,0,0-1.95-3.88,5.56,5.56,0,0,0-4.11-1.36,5.66,5.66,0,0,0-3.3,9.94,5.79,5.79,0,0,0,1.93,1.09,5.55,5.55,0,0,0,2.19.27,5.66,5.66,0,0,0,5.24-6.06Z"/><path class="cls-2" d="M464.83,298.84a5.67,5.67,0,1,0-7.41,8.58,5.44,5.44,0,0,0,1.91,1.08,5.67,5.67,0,0,0,5.5-9.66Z"/><path class="cls-2" d="M359.4,690.72a5.69,5.69,0,0,0,4.12,1.36,5.67,5.67,0,1,0-4.7-9.36A5.69,5.69,0,0,0,359.4,690.72Z"/><path class="cls-2" d="M422.4,737.64a5.67,5.67,0,1,0-3.87,2A5.63,5.63,0,0,0,422.4,737.64Z"/><path class="cls-2" d="M384.41,794.7a5.68,5.68,0,0,0,1.92,1.1,5.68,5.68,0,0,0,7.44-5.8,5.67,5.67,0,0,0-9.95-3.29,5.67,5.67,0,0,0,.59,8Z"/><path class="cls-2" d="M358.44,793.41a5.82,5.82,0,0,0,1.93,1.1,5.55,5.55,0,0,0,2.19.26,5.67,5.67,0,1,0-4.12-1.36Z"/><path class="cls-2" d="M365,827.89A5.82,5.82,0,0,0,367,829a5.55,5.55,0,0,0,2.19.26,5.65,5.65,0,1,0-4.12-1.36Z"/><path class="cls-2" d="M550.36,789.6a5.67,5.67,0,1,0-5.49,9.67,5.42,5.42,0,0,0,2.2.27,5.67,5.67,0,0,0,3.29-9.94Z"/><path class="cls-2" d="M498.63,757.22a5.67,5.67,0,0,0-.59-8,5.65,5.65,0,0,0-8,.58,5.67,5.67,0,1,0,8.58,7.41Z"/><path class="cls-2" d="M435.68,731.7a3.49,3.49,0,0,0,2.39,3.07,3.27,3.27,0,0,0,1.36.17,3.5,3.5,0,1,0-.51-7h0A3.51,3.51,0,0,0,435.68,731.7Z"/><path class="cls-2" d="M511.32,721.44a4.71,4.71,0,1,0,3.43,1.13A4.72,4.72,0,0,0,511.32,721.44Z"/><path class="cls-2" d="M375.49,502.87a5.75,5.75,0,0,0,1.92,1.09,5.82,5.82,0,0,0,2.2.27,5.67,5.67,0,0,0,5.24-6.07,5.68,5.68,0,0,0-6.07-5.24,5.67,5.67,0,0,0-3.29,9.95Z"/><path class="cls-2" d="M406.63,482.36a5.67,5.67,0,1,0-5.48,9.68,5.87,5.87,0,0,0,2.19.27,5.67,5.67,0,0,0,3.29-9.95Z"/><path class="cls-2" d="M376.54,566.3a5.87,5.87,0,0,0,2.19.27,5.67,5.67,0,1,0-2.19-.27Z"/><path class="cls-2" d="M405.56,558.22a3.88,3.88,0,0,0,1.56.2,4,4,0,0,0,3.71-4.31,3.93,3.93,0,0,0-1.38-2.75,4,4,0,1,0-3.89,6.86Z"/><path class="cls-2" d="M475.62,549.37a3.68,3.68,0,0,0,1.27,2.53,3.63,3.63,0,0,0,2.69.89,3.69,3.69,0,1,0-3.07-6.1A3.7,3.7,0,0,0,475.62,549.37Z"/><path class="cls-2" d="M598.31,454.25a3.7,3.7,0,1,0-2.69-.89,3.63,3.63,0,0,0,2.69.89Z"/><path class="cls-2" d="M592.3,436.78a3.7,3.7,0,0,0,5.6,4.83,3.69,3.69,0,0,0,.89-2.68,3.7,3.7,0,0,0-6.49-2.15Z"/><path class="cls-2" d="M529.55,360.32a3.7,3.7,0,0,0-.89,7.2,3.7,3.7,0,0,0,4.85-3.78,3.7,3.7,0,0,0-4-3.42Z"/><path class="cls-2" d="M541.39,359.78a3.69,3.69,0,0,0-2.15,6.48,3.58,3.58,0,0,0,1.25.72,3.74,3.74,0,0,0,4-1.1,3.69,3.69,0,0,0-.38-5.21A3.64,3.64,0,0,0,541.39,359.78Z"/><path class="cls-2" d="M532.4,375.16a3.64,3.64,0,0,0,1.27,2.53,3.71,3.71,0,0,0,1.25.71,3.46,3.46,0,0,0,1.43.18,3.7,3.7,0,0,0,3.42-4,3.69,3.69,0,1,0-7.37.54Z"/><path class="cls-2" d="M521,402.24a3.7,3.7,0,0,0,3.59-6.31,3.73,3.73,0,0,0-2.69-.89,3.7,3.7,0,0,0-2.15,6.49A3.71,3.71,0,0,0,521,402.24Z"/><path class="cls-2" d="M511.45,414.76a3.69,3.69,0,0,0-2.14,6.48,3.49,3.49,0,0,0,1.25.72,3.7,3.7,0,1,0,.89-7.2Z"/><path class="cls-2" d="M537,350.45a3.7,3.7,0,0,0-2.15,6.49,3.76,3.76,0,0,0,1.26.71,3.61,3.61,0,0,0,1.43.18,3.7,3.7,0,0,0,2.15-6.49A3.71,3.71,0,0,0,537,350.45Z"/><path class="cls-2" d="M499.38,318.18a3.69,3.69,0,0,0,.38,5.21,3.58,3.58,0,0,0,1.25.72,3.71,3.71,0,0,0,4.86-3.78,3.72,3.72,0,0,0-1.27-2.53,3.7,3.7,0,0,0-5.22.38Z"/><path class="cls-2" d="M519.4,346.78a3.69,3.69,0,0,0-2.14,6.48,3.49,3.49,0,0,0,1.25.72,3.73,3.73,0,0,0,4-1.1,3.69,3.69,0,0,0-3.07-6.1Z"/><path class="cls-2" d="M509.38,344.7a3.61,3.61,0,0,0,1.43.17,3.7,3.7,0,0,0,2.15-6.49,3.7,3.7,0,0,0-6.11,3.07,3.72,3.72,0,0,0,2.53,3.25Z"/><path class="cls-2" d="M576.58,567.31a5.65,5.65,0,0,0,1.92,1.09,5.79,5.79,0,0,0,2.2.27,5.67,5.67,0,0,0,5.24-6.07,5.68,5.68,0,0,0-6.07-5.24,5.67,5.67,0,0,0-3.29,9.95Z"/><path class="cls-2" d="M465.17,614.61a5.67,5.67,0,1,0-7.43,5.8,5.87,5.87,0,0,0,2.19.27,5.68,5.68,0,0,0,5.24-6.07Z"/><path class="cls-2" d="M366.29,762.73a5.67,5.67,0,0,0-7.41,8.58,5.61,5.61,0,0,0,1.92,1.1,5.82,5.82,0,0,0,2.2.27,5.67,5.67,0,0,0,3.29-9.95Z"/><path class="cls-2" d="M369.92,475.44a5.67,5.67,0,0,0-3.29,9.95,5.53,5.53,0,0,0,1.91,1.08,5.67,5.67,0,1,0,1.38-11Z"/><path class="cls-2" d="M433.27,758.39a5.67,5.67,0,1,0-.59-8A5.67,5.67,0,0,0,433.27,758.39Z"/><path class="cls-2" d="M369.43,541.88a5.69,5.69,0,1,0-3.88,2A5.64,5.64,0,0,0,369.43,541.88Z"/><path class="cls-2" d="M200.05,597.23a2.7,2.7,0,0,0,.93.53,2.94,2.94,0,0,0,1.07.13,2.75,2.75,0,1,0-2.28-4.53h0A2.75,2.75,0,0,0,200.05,597.23Z"/><polygon class="cls-2" points="236.7 650.14 236.7 650.14 236.7 650.14 236.7 650.14"/><path class="cls-2" d="M240.85,653.73A2.74,2.74,0,1,0,237,654a2.8,2.8,0,0,0,.93.53,2.7,2.7,0,0,0,2.94-.81Z"/><polygon class="cls-2" points="298.16 514.67 298.16 514.67 298.16 514.67 298.16 514.67"/><path class="cls-2" d="M298.44,518.54a2.78,2.78,0,0,0,2,.67,2.74,2.74,0,0,0,2-4.38,2.75,2.75,0,0,0-2.41-1.1,2.74,2.74,0,0,0-1.59,4.81Z"/><path class="cls-2" d="M163.25,488.83a3,3,0,0,0,.93.53,2.94,2.94,0,0,0,1.07.13A2.75,2.75,0,1,0,163,485h0A2.76,2.76,0,0,0,163.25,488.83Z"/><path class="cls-2" d="M284.29,439.46a2.8,2.8,0,0,0,.93.53,2.74,2.74,0,1,0-1.21-4.4h0A2.75,2.75,0,0,0,284.29,439.46Z"/><path class="cls-2" d="M305.2,376.75a2.7,2.7,0,0,0,.93.53,2.92,2.92,0,0,0,1.06.13,2.77,2.77,0,0,0,2.23-1.44,2.75,2.75,0,0,0-4.5-3.09h0A2.74,2.74,0,0,0,305.2,376.75Z"/><path class="cls-2" d="M266.41,333.27h0a2.74,2.74,0,0,0,.28,3.87,2.72,2.72,0,0,0,2,.66,2.77,2.77,0,0,0,2.23-1.44,2.73,2.73,0,0,0-.22-2.93,2.76,2.76,0,0,0-2.41-1.11A2.73,2.73,0,0,0,266.41,333.27Z"/><path class="cls-2" d="M344,424.49a5.67,5.67,0,1,0,4.11,1.36A5.63,5.63,0,0,0,344,424.49Z"/><path class="cls-2" d="M388.39,372.11a4.61,4.61,0,1,0,3.16-1.59A4.59,4.59,0,0,0,388.39,372.11Z"/><path class="cls-2" d="M435.7,324.42a5.52,5.52,0,0,0,1.92,1.1,5.77,5.77,0,0,0,2.19.27,5.67,5.67,0,1,0-4.11-1.37Z"/><path class="cls-2" d="M412.51,664.84a3.81,3.81,0,0,0-1.67,7.39,4.55,4.55,0,0,0,.73.17,3.81,3.81,0,1,0,.94-7.56Z"/><path class="cls-2" d="M546.71,693.4a3.81,3.81,0,0,0-5.34-.67,3.81,3.81,0,0,0,1.14,6.62,3.51,3.51,0,0,0,.73.16,3.78,3.78,0,0,0,2.81-.77,3.83,3.83,0,0,0,1.44-2.54A3.77,3.77,0,0,0,546.71,693.4Z"/><path class="cls-2" d="M514,676.43a6.38,6.38,0,0,0-5.54-7.11h0a6.38,6.38,0,0,0-2.79,12.38,6.17,6.17,0,0,0,1.22.27A6.38,6.38,0,0,0,514,676.43Z"/><path class="cls-2" d="M543.67,637.43a3.81,3.81,0,0,0-3.31-4.24,3.8,3.8,0,0,0-4.24,3.31,3.81,3.81,0,0,0,2.58,4.08,4.1,4.1,0,0,0,.73.16A3.81,3.81,0,0,0,543.67,637.43Z"/><path class="cls-2" d="M526.48,645.51a3.81,3.81,0,0,0,1.14,6.61,4.12,4.12,0,0,0,1.27.2,3.8,3.8,0,0,0,.4-7.58A3.78,3.78,0,0,0,526.48,645.51Z"/><path class="cls-2" d="M433.77,547.8A3.76,3.76,0,0,0,435,548a3.81,3.81,0,0,0,.4-7.58,3.78,3.78,0,0,0-2.81.77,3.81,3.81,0,0,0,1.14,6.62Z"/><path class="cls-2" d="M470.49,637.57a4.12,4.12,0,0,0,1.27.2,3.81,3.81,0,0,0,.4-7.59,3.79,3.79,0,0,0-2.81.78,3.74,3.74,0,0,0-1.43,2.53A3.81,3.81,0,0,0,470.49,637.57Z"/><path class="cls-2" d="M437.36,612.87a3.8,3.8,0,1,0-2.58-4.08A3.79,3.79,0,0,0,437.36,612.87Z"/><path class="cls-2" d="M479.9,740.5a4.12,4.12,0,0,0,1.27.2,3.81,3.81,0,0,0,.4-7.59,3.79,3.79,0,0,0-2.81.78,3.74,3.74,0,0,0-1.43,2.53A3.81,3.81,0,0,0,479.9,740.5Z"/><path class="cls-2" d="M490.54,705.54a3.8,3.8,0,1,0,1.67-7.38,3.8,3.8,0,0,0-1.67,7.38Z"/><path class="cls-2" d="M521.45,596.12a3.8,3.8,0,0,0-6.12-3.47,3.74,3.74,0,0,0-1.43,2.53,3.81,3.81,0,0,0,2.57,4.08,3.66,3.66,0,0,0,.73.16,3.78,3.78,0,0,0,2.81-.77A3.83,3.83,0,0,0,521.45,596.12Z"/><path class="cls-2" d="M108,556.9a3.8,3.8,0,0,0,2.81-.78,3.74,3.74,0,0,0,1.43-2.53,3.8,3.8,0,1,0-6.77,1.87,3.73,3.73,0,0,0,1.79,1.27A3.78,3.78,0,0,0,108,556.9Z"/><path class="cls-2" d="M155.79,555.16a3.8,3.8,0,0,0-4.25,3.3,3.83,3.83,0,0,0,2.58,4.08,3.68,3.68,0,0,0,.73.17,3.8,3.8,0,0,0,3.47-6.12A3.74,3.74,0,0,0,155.79,555.16Z"/><path class="cls-2" d="M295.41,580.14a3.78,3.78,0,0,0,2.81-.77,3.81,3.81,0,0,0-1.87-6.78,3.78,3.78,0,0,0-2.81.77,3.81,3.81,0,0,0,1.14,6.62A4.52,4.52,0,0,0,295.41,580.14Z"/><path class="cls-2" d="M188.13,533.3a4.3,4.3,0,0,0,.73.16,3.79,3.79,0,0,0,2.81-.78,3.74,3.74,0,0,0,1.43-2.53,3.8,3.8,0,1,0-5,3.15Z"/><path class="cls-2" d="M339,581.71a3.81,3.81,0,0,0,2.58,4.08,4.1,4.1,0,0,0,.73.16,3.8,3.8,0,1,0-3.31-4.24Z"/><path class="cls-2" d="M573.65,659.8h0a6.92,6.92,0,0,0-3,13.44,7.44,7.44,0,0,0,1.34.3,6.92,6.92,0,0,0,1.7-13.74Z"/><path class="cls-2" d="M435.24,597.41a3.66,3.66,0,0,0,.73.16,3.78,3.78,0,0,0,2.81-.77,3.83,3.83,0,0,0,1.44-2.53,3.81,3.81,0,0,0-7.56-.94A3.83,3.83,0,0,0,435.24,597.41Z"/><path class="cls-2" d="M485.08,608.11a3.53,3.53,0,0,0,.73.17,3.79,3.79,0,0,0,2.81-.78,3.74,3.74,0,0,0,1.43-2.53,3.8,3.8,0,1,0-5,3.14Z"/><path class="cls-2" d="M528,612.88a4.31,4.31,0,0,0,.73.17,3.81,3.81,0,1,0-3.31-4.25,3.81,3.81,0,0,0,2.58,4.08Z"/><path class="cls-2" d="M577.47,607.45a3.81,3.81,0,0,0-1.67,7.39,4.31,4.31,0,0,0,.73.17,3.82,3.82,0,0,0,4.25-3.31A3.83,3.83,0,0,0,577.47,607.45Z"/><path class="cls-2" d="M307.47,538.73h0a3.81,3.81,0,1,0,4.64,2.73A3.81,3.81,0,0,0,307.47,538.73Z"/><path class="cls-2" d="M495.54,535.56a3.81,3.81,0,0,0-4.64-2.73h0a3.8,3.8,0,0,0-.24,7.29,3.7,3.7,0,0,0,2.14.07A3.8,3.8,0,0,0,495.54,535.56Z"/><path class="cls-2" d="M466.16,502.44a2.89,2.89,0,0,0-2-2.4l-.82-.27c-2.88-1-5.71,2-4.38,4.72a3.84,3.84,0,0,0,2.23,1.94,3.81,3.81,0,0,0,5-4Z"/><path class="cls-2" d="M473.41,463.4a3.8,3.8,0,0,0,5-4,2.9,2.9,0,0,0-2-2.41l-.82-.27c-2.88-1-5.71,2-4.38,4.72A3.8,3.8,0,0,0,473.41,463.4Z"/><path class="cls-2" d="M502.11,408.76c-2.88-.95-5.72,2-4.38,4.72a3.8,3.8,0,0,0,7.2-2,2.9,2.9,0,0,0-2-2.41Z"/><path class="cls-2" d="M470.18,781.08a3.81,3.81,0,1,0,1.75,2.33A3.8,3.8,0,0,0,470.18,781.08Z"/><path class="cls-2" d="M515.53,772.48a6.69,6.69,0,1,0,.42-12.83h0a6.69,6.69,0,0,0-1.72,12.24A7.22,7.22,0,0,0,515.53,772.48Z"/><path class="cls-2" d="M541.7,776.56a6.7,6.7,0,0,0-8.14-4.81h0a6.68,6.68,0,0,0-.42,12.83,6.59,6.59,0,0,0,3.76.12A6.68,6.68,0,0,0,541.7,776.56Z"/><path class="cls-2" d="M441.88,507.94a3.81,3.81,0,0,0,7.37-1.9,3.83,3.83,0,0,0-4.64-2.74h0A3.81,3.81,0,0,0,441.88,507.94Z"/><path class="cls-2" d="M220.2,802.58a3.78,3.78,0,0,0,2.14.07,3.81,3.81,0,1,0-2.14-.07Z"/><path class="cls-2" d="M293,553.55a3.8,3.8,0,0,0,4.87-4.57,3.73,3.73,0,0,0-1.75-2.32,3.78,3.78,0,0,0-2.88-.41,3.8,3.8,0,0,0-.24,7.3Z"/><path class="cls-2" d="M252.92,617.77a3.78,3.78,0,0,0-1.75-2.33,3.82,3.82,0,0,0-5.21,1.35,3.8,3.8,0,0,0,4.23,5.61,3.73,3.73,0,0,0,2.32-1.75A3.78,3.78,0,0,0,252.92,617.77Z"/><path class="cls-2" d="M257.58,664.88a3.82,3.82,0,0,0,4.88-4.57A3.83,3.83,0,0,0,260.7,658a3.8,3.8,0,0,0-5.61,4.23A3.81,3.81,0,0,0,257.58,664.88Z"/><path class="cls-2" d="M274.94,587a3.8,3.8,0,0,0,4.47-1.68,3.77,3.77,0,0,0,.41-2.88,3.85,3.85,0,0,0-1.75-2.33,3.79,3.79,0,0,0-2.89-.4,3.73,3.73,0,0,0-2.32,1.75,3.77,3.77,0,0,0-.41,2.88A3.81,3.81,0,0,0,274.94,587Z"/><path class="cls-2" d="M336.2,539.08a3.8,3.8,0,1,0,2.73-4.64h0A3.81,3.81,0,0,0,336.2,539.08Z"/><path class="cls-2" d="M474.49,507a4.68,4.68,0,0,0,1,.44,5,5,0,1,0-1-.44Z"/><path class="cls-2" d="M515.45,510.35a3.8,3.8,0,1,0-2.49-2.66A3.79,3.79,0,0,0,515.45,510.35Z"/><path class="cls-2" d="M570.37,475.81a3.81,3.81,0,0,0-3.86,6.56,3.49,3.49,0,0,0,.74.33,3.71,3.71,0,0,0,2.14.07,3.81,3.81,0,0,0,1-7Z"/><path class="cls-2" d="M260.37,265.44a3.75,3.75,0,0,0,1.8,1.27,3.53,3.53,0,0,0,.73.17,3.8,3.8,0,1,0-2.53-1.44Z"/><path class="cls-2" d="M486.23,494.26a7.58,7.58,0,0,0,1.41.32,7.31,7.31,0,1,0-1.41-.32Z"/><path class="cls-2" d="M252.22,353a3.81,3.81,0,0,0-1.67,7.39,3.51,3.51,0,0,0,.73.16,3.78,3.78,0,0,0,2.81-.77,3.8,3.8,0,0,0-1.87-6.78Z"/><path class="cls-2" d="M282.67,392.66a3.38,3.38,0,0,0,.73.16,3.78,3.78,0,1,0-.73-.16Z"/><path class="cls-2" d="M312.18,218.73a3.42,3.42,0,0,0,.72.16,3.79,3.79,0,1,0-.72-.16Z"/><path class="cls-2" d="M172.43,989.36a3.8,3.8,0,0,0-1.66,7.38,3.53,3.53,0,0,0,.73.17,3.76,3.76,0,0,0,2.8-.78,3.71,3.71,0,0,0,1.44-2.53A3.8,3.8,0,0,0,172.43,989.36Z"/><path class="cls-2" d="M216.42,641.7a3.77,3.77,0,0,0,2.8-.77,3.83,3.83,0,0,0,1.44-2.53,3.78,3.78,0,0,0-.77-2.81,3.81,3.81,0,1,0-4.2,5.95A3.38,3.38,0,0,0,216.42,641.7Z"/><path class="cls-2" d="M207.3,684.31a3.81,3.81,0,0,0,2.58,4.08,3.44,3.44,0,0,0,.72.17,3.8,3.8,0,0,0,3.47-6.12,3.74,3.74,0,0,0-2.53-1.43,3.79,3.79,0,0,0-4.24,3.3Z"/><path class="cls-2" d="M205.73,727.86a3.81,3.81,0,0,0-3.47,6.11,3.84,3.84,0,0,0,1.8,1.28,4.3,4.3,0,0,0,.73.16,3.78,3.78,0,0,0,2.81-.77,3.81,3.81,0,0,0-1.87-6.78Z"/><path class="cls-2" d="M199.92,774.71a3.79,3.79,0,0,0-2.81.78,3.74,3.74,0,0,0-1.43,2.53,3.81,3.81,0,0,0,2.57,4.08,3.66,3.66,0,0,0,.73.16,3.8,3.8,0,1,0,.94-7.55Z"/><path class="cls-2" d="M194.11,821.57a3.8,3.8,0,0,0-1.67,7.38,3.68,3.68,0,0,0,.73.17,3.8,3.8,0,0,0,3.47-6.12A3.74,3.74,0,0,0,194.11,821.57Z"/><path class="cls-2" d="M188.3,868.42a3.78,3.78,0,0,0-2.81.77,3.81,3.81,0,0,0,1.14,6.62,4.52,4.52,0,0,0,.73.16,3.78,3.78,0,0,0,2.81-.77,3.83,3.83,0,0,0,1.44-2.54,3.76,3.76,0,0,0-.78-2.8A3.71,3.71,0,0,0,188.3,868.42Z"/><path class="cls-2" d="M182.49,915.27a3.8,3.8,0,0,0-3.47,6.12,3.84,3.84,0,0,0,1.79,1.27,3.8,3.8,0,0,0,5-3.14A3.81,3.81,0,0,0,182.49,915.27Z"/><path class="cls-2" d="M463.28,561.4a3.8,3.8,0,0,0-5.34-.66,3.74,3.74,0,0,0-1.43,2.53,3.78,3.78,0,0,0,.77,2.81,3.8,3.8,0,0,0,6-4.68Z"/><path class="cls-2" d="M448.41,564.88a7.07,7.07,0,1,0-2.67,4.7A7,7,0,0,0,448.41,564.88Z"/><path class="cls-2" d="M519,413.51a3.75,3.75,0,0,0,1.8,1.27,4.31,4.31,0,0,0,.73.17,3.82,3.82,0,1,0-2.53-1.44Z"/><path class="cls-2" d="M561.28,437.75a3.81,3.81,0,0,0-1.67,7.39,4.31,4.31,0,0,0,.73.17,3.81,3.81,0,0,0,.94-7.56Z"/><path class="cls-2" d="M542,401a3.81,3.81,0,0,0-1.67,7.39,4.31,4.31,0,0,0,.73.17,3.83,3.83,0,0,0,2.81-.78A3.81,3.81,0,0,0,542,401Z"/><path class="cls-2" d="M592.41,539.43a3.8,3.8,0,0,0-3.47,6.12,3.84,3.84,0,0,0,1.79,1.27,3.81,3.81,0,0,0,4.21-6A3.81,3.81,0,0,0,592.41,539.43Z"/><path class="cls-2" d="M596.44,573a3.78,3.78,0,0,0-.77-2.81,3.83,3.83,0,0,0-2.54-1.44,3.81,3.81,0,0,0-1.67,7.39,3.61,3.61,0,0,0,.74.16,3.8,3.8,0,0,0,4.24-3.3Z"/><path class="cls-2" d="M402,571.8a3.71,3.71,0,0,0-2.53-1.44,3.81,3.81,0,0,0-3.47,6.11,3.84,3.84,0,0,0,1.8,1.28,4.52,4.52,0,0,0,.73.16,3.78,3.78,0,0,0,2.81-.77,3.83,3.83,0,0,0,1.44-2.54A3.76,3.76,0,0,0,402,571.8Z"/><path class="cls-2" d="M480.14,579.78A3.78,3.78,0,0,0,483,579a3.83,3.83,0,0,0,1.44-2.54,3.82,3.82,0,0,0-3.31-4.24,3.84,3.84,0,0,0-2.81.77,3.82,3.82,0,0,0,1.14,6.62A3.66,3.66,0,0,0,480.14,579.78Z"/><path class="cls-2" d="M566.63,603.75a3.83,3.83,0,0,0-2.54-1.44,3.76,3.76,0,0,0-2.8.78,3.71,3.71,0,0,0-1.44,2.53,3.79,3.79,0,0,0,2.57,4.08,3.61,3.61,0,0,0,.74.16,3.8,3.8,0,0,0,3.47-6.11Z"/><path class="cls-2" d="M550,450.79a3.79,3.79,0,0,0,2.57,4.08,3.51,3.51,0,0,0,.73.16,3.8,3.8,0,1,0-1.87-6.77A3.74,3.74,0,0,0,550,450.79Z"/><path class="cls-2" d="M574.55,434.26a3.77,3.77,0,0,0-2.8.77,3.83,3.83,0,0,0-1.44,2.53,3.79,3.79,0,0,0,.78,2.81,3.73,3.73,0,0,0,1.79,1.27,3.78,3.78,0,0,0,3.55-.61,3.74,3.74,0,0,0,1.43-2.53,3.78,3.78,0,0,0-3.31-4.24Z"/><path class="cls-2" d="M591.37,424.79a3.79,3.79,0,0,0-.66,5.34,3.84,3.84,0,0,0,1.79,1.27,3.81,3.81,0,0,0,4.21-5.95,3.79,3.79,0,0,0-5.34-.66Z"/><path class="cls-2" d="M566.3,449.32a3.8,3.8,0,0,0-1.67,7.38,3.62,3.62,0,0,0,.74.17,3.77,3.77,0,0,0,2.8-.78,3.71,3.71,0,0,0,1.44-2.53,3.78,3.78,0,0,0-3.31-4.24Z"/><path class="cls-2" d="M561.87,459.92a3.8,3.8,0,1,0-6,4.68,3.73,3.73,0,0,0,1.79,1.27,3.78,3.78,0,0,0,3.55-.61,3.74,3.74,0,0,0,1.43-2.53A3.78,3.78,0,0,0,561.87,459.92Z"/><path class="cls-2" d="M460.26,544.42a3.81,3.81,0,0,0-1.67,7.39,3.81,3.81,0,0,0,4.21-5.95A3.83,3.83,0,0,0,460.26,544.42Z"/><path class="cls-2" d="M333.18,494.83a3.8,3.8,0,1,0-1.87-6.78,3.83,3.83,0,0,0-1.44,2.54,3.77,3.77,0,0,0,.78,2.8,3.81,3.81,0,0,0,1.79,1.28A4.64,4.64,0,0,0,333.18,494.83Z"/><path class="cls-2" d="M352.33,653.66a3.66,3.66,0,0,0,.73.16,3.78,3.78,0,0,0,2.81-.77,3.83,3.83,0,0,0,1.44-2.54,3.8,3.8,0,1,0-5,3.15Z"/><path class="cls-2" d="M122.19,487.61a3.82,3.82,0,0,0-4.25,3.31,3.83,3.83,0,0,0,.78,2.81,3.75,3.75,0,0,0,1.8,1.27,4.31,4.31,0,0,0,.73.17,3.81,3.81,0,0,0,.94-7.56Z"/><path class="cls-2" d="M248.75,769.56a3.79,3.79,0,0,0,2.57,4.08,4.55,4.55,0,0,0,.73.17,3.81,3.81,0,1,0-1.87-6.78A3.74,3.74,0,0,0,248.75,769.56Z"/><path class="cls-2" d="M127,435a3.81,3.81,0,0,0-6,4.68,3.88,3.88,0,0,0,1.8,1.27A3.81,3.81,0,0,0,127,435Z"/><path class="cls-2" d="M244.68,164.65a3.8,3.8,0,0,0,3.54-.61,3.81,3.81,0,0,0,.67-5.34,3.81,3.81,0,1,0-4.21,6Z"/><path class="cls-2" d="M272.13,621.17a3.8,3.8,0,1,0-.66,5.34,3.8,3.8,0,0,0,.66-5.34Z"/><path class="cls-2" d="M290,689.61a3.81,3.81,0,0,0,.67-5.34,3.83,3.83,0,0,0-2.54-1.44,3.81,3.81,0,0,0-3.47,6.12,3.81,3.81,0,0,0,5.34.66Z"/><path class="cls-2" d="M326,701.6a4.42,4.42,0,0,0,.74.16,3.81,3.81,0,0,0,3.47-6.11,3.83,3.83,0,0,0-2.54-1.44,3.81,3.81,0,0,0-3.47,6.11A3.84,3.84,0,0,0,326,701.6Z"/><path class="cls-2" d="M353.86,732.22a3.83,3.83,0,0,0-1.44,2.54,3.77,3.77,0,0,0,.78,2.8,3.65,3.65,0,0,0,1.8,1.27,3.8,3.8,0,0,0,4.2-5.94h0A3.81,3.81,0,0,0,353.86,732.22Z"/><path class="cls-2" d="M384,776.07a3.78,3.78,0,0,0,3.55-.61,3.81,3.81,0,0,0,.66-5.33h0a3.81,3.81,0,0,0-5.34-.67,3.83,3.83,0,0,0-1.44,2.54,3.77,3.77,0,0,0,.78,2.8A3.73,3.73,0,0,0,384,776.07Z"/><path class="cls-2" d="M413,813.31a3.53,3.53,0,0,0,.73.17,3.87,3.87,0,1,0-.73-.17Z"/><path class="cls-2" d="M442.06,850.55a3.8,3.8,0,0,0,4.2-5.95,3.74,3.74,0,0,0-2.53-1.43,3.8,3.8,0,0,0-1.67,7.38Z"/><path class="cls-2" d="M374.31,674.51a3.79,3.79,0,0,0,.66-5.34,3.74,3.74,0,0,0-2.53-1.43,3.8,3.8,0,1,0,1.87,6.77Z"/><path class="cls-2" d="M109.42,245.49a3.81,3.81,0,1,0-5.34-.66,3.81,3.81,0,0,0,5.34.66Z"/><path class="cls-2" d="M132.26,194.65a3.8,3.8,0,0,0,3.54-.61,3.74,3.74,0,0,0,1.43-2.53,3.8,3.8,0,0,0-6.11-3.47h0a3.8,3.8,0,0,0,1.14,6.61Z"/><path class="cls-2" d="M170,150.28a4.64,4.64,0,0,0,.74.16,3.8,3.8,0,1,0-1.87-6.78,3.83,3.83,0,0,0-1.44,2.54,3.76,3.76,0,0,0,.78,2.8A3.81,3.81,0,0,0,170,150.28Z"/><path class="cls-2" d="M349.7,173a4.64,4.64,0,0,0,.74.16,3.8,3.8,0,1,0-1.87-6.78,3.83,3.83,0,0,0-1.44,2.54,3.77,3.77,0,0,0,.78,2.8A3.81,3.81,0,0,0,349.7,173Z"/><path class="cls-2" d="M75.94,170a3.7,3.7,0,1,0-.74-.16A3.79,3.79,0,0,0,75.94,170Z"/><path class="cls-2" d="M541.35,625.42a3.8,3.8,0,1,0-1.8-1.27A3.8,3.8,0,0,0,541.35,625.42Z"/><path class="cls-2" d="M538.79,572.57a3.81,3.81,0,1,0-6.78,1.87,3.81,3.81,0,0,0,5.34.66A3.79,3.79,0,0,0,538.79,572.57Z"/><path class="cls-2" d="M588.67,626.85a3.81,3.81,0,1,0-6.78,1.87,3.81,3.81,0,0,0,5.34.66A3.79,3.79,0,0,0,588.67,626.85Z"/><path class="cls-2" d="M542.94,514.58a3.81,3.81,0,1,0,5.34.66A3.81,3.81,0,0,0,542.94,514.58Z"/><path class="cls-2" d="M562.26,499.46a3.76,3.76,0,0,0-.77-2.8,3.81,3.81,0,1,0-6,4.67,3.69,3.69,0,0,0,1.8,1.27,3.79,3.79,0,0,0,3.54-.6A3.83,3.83,0,0,0,562.26,499.46Z"/><path class="cls-2" d="M387.31,443.36a5.26,5.26,0,0,0,7.06,2.34,5.26,5.26,0,1,0-7.06-2.34Z"/><path class="cls-2" d="M455.58,409.05a4.06,4.06,0,1,0-7.25,3.65,4.05,4.05,0,0,0,5.45,1.8A4.06,4.06,0,0,0,455.58,409.05Z"/><path class="cls-2" d="M274.53,362.73a3.37,3.37,0,0,0,1.35.17,3.5,3.5,0,1,0-.51-7h0a3.5,3.5,0,0,0-.84,6.82Z"/><path class="cls-2" d="M351.69,357.2a4.72,4.72,0,0,0-.49-6.67,4.66,4.66,0,0,0-3.43-1.13,4.72,4.72,0,1,0,3.92,7.8Z"/><path class="cls-2" d="M415,349.22a5.62,5.62,0,0,0,1.95,3.88,5.49,5.49,0,0,0,1.92,1.09,5.4,5.4,0,0,0,2.19.27,5.66,5.66,0,1,0-6.06-5.24Z"/><path class="cls-2" d="M290.36,281.53a3.62,3.62,0,0,0,.74.17,3.76,3.76,0,0,0,2.8-.78,3.71,3.71,0,0,0,1.44-2.53,3.81,3.81,0,0,0-6.11-3.47,3.8,3.8,0,0,0,1.13,6.61Z"/><path class="cls-2" d="M255.3,425.08a3.81,3.81,0,1,0,2.73-4.64h0A3.82,3.82,0,0,0,255.3,425.08Z"/><path class="cls-2" d="M301,413.27a3.81,3.81,0,0,0,7.37-1.9,3.76,3.76,0,0,0-1.75-2.33,3.8,3.8,0,0,0-5.62,4.23Z"/><path class="cls-2" d="M466.87,337.38a6.62,6.62,0,0,0-5.07-.71h0a6.7,6.7,0,0,0-4.8,8.15,6.62,6.62,0,0,0,3.08,4.08,6.69,6.69,0,1,0,6.79-11.52Z"/><path class="cls-2" d="M399.8,387.75a3.8,3.8,0,0,0-4.63-2.73h0a3.8,3.8,0,0,0-.24,7.29,3.7,3.7,0,0,0,2.14.07A3.8,3.8,0,0,0,399.8,387.75Z"/><path class="cls-2" d="M443.76,373.62a3.77,3.77,0,0,0-2.88-.41,3.83,3.83,0,1,0,2.88.41Z"/><path class="cls-2" d="M483.86,366a3.81,3.81,0,0,0,7.37-1.91,3.81,3.81,0,1,0-7.37,1.91Z"/><path class="cls-2" d="M478.55,413.84a3.8,3.8,0,1,0,.66-5.34,3.83,3.83,0,0,0-1.44,2.54A3.77,3.77,0,0,0,478.55,413.84Z"/><path class="cls-2" d="M489.45,422.23a3.51,3.51,0,0,0,.73.16,3.78,3.78,0,0,0,2.81-.77,3.83,3.83,0,0,0,1.44-2.53,3.81,3.81,0,1,0-5,3.14Z"/><path class="cls-2" d="M474.51,423.71a3.82,3.82,0,0,0,2.57,4.08,3.81,3.81,0,0,0,4.21-6,3.83,3.83,0,0,0-2.53-1.44,3.82,3.82,0,0,0-4.25,3.31Z"/><path class="cls-2" d="M496.87,367.57a3.83,3.83,0,0,0-1.44,2.53,3.79,3.79,0,0,0,.78,2.81,3.73,3.73,0,0,0,1.79,1.27,3.78,3.78,0,0,0,3.55-.61A3.74,3.74,0,0,0,503,371a3.8,3.8,0,0,0-6.11-3.47Z"/><path class="cls-2" d="M555.16,428.46a3.81,3.81,0,0,0-1.67,7.39,3.51,3.51,0,0,0,.73.16,3.8,3.8,0,0,0,.94-7.55Z"/><path class="cls-2" d="M568,487.43a3.81,3.81,0,0,0,1.13,6.61,4.67,4.67,0,0,0,.74.17,3.79,3.79,0,0,0,2.81-.78,3.74,3.74,0,0,0,1.43-2.53,3.8,3.8,0,0,0-6.11-3.47Z"/><path class="cls-2" d="M596.78,488.61a4.67,4.67,0,0,0,.74.17,3.8,3.8,0,0,0,2.81-.78,3.74,3.74,0,0,0,1.43-2.53,3.78,3.78,0,0,0-.77-2.81,3.83,3.83,0,0,0-2.53-1.44,3.8,3.8,0,0,0-3.47,6.12A3.73,3.73,0,0,0,596.78,488.61Z"/><path class="cls-2" d="M592.68,509.57a3.81,3.81,0,0,0,2.58,4.08,4.31,4.31,0,0,0,.73.17,3.79,3.79,0,0,0,2.81-.78,3.74,3.74,0,0,0,1.43-2.53,3.8,3.8,0,0,0-7.55-.94Z"/><path class="cls-2" d="M426.53,478.92a3.8,3.8,0,0,0,1.14,6.61,3.51,3.51,0,0,0,.73.16,3.8,3.8,0,1,0-1.87-6.77Z"/><path class="cls-2" d="M470.28,440.75a3.8,3.8,0,0,0,3.54-.61,3.71,3.71,0,0,0,1.44-2.53,3.8,3.8,0,1,0-6.78,1.87A3.88,3.88,0,0,0,470.28,440.75Z"/><path class="cls-2" d="M135.5,637.86a3.74,3.74,0,0,0-2.53-1.43,3.79,3.79,0,0,0-2.81.77,3.74,3.74,0,0,0-1.43,2.53,3.79,3.79,0,0,0,2.57,4.08,3.68,3.68,0,0,0,.73.17,3.8,3.8,0,0,0,3.47-6.12Z"/><path class="cls-2" d="M316.36,492.09a3.83,3.83,0,0,0-1.44,2.54,3.77,3.77,0,0,0,.78,2.8,3.69,3.69,0,0,0,1.8,1.27,3.8,3.8,0,1,0-1.14-6.61Z"/><path class="cls-2" d="M358.94,463.73a3.82,3.82,0,0,0-5.34-.66h0a3.8,3.8,0,0,0-.66,5.34,3.8,3.8,0,0,0,6-4.68Z"/><path class="cls-2" d="M586.91,590.54a7.55,7.55,0,1,0-9.28-11.91h0a7.55,7.55,0,0,0-1.31,10.6,7.43,7.43,0,0,0,3.56,2.52,7.19,7.19,0,0,0,1.46.33A7.49,7.49,0,0,0,586.91,590.54Z"/><path class="cls-2" d="M428.08,405h0a3.8,3.8,0,0,0,4.68,6,3.74,3.74,0,0,0,1.43-2.53,3.8,3.8,0,0,0-6.11-3.47Z"/><path class="cls-2" d="M464,374.32a5.92,5.92,0,0,0-2.25,4,5.92,5.92,0,0,0,4,6.37A5.95,5.95,0,1,0,464,374.32Z"/><path class="cls-2" d="M505.36,346.21a3.76,3.76,0,0,0-2.8.78,3.71,3.71,0,0,0-1.44,2.53,3.78,3.78,0,0,0,.77,2.81,3.82,3.82,0,0,0,1.8,1.27,3.61,3.61,0,0,0,.74.16,3.76,3.76,0,0,0,2.8-.77,3.81,3.81,0,0,0,.67-5.34A3.83,3.83,0,0,0,505.36,346.21Z"/><path class="cls-2" d="M495,348.94a3.8,3.8,0,1,0-3.55.61,4.67,4.67,0,0,0,.74.17A3.79,3.79,0,0,0,495,348.94Z"/><path class="cls-2" d="M496.44,354.3a3.81,3.81,0,0,0-1.68,7.39,4.67,4.67,0,0,0,.74.17,3.79,3.79,0,0,0,2.81-.78,3.74,3.74,0,0,0,1.43-2.53,3.78,3.78,0,0,0-.77-2.81A3.83,3.83,0,0,0,496.44,354.3Z"/><path class="cls-2" d="M482.5,372.64a3.79,3.79,0,0,0-2.81.78,3.74,3.74,0,0,0-1.43,2.53,3.78,3.78,0,0,0,.77,2.81,3.82,3.82,0,0,0,1.8,1.27,3.51,3.51,0,0,0,.73.16,3.78,3.78,0,0,0,2.81-.77,3.83,3.83,0,0,0,1.44-2.53,3.82,3.82,0,0,0-3.31-4.25Z"/><path class="cls-2" d="M583.6,495.33a6.19,6.19,0,1,0,7.59,4.35A6.19,6.19,0,0,0,583.6,495.33Z"/><path class="cls-2" d="M576.07,502.15a6.18,6.18,0,1,0-7.9,7.49,6.18,6.18,0,0,0,7.9-7.49Z"/><path class="cls-2" d="M505.57,447.59A6.2,6.2,0,0,0,509.8,453a6.18,6.18,0,0,0,7.9-7.49,6.18,6.18,0,0,0-12.13,2.11Z"/><path class="cls-2" d="M615.58,662.57a7.06,7.06,0,1,0-5.72,12.84,7.06,7.06,0,0,0,5.72-12.84Z"/><path class="cls-2" d="M168.78,366.22a3.8,3.8,0,0,0,4.86-4.61h0a3.8,3.8,0,0,0-7-.9,3.82,3.82,0,0,0,1.41,5.2A3.64,3.64,0,0,0,168.78,366.22Z"/><path class="cls-2" d="M170.45,413.14a3.68,3.68,0,0,0,.7.32,3.8,3.8,0,0,0,2.19.05,3.81,3.81,0,0,0,2.67-4.67h0a3.81,3.81,0,0,0-4.67-2.67,3.81,3.81,0,0,0-2.67,4.67A3.74,3.74,0,0,0,170.45,413.14Z"/><path class="cls-2" d="M195.69,457.41a3.8,3.8,0,1,0-2.89-.37,3.93,3.93,0,0,0,.7.31A3.8,3.8,0,0,0,195.69,457.41Z"/><path class="cls-2" d="M203.76,497.41a3.79,3.79,0,0,0,1.4,5.19,4.08,4.08,0,0,0,.71.32,3.76,3.76,0,0,0,2.18.05,3.8,3.8,0,0,0,.9-7,3.8,3.8,0,0,0-5.19,1.41Z"/><path class="cls-2" d="M255.51,677.89a3.82,3.82,0,0,0-2.68,4.67,3.76,3.76,0,0,0,1.79,2.3,3.68,3.68,0,0,0,.7.32,3.76,3.76,0,0,0,2.18.05,3.8,3.8,0,1,0-2-7.34Z"/><path class="cls-2" d="M265.2,728.12a3.79,3.79,0,0,0,1.78,2.31,3.64,3.64,0,0,0,.7.31,3.8,3.8,0,0,0,4.49-1.72,3.75,3.75,0,0,0,.37-2.89,3.79,3.79,0,0,0-1.78-2.31,3.8,3.8,0,0,0-5.56,4.3Z"/><path class="cls-2" d="M94.28,863.91a3.81,3.81,0,0,0-3.79,6.61,4,4,0,0,0,.71.31,3.76,3.76,0,0,0,2.18.06,3.81,3.81,0,0,0,.9-7Z"/><path class="cls-2" d="M279.34,776a4,4,0,0,0,.7.32,3.81,3.81,0,0,0,4.86-4.62,3.8,3.8,0,0,0-4.66-2.67,3.8,3.8,0,0,0-.9,7Z"/><path class="cls-2" d="M289.92,819.25a3.83,3.83,0,0,0,1.78,2.31,3.89,3.89,0,0,0,2.89.37,3.81,3.81,0,1,0-4.67-2.68Z"/><path class="cls-2" d="M307.85,860.52a3.8,3.8,0,0,0-5.56,4.3,3.8,3.8,0,0,0,2.48,2.61,3.75,3.75,0,0,0,2.18.06,3.8,3.8,0,0,0,.9-7Z"/><path class="cls-2" d="M320.21,906.08a3.83,3.83,0,0,0-2.89-.37,3.81,3.81,0,0,0-2.67,4.67,3.82,3.82,0,0,0,2.48,2.62,3.87,3.87,0,0,0,2.19.06,3.81,3.81,0,0,0,2.67-4.67h0A3.79,3.79,0,0,0,320.21,906.08Z"/><path class="cls-2" d="M465.92,580.57a7.5,7.5,0,1,0-3.34,10.06A7.52,7.52,0,0,0,465.92,580.57Z"/><path class="cls-2" d="M609.35,477.67a7.5,7.5,0,1,0,5.73-.42A7.51,7.51,0,0,0,609.35,477.67Z"/><path class="cls-2" d="M469.06,716.8a5.49,5.49,0,0,0,1.92,1.09,5.42,5.42,0,0,0,2.2.27,5.67,5.67,0,1,0-4.12-1.36Z"/><path class="cls-2" d="M271.92,600.71a3.83,3.83,0,0,0-2.53-1.44,3.8,3.8,0,1,0,2.53,1.44Z"/><path class="cls-2" d="M301.71,640.76a3.74,3.74,0,0,0-.77-2.81,3.8,3.8,0,1,0-4.2,5.95,3.51,3.51,0,0,0,.73.16,3.79,3.79,0,0,0,4.24-3.3Z"/><path class="cls-2" d="M325.76,681.14a3.81,3.81,0,0,0,5-3.15,3.8,3.8,0,0,0-6.12-3.46,3.8,3.8,0,0,0,1.14,6.61Z"/><path class="cls-2" d="M165.93,607a3.81,3.81,0,0,0,2.67-4.67,3.75,3.75,0,0,0-1.78-2.31,3.81,3.81,0,0,0-3.78,6.61,3.93,3.93,0,0,0,.7.31A3.88,3.88,0,0,0,165.93,607Z"/><path class="cls-2" d="M191.55,691.1a3.84,3.84,0,0,0-2.89-.37,3.81,3.81,0,0,0-.19,7.29,3.81,3.81,0,0,0,3.08-6.92Z"/><path class="cls-2" d="M179.27,753.61h0a3.81,3.81,0,0,0-1.78-2.3,3.75,3.75,0,0,0-2.89-.37,3.8,3.8,0,0,0-2.68,4.67,3.78,3.78,0,0,0,2.48,2.61,3.71,3.71,0,0,0,2.19.06A3.8,3.8,0,0,0,179.27,753.61Z"/><path class="cls-2" d="M112.38,964.25a3.84,3.84,0,0,0-2.89-.37,3.81,3.81,0,0,0-.89,7,3.55,3.55,0,0,0,.69.31,3.81,3.81,0,0,0,3.09-6.92Z"/><path class="cls-2" d="M293.86,980.27a3.8,3.8,0,0,0-5.19,1.41,3.79,3.79,0,0,0,1.41,5.19,3.55,3.55,0,0,0,.69.31,3.8,3.8,0,0,0,3.09-6.91Z"/><path class="cls-2" d="M79.67,603.24a3.81,3.81,0,0,0-3.78,6.61,3.93,3.93,0,0,0,.7.31,3.81,3.81,0,0,0,3.08-6.92Z"/><path class="cls-2" d="M210.84,565.78a4,4,0,0,0,.71.31,3.76,3.76,0,0,0,2.18.06,3.81,3.81,0,1,0-2-7.35,3.82,3.82,0,0,0-2.68,4.67A3.83,3.83,0,0,0,210.84,565.78Z"/><path class="cls-2" d="M454.48,490.16a4,4,0,0,0,.7.32,3.8,3.8,0,0,0,2.19,0,3.74,3.74,0,0,0,2.3-1.78,3.8,3.8,0,0,0-1.41-5.19h0a3.8,3.8,0,1,0-3.78,6.6Z"/><path class="cls-2" d="M496.34,506.67a3.75,3.75,0,0,0-2.31,1.78,3.81,3.81,0,0,0,1.41,5.19,3.93,3.93,0,0,0,.7.31,3.72,3.72,0,0,0,2.19.06,3.81,3.81,0,0,0,.9-7h0A3.75,3.75,0,0,0,496.34,506.67Z"/><path class="cls-2" d="M536.4,537.12a3.93,3.93,0,0,0,.7.31,3.8,3.8,0,1,0-.7-.31Z"/><path class="cls-2" d="M393,204a3.89,3.89,0,0,0,2.89.37A3.8,3.8,0,1,0,393,204Z"/><path class="cls-2" d="M303.16,251.31a4.08,4.08,0,0,0,.71.32,3.83,3.83,0,0,0,4.49-1.73,3.84,3.84,0,0,0,.37-2.89,3.81,3.81,0,1,0-5.57,4.3Z"/><path class="cls-2" d="M286.62,228.29a3.82,3.82,0,0,0,5.2-1.41,3.84,3.84,0,0,0,.37-2.89,3.81,3.81,0,0,0-7-.89,3.84,3.84,0,0,0-.37,2.89A3.78,3.78,0,0,0,286.62,228.29Z"/><path class="cls-2" d="M263.52,196.38a3.68,3.68,0,0,0,.7.32,3.8,3.8,0,0,0,2.19.05,3.8,3.8,0,0,0,.89-7,3.8,3.8,0,0,0-5.19,1.41,3.8,3.8,0,0,0,1.41,5.19Z"/><path class="cls-2" d="M363.64,192a4,4,0,0,0,.7.32,3.8,3.8,0,0,0,2.19,0,3.74,3.74,0,0,0,2.3-1.78,3.8,3.8,0,0,0-4.29-5.56,3.8,3.8,0,0,0-2.68,4.67A3.78,3.78,0,0,0,363.64,192Z"/><path class="cls-2" d="M392.25,228.29a3.68,3.68,0,0,0,.7.32,3.8,3.8,0,0,0,2.19,0,3.81,3.81,0,1,0-2.89-.37Z"/><path class="cls-2" d="M390.26,320.6a3.73,3.73,0,0,0,.71.31,3.68,3.68,0,0,0,2.18.06,3.8,3.8,0,0,0,2.68-4.67,3.81,3.81,0,1,0-5.57,4.3Z"/><path class="cls-2" d="M385.11,352.53a3.8,3.8,0,0,0-.89,7,3.68,3.68,0,0,0,.7.32,3.8,3.8,0,0,0,2.19.05,3.8,3.8,0,0,0,2.67-4.66,3.8,3.8,0,0,0-4.67-2.68Z"/><path class="cls-2" d="M374.11,457.06a3.71,3.71,0,0,0-2.3,1.78,3.79,3.79,0,0,0,1.4,5.19,4,4,0,0,0,.71.31,3.68,3.68,0,0,0,2.18.06,3.8,3.8,0,0,0,2.68-4.67,3.81,3.81,0,0,0-4.67-2.67Z"/><path class="cls-2" d="M371.92,515.16a3.75,3.75,0,0,0-.37,2.89,3.79,3.79,0,0,0,1.78,2.31,3.64,3.64,0,0,0,.7.31,3.8,3.8,0,0,0,4.49-1.72,3.81,3.81,0,0,0-6.6-3.79Z"/><path class="cls-2" d="M388,511.32a3.8,3.8,0,0,0,1.41,5.19,3.68,3.68,0,0,0,.7.32,3.8,3.8,0,0,0,2.19,0,3.8,3.8,0,0,0,.89-7,3.8,3.8,0,0,0-5.19,1.41Z"/><path class="cls-2" d="M232,201.71a3.64,3.64,0,0,0,.7.31,3.8,3.8,0,0,0,4.49-1.72,3.75,3.75,0,0,0,.37-2.89,3.79,3.79,0,0,0-1.78-2.31,3.84,3.84,0,0,0-2.89-.37,3.81,3.81,0,0,0-.89,7Z"/><path class="cls-2" d="M221.68,256a3.64,3.64,0,0,0,.7.31,3.88,3.88,0,0,0,2.19.06,3.81,3.81,0,0,0,.89-7,3.8,3.8,0,0,0-5.19,1.41,3.75,3.75,0,0,0-.37,2.89A3.83,3.83,0,0,0,221.68,256Z"/><path class="cls-2" d="M120.45,280.93a4.93,4.93,0,0,0,.71.31,3.81,3.81,0,1,0,.19-7.29,3.82,3.82,0,0,0-2.68,4.67A3.83,3.83,0,0,0,120.45,280.93Z"/><path class="cls-2" d="M192.34,324.33a3.83,3.83,0,0,0,4.49-1.73,3.81,3.81,0,1,0-5.2,1.41A3.77,3.77,0,0,0,192.34,324.33Z"/><path class="cls-2" d="M215.81,380.68a4,4,0,0,0,.7.32,3.8,3.8,0,0,0,2.19.05,3.71,3.71,0,0,0,2.3-1.78,3.8,3.8,0,0,0-4.29-5.56,3.8,3.8,0,0,0-2.68,4.67A3.78,3.78,0,0,0,215.81,380.68Z"/><path class="cls-2" d="M241.21,445.88a3.82,3.82,0,0,0-4.67-2.68,3.81,3.81,0,0,0-.9,7,4,4,0,0,0,.71.31,3.76,3.76,0,0,0,2.18.06,3.8,3.8,0,0,0,2.68-4.67Z"/><path class="cls-2" d="M225.41,719.29a3.73,3.73,0,0,0,.71.31,3.68,3.68,0,0,0,2.18.06,3.79,3.79,0,0,0,2.31-1.78A3.84,3.84,0,0,0,231,715a3.81,3.81,0,0,0-7-.89,3.8,3.8,0,0,0,1.41,5.19Z"/><path class="cls-2" d="M147,838.39a3.81,3.81,0,0,0-5.57,4.3,3.85,3.85,0,0,0,2.49,2.62,3.81,3.81,0,0,0,3.08-6.92Z"/><path class="cls-2" d="M291,729.15a3.73,3.73,0,0,0,1.78,2.31,3.64,3.64,0,0,0,.7.31,3.68,3.68,0,0,0,2.18.06,3.8,3.8,0,0,0,2.68-4.67,3.81,3.81,0,0,0-4.67-2.67,3.8,3.8,0,0,0-2.67,4.66Z"/><path class="cls-2" d="M273.21,794.84a3.82,3.82,0,0,0-5.2,1.41,3.84,3.84,0,0,0-.37,2.89,3.81,3.81,0,1,0,5.57-4.3Z"/><path class="cls-2" d="M216.31,841.16a3.81,3.81,0,1,0-7.35,2,3.81,3.81,0,0,0,7.35-2Z"/><path class="cls-2" d="M224.79,879.93a3.72,3.72,0,0,0-2.88-.37,3.8,3.8,0,0,0-.9,7,4.88,4.88,0,0,0,.7.32,3.8,3.8,0,0,0,2.19,0,3.74,3.74,0,0,0,2.3-1.78,3.78,3.78,0,0,0-1.41-5.19Z"/><path class="cls-2" d="M323,849.91a3.8,3.8,0,0,0-1.41-5.19,3.8,3.8,0,0,0-5.19,1.41,3.79,3.79,0,0,0,1.4,5.19,4.08,4.08,0,0,0,.71.32,3.83,3.83,0,0,0,4.49-1.73Z"/><path class="cls-2" d="M328.15,757a3.8,3.8,0,1,0-3.78,6.6,4,4,0,0,0,.7.32,3.88,3.88,0,0,0,2.19.06,3.81,3.81,0,0,0,.89-7Z"/><path class="cls-2" d="M281.15,649.21a3.75,3.75,0,0,0,.37-2.89,3.79,3.79,0,0,0-1.78-2.31,3.8,3.8,0,0,0-5.19,1.41,3.8,3.8,0,0,0,1.41,5.19,3.68,3.68,0,0,0,.7.32,3.88,3.88,0,0,0,2.19.06A3.78,3.78,0,0,0,281.15,649.21Z"/><path class="cls-2" d="M320.82,563.33a3.75,3.75,0,0,0-2.89-.37,3.8,3.8,0,0,0-2.67,4.66,3.75,3.75,0,0,0,1.78,2.31,3.64,3.64,0,0,0,.7.31,3.68,3.68,0,0,0,2.18.06,3.8,3.8,0,0,0,2.68-4.67A3.78,3.78,0,0,0,320.82,563.33Z"/><path class="cls-2" d="M284.09,523a3.84,3.84,0,0,0,.37-2.89,3.81,3.81,0,0,0-7-.89,3.84,3.84,0,0,0-.37,2.89,3.81,3.81,0,0,0,7,.89Z"/><path class="cls-2" d="M328.15,349.14a3.77,3.77,0,0,0-2.88-.37,3.8,3.8,0,0,0-2.68,4.67,3.78,3.78,0,0,0,1.78,2.3,4,4,0,0,0,.7.32,3.8,3.8,0,0,0,2.19.05,3.8,3.8,0,0,0,.89-7Z"/><path class="cls-2" d="M408,324.94a3.93,3.93,0,0,0,.7.31,3.88,3.88,0,0,0,2.19.06,3.81,3.81,0,0,0-2-7.35,3.81,3.81,0,0,0-.9,7Z"/><path class="cls-2" d="M422.66,264.79a3.93,3.93,0,0,0,.7.31,3.8,3.8,0,0,0,4.49-1.72,3.75,3.75,0,0,0,.37-2.89,3.8,3.8,0,0,0-4.66-2.67,3.8,3.8,0,0,0-2.68,4.66A3.83,3.83,0,0,0,422.66,264.79Z"/><path class="cls-2" d="M352.3,284.53a3.82,3.82,0,0,0,1.41,5.2,3.93,3.93,0,0,0,.7.31,3.81,3.81,0,0,0,4.87-4.61,3.83,3.83,0,0,0-4.67-2.68A3.83,3.83,0,0,0,352.3,284.53Z"/><path class="cls-2" d="M309.39,278.62a3.79,3.79,0,0,0,1.78,2.31,4.38,4.38,0,0,0,.7.31,3.88,3.88,0,0,0,2.19.06,3.81,3.81,0,0,0,2.3-1.78,3.75,3.75,0,0,0,.37-2.89,3.79,3.79,0,0,0-1.78-2.31,3.84,3.84,0,0,0-2.89-.37,3.81,3.81,0,0,0-2.67,4.67Z"/><path class="cls-2" d="M349.31,389.48a4,4,0,0,0,.7.32,3.88,3.88,0,0,0,2.19.06,3.82,3.82,0,1,0-2.89-.38Z"/><path class="cls-2" d="M406.62,636.47a3.68,3.68,0,0,0,.7.32,3.81,3.81,0,0,0,4.86-4.62,3.81,3.81,0,0,0-1.78-2.3,3.8,3.8,0,0,0-5.56,4.3A3.71,3.71,0,0,0,406.62,636.47Z"/><path class="cls-2" d="M405.27,787.49a3.79,3.79,0,0,0,1.4,5.19,4,4,0,0,0,.71.31,3.68,3.68,0,0,0,2.18.06,3.8,3.8,0,0,0,2.68-4.67,3.81,3.81,0,0,0-4.67-2.67A3.71,3.71,0,0,0,405.27,787.49Z"/><path class="cls-2" d="M423,862.91a3.82,3.82,0,0,0-5.2,1.41,3.81,3.81,0,0,0,1.41,5.19,3.73,3.73,0,0,0,.71.31,3.68,3.68,0,0,0,2.18.06,3.8,3.8,0,0,0,2.68-4.67A3.78,3.78,0,0,0,423,862.91Z"/><path class="cls-2" d="M298.2,765.41a3.8,3.8,0,0,0-1.41-5.19,3.8,3.8,0,0,0-3.78,6.6,3.64,3.64,0,0,0,.7.31,3.8,3.8,0,0,0,4.49-1.72Z"/><path class="cls-2" d="M162.27,535.73a3.68,3.68,0,0,0,.7.32,3.8,3.8,0,0,0,2.19.05,3.73,3.73,0,0,0,2.3-1.78,3.81,3.81,0,0,0-1.41-5.19h0a3.8,3.8,0,1,0-3.78,6.6Z"/><path class="cls-2" d="M517.06,498.4a3.85,3.85,0,0,0,2.88.4,3.8,3.8,0,0,0,1-7,3.77,3.77,0,0,0-2.88-.41,3.83,3.83,0,0,0-2.33,1.76,3.82,3.82,0,0,0,1.35,5.21Z"/><path class="cls-2" d="M532.42,497.22a3.8,3.8,0,1,0-3.87,6.55,3.6,3.6,0,0,0,.75.34,3.8,3.8,0,0,0,3.12-6.89Z"/><path class="cls-2" d="M545.74,482a3.8,3.8,0,1,0-3.13,6.89,3.74,3.74,0,0,0,2.15.07,3.81,3.81,0,0,0,1-7Z"/><path class="cls-2" d="M556.47,477.86a4.21,4.21,0,0,0,.75.34,3.81,3.81,0,1,0-.75-.34Z"/><path class="cls-2" d="M526.77,486.56a3.8,3.8,0,0,0,1.34,5.21,4.21,4.21,0,0,0,.75.34,3.81,3.81,0,1,0-2.09-5.55Z"/><path class="cls-2" d="M511.19,552.5a3.31,3.31,0,0,0,.74.34,3.8,3.8,0,0,0,4.87-4.57,3.73,3.73,0,0,0-1.75-2.32,3.8,3.8,0,1,0-3.86,6.55Z"/><path class="cls-2" d="M449.31,537.1a2.75,2.75,0,0,0-3.88.29h0a2.74,2.74,0,0,0,.29,3.87,2.62,2.62,0,0,0,.93.53,2.92,2.92,0,0,0,1.06.13,2.75,2.75,0,0,0,1.6-4.82Z"/><path class="cls-2" d="M324.7,624.45a3.81,3.81,0,0,0,1.41,5.19,4,4,0,0,0,.7.32,3.8,3.8,0,0,0,2.19,0,3.71,3.71,0,0,0,2.3-1.78,3.8,3.8,0,0,0-1.4-5.19h0A3.81,3.81,0,0,0,324.7,624.45Z"/><path class="cls-2" d="M416.33,646.55a3.8,3.8,0,0,0-4.67-2.68,3.8,3.8,0,0,0-.9,7,4.08,4.08,0,0,0,.71.32,3.8,3.8,0,0,0,4.86-4.61Z"/><path class="cls-2" d="M454,768.31a4,4,0,0,0,.7.32,3.8,3.8,0,0,0,2.19,0,3.74,3.74,0,0,0,2.3-1.78,3.8,3.8,0,0,0-1.41-5.19h0a3.8,3.8,0,1,0-3.78,6.6Z"/><path class="cls-2" d="M490,723.55a3.68,3.68,0,0,0,.7.32,3.83,3.83,0,0,0,4.49-1.73,3.8,3.8,0,1,0-5.19,1.41Z"/><path class="cls-2" d="M530.92,747a3.55,3.55,0,0,0,.69.31,3.8,3.8,0,0,0,3.09-6.91,3.8,3.8,0,0,0-5.19,1.41A3.8,3.8,0,0,0,530.92,747Z"/><path class="cls-2" d="M240.63,702.25a3.8,3.8,0,0,0,4.49-1.72,3.8,3.8,0,1,0-6.6-3.78h0a3.81,3.81,0,0,0,1.41,5.19A3.93,3.93,0,0,0,240.63,702.25Z"/><path class="cls-2" d="M140.13,709.12a3.8,3.8,0,0,0,1.41,5.19,3.68,3.68,0,0,0,.7.32,3.8,3.8,0,0,0,2.19,0,3.73,3.73,0,0,0,2.3-1.78,3.8,3.8,0,1,0-6.6-3.78Z"/><path class="cls-2" d="M170.21,671.94a3.81,3.81,0,0,0-1.41-5.19,3.8,3.8,0,0,0-5.19,1.41,3.8,3.8,0,0,0,1.4,5.19,4.08,4.08,0,0,0,.71.32,3.83,3.83,0,0,0,4.49-1.73Z"/><path class="cls-2" d="M192.28,625.79a3.75,3.75,0,0,0-2.89-.37,3.8,3.8,0,1,0,2.89.37Z"/><path class="cls-2" d="M264.12,508.1a3.81,3.81,0,1,0-6.6-3.79h0a3.81,3.81,0,0,0,1.4,5.2,3.93,3.93,0,0,0,.7.31A3.82,3.82,0,0,0,264.12,508.1Z"/><path class="cls-2" d="M280.62,466.24a3.83,3.83,0,0,0,1.78,2.31,3.89,3.89,0,0,0,2.89.37,3.81,3.81,0,1,0-4.3-5.57h0A3.84,3.84,0,0,0,280.62,466.24Z"/><path class="cls-2" d="M304.1,425.28a3.83,3.83,0,0,0,1.78,2.31,4.82,4.82,0,0,0,.7.31,3.88,3.88,0,0,0,2.19.06,3.81,3.81,0,1,0-4.67-2.68Z"/><polygon class="cls-2" points="304.47 422.39 304.47 422.39 304.47 422.39 304.47 422.39"/><path class="cls-2" d="M329.84,378.13a5.36,5.36,0,0,0-3.26,2.52h0a5.34,5.34,0,0,0-.64,1.82,4.2,4.2,0,0,0,.33,2.84l0,0a5.27,5.27,0,0,0,2.29,2.65,5.15,5.15,0,0,0,1,.44,5.35,5.35,0,0,0,3.09.08,5.38,5.38,0,0,0-2.82-10.38Z"/><path class="cls-2" d="M353.67,338.48a4,4,0,0,0-2.43,1.88h0a4,4,0,0,0,1.49,5.49,3.82,3.82,0,0,0,.74.34,4.13,4.13,0,0,0,1.25.2,4.23,4.23,0,0,0,1.06-.14,4,4,0,0,0,1-7.38A4,4,0,0,0,353.67,338.48Z"/><path class="cls-2" d="M383,304.14a5.51,5.51,0,1,0-7.51,2,6.09,6.09,0,0,0,1,.45,5.33,5.33,0,0,0,1.71.28A5.55,5.55,0,0,0,383,304.14Z"/><path class="cls-2" d="M374.33,249.25a3.28,3.28,0,0,0,.74.33,3.82,3.82,0,0,0,2.31.06,4,4,0,0,0,.95-7.37,4,4,0,0,0-3.05-.4,4,4,0,0,0-.95,7.38Z"/><path class="cls-2" d="M527.33,590.3a7.72,7.72,0,1,0-5.89.43,7.88,7.88,0,0,0,2.43.4A7.67,7.67,0,0,0,527.33,590.3Z"/><path class="cls-2" d="M94.54,366.31h0a4.22,4.22,0,1,0-2.65,8,4,4,0,0,0,1.33.22A4.24,4.24,0,0,0,97,368.42,4.26,4.26,0,0,0,94.54,366.31Z"/><path class="cls-2" d="M416.81,494.07a5.66,5.66,0,0,0,7.91,6.83,5.65,5.65,0,0,0-.77-10.42A5.66,5.66,0,0,0,416.81,494.07Z"/><path class="cls-2" d="M338.26,601.79a4.66,4.66,0,0,0,5.87-3,4.66,4.66,0,0,0-2.95-5.88,4.65,4.65,0,1,0-2.92,8.84Z"/><path class="cls-2" d="M529.88,473a6.71,6.71,0,1,0,8.48-4.25A6.65,6.65,0,0,0,529.88,473Z"/><path class="cls-2" d="M602,554.53a6.73,6.73,0,0,0-8.48,4.26,6.73,6.73,0,0,0,4.26,8.48,7,7,0,0,0,2.11.34A6.71,6.71,0,0,0,602,554.53Z"/><path class="cls-2" d="M445.75,648h0a5.29,5.29,0,0,0,5,7,5.32,5.32,0,0,0,5-3.63,5.28,5.28,0,0,0-10-3.32Z"/><path class="cls-2" d="M380.84,687.24a5.88,5.88,0,0,0,3.85,1.43,5.89,5.89,0,0,0,3.84-10.35,5.9,5.9,0,0,0-8.3.61A5.9,5.9,0,0,0,380.84,687.24Z"/><path class="cls-2" d="M337.44,792.61h0a5,5,0,0,0,1.53.24,4.86,4.86,0,1,0-3.17-1.18A4.71,4.71,0,0,0,337.44,792.61Z"/><path class="cls-2" d="M497,327.83h0a5.89,5.89,0,0,0-9.72,4.89,5.9,5.9,0,0,0,4,5.16,5.72,5.72,0,0,0,1.84.3l.44,0A5.89,5.89,0,0,0,497,327.83Z"/><path class="cls-2" d="M365.3,564.69a5.89,5.89,0,0,0-9.72,4.89,5.79,5.79,0,0,0,2,4,5.62,5.62,0,0,0,2,1.14,5.72,5.72,0,0,0,1.84.3l.44,0a5.84,5.84,0,0,0,4-2A5.91,5.91,0,0,0,365.3,564.69Z"/><path class="cls-2" d="M426.38,710.88a5.48,5.48,0,0,0,1.08.25,5.37,5.37,0,0,0,.7,0,5.6,5.6,0,0,0,5.54-4.9,5.61,5.61,0,0,0-1.14-4.13,5.59,5.59,0,1,0-6.18,8.74Z"/><path class="cls-2" d="M421.78,770a4,4,0,0,0-3.5-4.49h0a4,4,0,0,0-3,.82,4,4,0,0,0,1.2,7,4,4,0,0,0,.78.18,4.19,4.19,0,0,0,.5,0,4,4,0,0,0,4-3.53Z"/><path class="cls-2" d="M573.27,646.73a7,7,0,0,0,1.45.33,7.46,7.46,0,0,0,5.55-1.53,7.52,7.52,0,1,0-10.56-1.31A7.43,7.43,0,0,0,573.27,646.73Z"/><path class="cls-2" d="M296.34,605.18a4,4,0,0,0,.78.17,2.89,2.89,0,0,0,.5,0,4.06,4.06,0,0,0,2.47-.85,4,4,0,0,0-2-7.17,3.93,3.93,0,0,0-3,.82,4,4,0,0,0,1.2,7Z"/><path class="cls-2" d="M503,610.14a4.92,4.92,0,0,0,.78.18,4.19,4.19,0,0,0,.5,0,4,4,0,0,0,4-3.53,4,4,0,1,0-5.27,3.32Z"/><path class="cls-2" d="M334.05,654.37a5.48,5.48,0,0,0,4.89-7.94,5.4,5.4,0,0,0-3.17-2.74,5.48,5.48,0,0,0-3.44,10.4A5.63,5.63,0,0,0,334.05,654.37Z"/><path class="cls-2" d="M149.39,792.35a4.28,4.28,0,0,0,.58,7.88,4.15,4.15,0,0,0,1.35.22,4.28,4.28,0,1,0-1.93-8.1Z"/><path class="cls-2" d="M312.22,612.32a3.71,3.71,0,0,0,2.54,3.26,3.59,3.59,0,0,0,1.17.19h.27a3.72,3.72,0,1,0-4-3.44Z"/><path class="cls-2" d="M354.84,497.85a4.95,4.95,0,1,0-3.59-1.19,5,5,0,0,0,1.67,1,5.08,5.08,0,0,0,1.55.25Z"/><path class="cls-2" d="M369.56,717.31a5.89,5.89,0,1,0-9.72,4.89,5.93,5.93,0,0,0,3.84,1.43l.44,0a5.89,5.89,0,0,0,5.44-6.3Z"/><path class="cls-2" d="M336.31,554.25a3.4,3.4,0,0,0,.78.18,4.19,4.19,0,0,0,.5,0,4.05,4.05,0,1,0-1.28-.21Z"/><path class="cls-2" d="M343.74,668.78h0a4.2,4.2,0,0,0,1.26.2,3.83,3.83,0,0,0,1-.13,4,4,0,1,0-2.27-.07Z"/><path class="cls-2" d="M563,618a6.9,6.9,0,0,0-8.41-5,6.91,6.91,0,0,0-1.78,12.64,7,7,0,0,0,3.5,1,7.26,7.26,0,0,0,1.73-.22,6.93,6.93,0,0,0,5-8.42Z"/><path class="cls-2" d="M163.43,216.66a4.15,4.15,0,0,0,1.26.2,3.89,3.89,0,0,0,1-.13,4,4,0,0,0,2.45-1.85,4,4,0,0,0,.44-3,4,4,0,0,0-4.91-2.89,4,4,0,0,0-.25,7.72Z"/><path class="cls-2" d="M90.12,804.07a4,4,0,0,0-6.47-3.67,4.05,4.05,0,0,0-1.52,2.68,4,4,0,0,0,2.73,4.31,3.93,3.93,0,0,0,1.27.21,4,4,0,0,0,4-3.53Z"/><path class="cls-2" d="M85.53,312a4,4,0,0,0,.7-5.65,4,4,0,0,0-5.65-.7,4,4,0,0,0,2.48,7.2A4.08,4.08,0,0,0,85.53,312Z"/><path class="cls-2" d="M601.93,612.6a7.77,7.77,0,1,0-8.59,12.14,7.9,7.9,0,0,0,2.48.4,7.76,7.76,0,0,0,6.11-12.54Z"/><path class="cls-2" d="M161.53,251.25a4,4,0,0,0-3.5-4.48,4,4,0,0,0-3,.81,4,4,0,0,0,1.2,7,4.33,4.33,0,0,0,1.28.2,4,4,0,0,0,4-3.53Z"/><path class="cls-2" d="M365.85,392.94a6.18,6.18,0,0,0,4.17,6.61,6.29,6.29,0,0,0,2,.32,6.16,6.16,0,0,0,6.11-5.41,6.17,6.17,0,0,0-12.24-1.52Z"/><path class="cls-2" d="M250.66,905.47a3.92,3.92,0,0,0,.39-3.05,4,4,0,0,0-7.77,2.11,4.09,4.09,0,0,0,1.89,2.44,5.4,5.4,0,0,0,.74.33,4.13,4.13,0,0,0,1.25.2,4.23,4.23,0,0,0,1.06-.14A4,4,0,0,0,250.66,905.47Z"/><path class="cls-2" d="M376.74,634.56a5.37,5.37,0,0,0-9.85-1.27,5.39,5.39,0,0,0,2,7.34,5,5,0,0,0,1,.44,5.26,5.26,0,0,0,1.67.27,5.21,5.21,0,0,0,1.41-.19,5.36,5.36,0,0,0,3.78-6.59Z"/><path class="cls-2" d="M391.15,596.06a4,4,0,0,0,1.88,2.43,4.21,4.21,0,0,0,.75.34,4,4,0,0,0,1.25.2,4.29,4.29,0,0,0,1.06-.14,4,4,0,0,0,2.83-4.94,4,4,0,0,0-7.38-1l.19.11-.19-.11A4,4,0,0,0,391.15,596.06Z"/><path class="cls-2" d="M415.77,558.82a6.09,6.09,0,0,0,1,.45,5.43,5.43,0,0,0,1.72.28,5.51,5.51,0,0,0,5.33-6.95,5.51,5.51,0,1,0-8.06,6.22Z"/><path class="cls-2" d="M440.51,527.07a4,4,0,0,0-3.05-.4,4,4,0,0,0-1,7.38,3.57,3.57,0,0,0,.75.33,3.81,3.81,0,0,0,1.25.21,3.88,3.88,0,0,0,1.06-.15,4,4,0,0,0,.95-7.37Z"/><path class="cls-2" d="M616,508.62a7.72,7.72,0,1,0-4.85,14.65,7.86,7.86,0,0,0,2.43.39,7.72,7.72,0,0,0,2.42-15Z"/><path class="cls-2" d="M366.28,599.16a7.72,7.72,0,0,0-13.79,6.93,7.77,7.77,0,0,0,6.9,4.26,7.73,7.73,0,0,0,6.89-11.19Z"/><path class="cls-2" d="M468.78,535.45a6.14,6.14,0,1,0-1.93-.31A6.08,6.08,0,0,0,468.78,535.45Z"/><path class="cls-2" d="M487.33,460.57a5.64,5.64,0,0,0,.76,10.41,5.43,5.43,0,0,0,1.77.29,5.68,5.68,0,0,0,2.54-.6,5.61,5.61,0,0,0,2.83-3.27,5.65,5.65,0,0,0-7.9-6.83Z"/><path class="cls-2" d="M515.11,399.84a4.66,4.66,0,0,0-6.25-2.07,4.66,4.66,0,0,0,2.09,8.81,4.68,4.68,0,0,0,4.42-3.19A4.61,4.61,0,0,0,515.11,399.84Z"/><path class="cls-2" d="M529,332.25a6.71,6.71,0,0,0,.9,12.36,6.71,6.71,0,0,0,8.48-4.26,6.7,6.7,0,0,0-9.38-8.1Z"/><path class="cls-2" d="M387.31,537.26a5.2,5.2,0,1,0,2.31-7A5.17,5.17,0,0,0,387.31,537.26Z"/><path class="cls-2" d="M617.92,628.69a7.72,7.72,0,1,0-9.32,10.8,7.82,7.82,0,0,0,2.43.39,7.73,7.73,0,0,0,6.89-11.19Z"/><path class="cls-2" d="M409.45,303.1a5.87,5.87,0,0,0,2,1.14,5.72,5.72,0,0,0,1.84.3l.44,0a5.89,5.89,0,1,0-4.88-9.72,5.88,5.88,0,0,0,.6,8.3Z"/><path class="cls-2" d="M365.5,309.41a5.89,5.89,0,1,0-5.71,10,5.77,5.77,0,0,0,1.84.3l.45,0a5.89,5.89,0,0,0,3.42-10.33Z"/><path class="cls-2" d="M360.06,267.84a6,6,0,0,0,2,1.14,6.11,6.11,0,0,0,1.85.29h.44a5.9,5.9,0,0,0,5.44-6.31,5.89,5.89,0,0,0-10.33-3.42,5.88,5.88,0,0,0,.61,8.31Z"/><path class="cls-2" d="M361.66,220.84a5.78,5.78,0,0,0,2,1.14,6,6,0,0,0,1.84.29h.44a5.89,5.89,0,1,0-4.89-9.73,5.91,5.91,0,0,0,.61,8.31Z"/><path class="cls-2" d="M307.75,166.93a5.88,5.88,0,0,0,3.83,1.43l.45,0a5.9,5.9,0,0,0,5.44-6.3,5.89,5.89,0,0,0-10.33-3.42,5.88,5.88,0,0,0,.61,8.31Z"/><path class="cls-2" d="M325.16,198.39a5.88,5.88,0,0,0,3.84,1.44l.44,0a5.89,5.89,0,1,0-6.3-5.44A5.79,5.79,0,0,0,325.16,198.39Z"/><path class="cls-2" d="M305.85,305.62a5.87,5.87,0,0,0,.61,8.3,5.74,5.74,0,0,0,3.83,1.43h.45a5.89,5.89,0,1,0-4.89-9.72Z"/><path class="cls-2" d="M283.47,415.46l.44,0a5.78,5.78,0,0,0,3.8-1.44,5.93,5.93,0,0,0,.6-8.3,5.75,5.75,0,0,0-4-2,5.89,5.89,0,0,0-.86,11.74Z"/><path class="cls-2" d="M289.83,494.19l.44,0a5.78,5.78,0,0,0,3.8-1.44,5.81,5.81,0,0,0,2-4,5.89,5.89,0,0,0-1.4-4.28,5.8,5.8,0,0,0-8.22-.61,5.9,5.9,0,0,0,3.38,10.33Z"/><path class="cls-2" d="M324.64,527.29a5.71,5.71,0,0,0,2-1.13,5.93,5.93,0,0,0,.61-8.31A5.83,5.83,0,0,0,317,521.27a5.87,5.87,0,0,0,5.39,6.3,3.24,3.24,0,0,0,.44,0A5.65,5.65,0,0,0,324.64,527.29Z"/><path class="cls-2" d="M267.34,561.62a5.89,5.89,0,0,0,3.38,10.32,3.24,3.24,0,0,0,.44,0,5.65,5.65,0,0,0,1.82-.3,5.76,5.76,0,0,0,2-1.13,5.94,5.94,0,0,0,.6-8.31,5.79,5.79,0,0,0-8.22-.6Z"/><path class="cls-2" d="M296,627.4l.44,0a5.65,5.65,0,0,0,1.82-.3,5.78,5.78,0,0,0,2-1.14,5.9,5.9,0,0,0-3.39-10.33,5.77,5.77,0,0,0-4.24,1.42A5.91,5.91,0,0,0,296,627.4Z"/><path class="cls-2" d="M299.44,664.62h0a5.88,5.88,0,0,0,5.39,6.3l.44,0a5.65,5.65,0,0,0,1.82-.3,5.89,5.89,0,0,0,4-5.16,5.89,5.89,0,0,0-1.4-4.28,5.75,5.75,0,0,0-4-2,5.64,5.64,0,0,0-4.23,1.41A5.91,5.91,0,0,0,299.44,664.62Z"/><path class="cls-2" d="M277.23,709.23a5.94,5.94,0,0,0,.6-8.31,5.79,5.79,0,0,0-8.22-.6A5.9,5.9,0,0,0,273,710.64a3.1,3.1,0,0,0,.43,0,5.7,5.7,0,0,0,3.8-1.43Z"/><path class="cls-2" d="M266.09,759.84a3.24,3.24,0,0,0,.44,0,5.7,5.7,0,0,0,3.8-1.43,5.94,5.94,0,0,0,.6-8.31,5.8,5.8,0,0,0-8.23-.6,5.9,5.9,0,0,0,3.39,10.32Z"/><path class="cls-2" d="M270.87,832.46a5.93,5.93,0,0,0,.61-8.31,5.8,5.8,0,0,0-8.23-.6,5.9,5.9,0,0,0,3.39,10.32,3.1,3.1,0,0,0,.43,0,5.65,5.65,0,0,0,3.8-1.43Z"/><path class="cls-2" d="M309.48,716.23a5.67,5.67,0,0,0,2-1.13,5.94,5.94,0,0,0,.6-8.31,5.79,5.79,0,0,0-8.22-.6,5.9,5.9,0,0,0,3.39,10.32l.43,0A5.65,5.65,0,0,0,309.48,716.23Z"/><path class="cls-2" d="M350.26,816.27l.44,0a5.65,5.65,0,0,0,1.82-.3,5.74,5.74,0,0,0,2-1.14,5.86,5.86,0,0,0,2-4,5.94,5.94,0,0,0-1.4-4.28,5.81,5.81,0,0,0-8.23-.61,5.91,5.91,0,0,0,3.39,10.33Z"/><path class="cls-2" d="M313,827l.44,0a5.78,5.78,0,0,0,3.8-1.44,5.93,5.93,0,0,0,.6-8.3,5.8,5.8,0,0,0-8.22-.61A5.9,5.9,0,0,0,313,827Z"/><path class="cls-2" d="M346.52,711.93h0a5.88,5.88,0,0,0-5.38-6.3,5.73,5.73,0,0,0-4.24,1.42,5.91,5.91,0,0,0,3.38,10.33h.44a5.7,5.7,0,0,0,3.8-1.43A5.85,5.85,0,0,0,346.52,711.93Z"/><path class="cls-2" d="M238.07,517.43a5.88,5.88,0,0,0,5.39,6.3l.44,0a5.65,5.65,0,0,0,1.82-.3,5.78,5.78,0,0,0,2-1.14A5.9,5.9,0,0,0,244.31,512a5.75,5.75,0,0,0-4.23,1.42A5.91,5.91,0,0,0,238.07,517.43Z"/><path class="cls-2" d="M315.26,739.8a5.73,5.73,0,0,0-4.24,1.42,5.9,5.9,0,0,0,3.39,10.32,3.17,3.17,0,0,0,.43,0,5.66,5.66,0,0,0,1.83-.3,5.85,5.85,0,0,0,2-1.13,5.94,5.94,0,0,0,.6-8.31A5.77,5.77,0,0,0,315.26,739.8Z"/><path class="cls-2" d="M414.15,367.29a5.88,5.88,0,0,0,2.61,9.44,6,6,0,0,0,1.83.29H419a5.89,5.89,0,1,0-4.88-9.72Z"/><path class="cls-2" d="M422.05,449.22a6.1,6.1,0,0,0,1.84.29h.44a5.9,5.9,0,0,0,5.44-6.31,5.89,5.89,0,0,0-6.3-5.44,5.89,5.89,0,0,0-1.42,11.47Z"/><path class="cls-2" d="M453.84,474.75a5.88,5.88,0,1,0-5.88,6.32l.44,0A5.88,5.88,0,0,0,453.84,474.75Z"/><path class="cls-2" d="M463.07,454.41a5.89,5.89,0,0,0,4-2,5.89,5.89,0,0,0-4.88-9.72,5.89,5.89,0,0,0-1.41,11.47,6,6,0,0,0,1.83.29Z"/><path class="cls-2" d="M457.61,422.68a5.89,5.89,0,0,0-1.41,11.46,5.71,5.71,0,0,0,1.83.3l.44,0a5.89,5.89,0,1,0-.86-11.74Z"/><path class="cls-2" d="M492.27,275.43a5.85,5.85,0,0,0,4,5.16,5.71,5.71,0,0,0,1.83.3h.44a5.9,5.9,0,0,0,5.44-6.31,5.89,5.89,0,1,0-11.74.86Z"/><path class="cls-2" d="M466,271.3a5.72,5.72,0,0,0,1.84.3l.43,0a5.88,5.88,0,0,0,5.44-6.3,5.89,5.89,0,0,0-6.3-5.44A5.89,5.89,0,0,0,466,271.3Z"/><path class="cls-2" d="M432.24,224.36a5.71,5.71,0,0,0,1.83.3l.44,0a5.89,5.89,0,1,0-2.27-.28Z"/><path class="cls-2" d="M438.48,254.89a5.87,5.87,0,0,0,4,5.17,6,6,0,0,0,1.83.29h.44a5.9,5.9,0,0,0,5.44-6.31,5.89,5.89,0,0,0-11.74.86Z"/><path class="cls-2" d="M428.22,280.44a5.89,5.89,0,1,0-7.72,6,5.72,5.72,0,0,0,1.84.3l.43,0A5.9,5.9,0,0,0,428.22,280.44Z"/><path class="cls-2" d="M417.71,326.33a6.64,6.64,0,0,0-.93,5.87,5.94,5.94,0,0,0,3.72,3.65,5.75,5.75,0,0,0,1.83.3A6.93,6.93,0,0,0,427,334.2c2-2.88,1.63-6.33-.77-8.4s-5.88-1.88-8.45.49Z"/><path class="cls-2" d="M425.35,520.57a5.74,5.74,0,0,0,3.83,1.43h.44a5.93,5.93,0,0,0,5.45-6.09,4,4,0,0,0-4.06-5.39,5.64,5.64,0,0,0-2.24-.27,5.88,5.88,0,0,0-3.42,10.33Z"/><path class="cls-2" d="M606.71,611.37a4.24,4.24,0,0,0,1.32.21h.32a4.24,4.24,0,0,0,2.47-7.44,4.25,4.25,0,0,0-7,3.52,4.19,4.19,0,0,0,1.46,2.9A4.31,4.31,0,0,0,606.71,611.37Z"/><path class="cls-2" d="M505.92,539.33a5.87,5.87,0,0,0,2,1.14,6,6,0,0,0,1.84.29h.44a5.89,5.89,0,1,0-4.28-1.42Z"/><path class="cls-2" d="M551.46,483.49a5.9,5.9,0,0,0-1.41,4.28,5.83,5.83,0,0,0,2,4,5.83,5.83,0,0,0,3.86,1.44,5.89,5.89,0,1,0-4.47-9.74Z"/><path class="cls-2" d="M601.9,436.93a4.84,4.84,0,0,0,5.2-1.43,4.84,4.84,0,1,0-6.84.5A4.87,4.87,0,0,0,601.9,436.93Z"/><path class="cls-2" d="M621.36,571.68a4,4,0,1,0-5.15,4.83,4.15,4.15,0,0,0,1.26.2,3.81,3.81,0,0,0,1-.13,4,4,0,0,0,2.46-1.85A4,4,0,0,0,621.36,571.68Z"/><path class="cls-2" d="M572.26,620.63a4,4,0,0,0-.25,7.72,3.87,3.87,0,0,0,1.26.21,4.29,4.29,0,0,0,1-.13,4,4,0,0,0,1-7.37h0A4,4,0,0,0,572.26,620.63Z"/><path class="cls-2" d="M624.81,586h0a4.15,4.15,0,0,0,1.26.2,3.81,3.81,0,0,0,1-.13,3.93,3.93,0,0,0,2.46-1.85,4,4,0,1,0-4.72,1.78Z"/><path class="cls-2" d="M626,619.16h0a4,4,0,0,0-3.06-.42,4,4,0,0,0-2.46,1.85,4.07,4.07,0,0,0-.43,3,4,4,0,0,0,2.64,2.81,3.92,3.92,0,0,0,1.26.21,4.3,4.3,0,0,0,1-.13,4,4,0,0,0,1-7.36Z"/><path class="cls-2" d="M623.41,640.24a4,4,0,0,0-3-.43,3.93,3.93,0,0,0-2.46,1.85,4,4,0,0,0,2.21,5.86,3.87,3.87,0,0,0,1.26.21,3.81,3.81,0,0,0,1-.13,4,4,0,0,0,2.89-4.9A4,4,0,0,0,623.41,640.24Z"/><path class="cls-2" d="M624.34,562.83a4.15,4.15,0,0,0,1.26.2,3.76,3.76,0,0,0,1-.13,4,4,0,0,0,2.89-4.9,4,4,0,1,0-7.79,2A4,4,0,0,0,624.34,562.83Z"/><path class="cls-2" d="M626.05,566.11a4,4,0,0,0-2.46,1.85,4,4,0,0,0,2.21,5.87,4.15,4.15,0,0,0,1.26.2,3.76,3.76,0,0,0,1-.13,3.93,3.93,0,0,0,2.46-1.85,4,4,0,0,0-4.47-5.94Z"/><path class="cls-2" d="M615.33,586.64h0a3.92,3.92,0,0,0,1.26.21,4.3,4.3,0,0,0,1-.13,4,4,0,1,0-2.27-.08Z"/><path class="cls-2" d="M629.64,588.89a4,4,0,1,0-3.31,7.29,4.2,4.2,0,0,0,1.26.2,3.83,3.83,0,0,0,1-.13,4,4,0,0,0,2.89-4.9A4,4,0,0,0,629.64,588.89Z"/><path class="cls-2" d="M365.29,437.62a5.57,5.57,0,0,0-6.24,4.86,5.6,5.6,0,0,0,3.78,6,5.65,5.65,0,0,0,1.08.25c.23,0,.47,0,.7,0a5.59,5.59,0,0,0,4.4-9A5.53,5.53,0,0,0,365.29,437.62Z"/><path class="cls-2" d="M475.41,316.31h0a4,4,0,0,0-3,.81,4,4,0,0,0,2,7.17,4.19,4.19,0,0,0,.5,0,4,4,0,0,0,.49-8Z"/><path class="cls-2" d="M481.23,343.65h0a4,4,0,0,0-3,.82,4.08,4.08,0,0,0-1.52,2.68,4,4,0,0,0,2.73,4.32,4.08,4.08,0,0,0,.77.17,4.36,4.36,0,0,0,.51,0,4,4,0,0,0,4-3.53A4,4,0,0,0,481.23,343.65Z"/><path class="cls-2" d="M473.49,394.67a4,4,0,0,0-3,.82,4.05,4.05,0,0,0-1.52,2.68,4,4,0,0,0,2.72,4.31,3.66,3.66,0,0,0,.78.18l.51,0a4,4,0,0,0,4-3.53A4,4,0,0,0,473.49,394.67Z"/><path class="cls-2" d="M571,380.59a7.52,7.52,0,0,0,5.08,8.06,8.84,8.84,0,0,0,1.46.33,7.3,7.3,0,0,0,.94,0,7.52,7.52,0,0,0,7.44-6.59A7.52,7.52,0,1,0,571,380.59Z"/><path class="cls-2" d="M459.3,413.51a4,4,0,0,0,3.5,4.49,4.19,4.19,0,0,0,.5,0,4,4,0,0,0,2.46-.85,4,4,0,1,0-4.94-6.35A4,4,0,0,0,459.3,413.51Z"/><path class="cls-2" d="M458,456.87a3.93,3.93,0,0,0-3,.82,4,4,0,0,0-1.52,2.67,4,4,0,0,0,2.72,4.32,4.08,4.08,0,0,0,.77.17l.5,0a4,4,0,0,0,.5-8Z"/><path class="cls-2" d="M453.6,530.58a5.06,5.06,0,0,0,.77.18l.51,0a4,4,0,0,0,.49-8,4,4,0,0,0-4.49,3.5A4,4,0,0,0,453.6,530.58Z"/><path class="cls-2" d="M544.69,552.25l.51,0a4.08,4.08,0,1,0-1.28-.21A4.8,4.8,0,0,0,544.69,552.25Z"/><path class="cls-2" d="M617.7,496.59a3.93,3.93,0,0,0-3,.82,4,4,0,0,0-1.52,2.68,4,4,0,0,0,2.72,4.31,4.08,4.08,0,0,0,.77.17,2.92,2.92,0,0,0,.51,0,4,4,0,0,0,4-3.53,4,4,0,0,0-3.49-4.49Z"/><path class="cls-2" d="M608.74,499.92a5.47,5.47,0,0,0-7.65-6.61,5.47,5.47,0,0,0,.74,10.09,5.34,5.34,0,0,0,1.72.28,5.48,5.48,0,0,0,5.19-3.76Z"/><path class="cls-2" d="M472.84,650.37a3.74,3.74,0,0,0,3.71,3.46h.28a3.73,3.73,0,1,0-4-3.45Z"/><path class="cls-2" d="M558.26,411.63a4.95,4.95,0,0,0-2.87,8.68,4.84,4.84,0,0,0,1.68.95,4.73,4.73,0,0,0,1.54.25H559a5,5,0,0,0,2.88-8.68A5,5,0,0,0,558.26,411.63Z"/><path class="cls-2" d="M511.34,359.19a4,4,0,1,0-1,8,4.19,4.19,0,0,0,.5,0,4,4,0,0,0,2.47-.85,4,4,0,0,0,.7-5.65A4,4,0,0,0,511.34,359.19Z"/><path class="cls-2" d="M469.27,485.14a3.87,3.87,0,0,0,1.26.21,3.81,3.81,0,0,0,1-.13,4,4,0,1,0-2.26-.08Z"/><path class="cls-2" d="M518.28,466.05a4,4,0,0,0-3-.43,4,4,0,0,0-.25,7.72,4.15,4.15,0,0,0,1.26.2,3.76,3.76,0,0,0,1-.13,4,4,0,0,0,2.9-4.9A4,4,0,0,0,518.28,466.05Z"/><path class="cls-2" d="M584.52,396.67a4,4,0,0,0,2.21,5.86,3.81,3.81,0,0,0,1.25.21,4.3,4.3,0,0,0,1-.13,4,4,0,1,0-4.47-5.94Z"/><path class="cls-2" d="M581.44,400.29a4,4,0,0,0-7.36-1,4,4,0,0,0,2.21,5.86,3.87,3.87,0,0,0,1.26.21,4.29,4.29,0,0,0,1-.13A4,4,0,0,0,581.44,400.29Z"/><path class="cls-2" d="M572.1,409.61a4,4,0,0,0-.26,7.72,4.2,4.2,0,0,0,1.26.2,3.83,3.83,0,0,0,1-.13,4,4,0,0,0,1-7.36A4,4,0,0,0,572.1,409.61Z"/><path class="cls-2" d="M559,342.14a4,4,0,0,0,1.27.21,4.53,4.53,0,0,0,3.56-1.92,4.15,4.15,0,0,0-7.17-4.18,4.51,4.51,0,0,0-.07,3.73A4,4,0,0,0,559,342.14Z"/><path class="cls-2" d="M570.79,360.74a4,4,0,0,0,1.27.21,4.57,4.57,0,0,0,3.57-1.92,4.16,4.16,0,0,0-7.18-4.18,4.53,4.53,0,0,0-.06,3.74A4,4,0,0,0,570.79,360.74Z"/><path class="cls-2" d="M563.51,368.11a4,4,0,0,0,2.2,5.87,4.2,4.2,0,0,0,1.26.2,3.83,3.83,0,0,0,1-.13,4,4,0,0,0,2.89-4.9,4,4,0,0,0-7.36-1Z"/><path class="cls-2" d="M557.28,388.69a4,4,0,0,0-5.51,1.43A4,4,0,0,0,554,396a3.86,3.86,0,0,0,1.26.2,4.27,4.27,0,0,0,1-.12,4,4,0,0,0,1-7.37Z"/><path class="cls-2" d="M548.72,406.27a4,4,0,0,0,2.64,2.81,3.87,3.87,0,0,0,1.26.21,4.22,4.22,0,0,0,1-.13,4,4,0,0,0,2.89-4.91,4,4,0,0,0-1.85-2.46,4,4,0,0,0-5.94,4.48Z"/><path class="cls-2" d="M537,415.1a4,4,0,0,0-3.05-.43,4,4,0,0,0-.25,7.72,4.15,4.15,0,0,0,1.26.2,3.81,3.81,0,0,0,1-.13,4,4,0,0,0,1-7.36Z"/><path class="cls-2" d="M523.31,371.1a4,4,0,0,0-.25,7.72,4.15,4.15,0,0,0,1.26.2,3.76,3.76,0,0,0,1-.13,4,4,0,0,0,2.89-4.9,4,4,0,0,0-4.9-2.89Z"/><path class="cls-2" d="M467.56,357.41a4,4,0,0,0-2.45,1.85,4,4,0,0,0,2.2,5.87,4.2,4.2,0,0,0,1.26.2,3.83,3.83,0,0,0,1-.13,4,4,0,0,0,2.89-4.9,4,4,0,0,0-4.91-2.89Z"/><path class="cls-2" d="M454.4,324.17A4,4,0,0,0,457,327a3.92,3.92,0,0,0,1.26.21,4.3,4.3,0,0,0,1-.13,4,4,0,1,0-4.91-2.89Z"/><path class="cls-2" d="M510.69,310.89a3.92,3.92,0,0,0,1.26.21,4.3,4.3,0,0,0,1-.13,4,4,0,1,0-2.27-.08Z"/><path class="cls-2" d="M530,318.75a4,4,0,0,0-.25,7.72,3.87,3.87,0,0,0,1.26.21,4.22,4.22,0,0,0,1-.13,4,4,0,1,0-2-7.8Z"/><path class="cls-2" d="M495.17,394.56a4,4,0,0,0-3.05-.43,4,4,0,0,0-.25,7.72,4.2,4.2,0,0,0,1.26.2,3.83,3.83,0,0,0,1-.13,4,4,0,0,0,1-7.36Z"/><path class="cls-2" d="M502.86,459.59a4,4,0,0,0-2.46,1.85,4,4,0,0,0-.43,3.05,4,4,0,0,0,2.64,2.82,4.1,4.1,0,0,0,1.26.2,3.81,3.81,0,0,0,1-.13,4,4,0,0,0,1-7.36A4,4,0,0,0,502.86,459.59Z"/><path class="cls-2" d="M500.11,499.92a4,4,0,0,0,2.63,2.82,4.2,4.2,0,0,0,1.26.2,3.83,3.83,0,0,0,1-.13,4,4,0,0,0,1-7.36A4,4,0,0,0,503,495,4,4,0,0,0,500.11,499.92Z"/><path class="cls-2" d="M498.57,475.34a4,4,0,0,0,2.63,2.81,3.92,3.92,0,0,0,1.26.21,4.3,4.3,0,0,0,1-.13,4,4,0,1,0-4.9-2.89Z"/><path class="cls-2" d="M468.11,475.72a4,4,0,1,0-2.26-.08,3.83,3.83,0,0,0,1.26.21A4.29,4.29,0,0,0,468.11,475.72Z"/><path class="cls-2" d="M478.31,478.21h0a4.1,4.1,0,0,0,1.26.2,3.81,3.81,0,0,0,1-.13,4,4,0,0,0,2.89-4.9,4,4,0,1,0-5.16,4.83Z"/><path class="cls-2" d="M492.64,501.25a4,4,0,1,0-5.16,4.83,3.92,3.92,0,0,0,1.26.21,4.3,4.3,0,0,0,1-.13A4,4,0,0,0,492.64,501.25Z"/><path class="cls-2" d="M478.86,515.62a4,4,0,0,0-.43,3,4,4,0,0,0,2.64,2.82,4.15,4.15,0,0,0,1.26.2,3.81,3.81,0,0,0,1-.13,4,4,0,0,0,2.46-1.85,4,4,0,0,0-6.93-4.09Z"/><path class="cls-2" d="M618.41,529a4.06,4.06,0,0,0-.43,3,4,4,0,0,0,2.64,2.81,3.91,3.91,0,0,0,1.26.2,4.29,4.29,0,0,0,1-.12,4,4,0,1,0-4.48-5.94Z"/><path class="cls-2" d="M548.6,332.34a4,4,0,0,0-.26,7.72,3.92,3.92,0,0,0,1.26.21,4.3,4.3,0,0,0,1-.13,4,4,0,1,0-2-7.8Z"/><path class="cls-2" d="M525,309.69a4,4,0,0,0,2.64,2.81,3.87,3.87,0,0,0,1.26.21,4.29,4.29,0,0,0,1-.13,4,4,0,1,0-4.47-5.94A4,4,0,0,0,525,309.69Z"/><path class="cls-2" d="M413.19,466a6.88,6.88,0,0,0,6.68,5.18,6.91,6.91,0,0,0,3.52-12.86,6.82,6.82,0,0,0-5.24-.73A6.91,6.91,0,0,0,413.19,466Z"/><path class="cls-2" d="M445.13,440.65a4,4,0,0,0,2.64,2.82,4.15,4.15,0,0,0,1.26.2,3.89,3.89,0,0,0,1-.13,3.94,3.94,0,0,0,2.45-1.85,4,4,0,1,0-7.36-1Z"/><path class="cls-2" d="M597,653l.5,0a4,4,0,0,0,3.17-6.5,4,4,0,0,0-5.65-.7,4.05,4.05,0,0,0-1.52,2.68,4,4,0,0,0,2.72,4.31A4.92,4.92,0,0,0,597,653Z"/><path class="cls-2" d="M605.74,660.73a4,4,0,0,0,.7-5.65,4,4,0,0,0-7.17,2,4,4,0,0,0,2.72,4.31,4.92,4.92,0,0,0,.78.18,4.19,4.19,0,0,0,.5,0A4.06,4.06,0,0,0,605.74,660.73Z"/><path class="cls-2" d="M620.43,653a4,4,0,1,0-1,8,4.07,4.07,0,0,0,.5,0,4,4,0,0,0,3.17-6.5A4,4,0,0,0,620.43,653Z"/><path class="cls-2" d="M597.75,675.48a4.18,4.18,0,0,0,.78.17l.5,0a4,4,0,0,0,2.47-.85,4,4,0,0,0-5-6.35,4,4,0,0,0-.7,5.65A4,4,0,0,0,597.75,675.48Z"/><path class="cls-2" d="M592.35,700.51a4,4,0,0,0-3,.81,4.07,4.07,0,0,0-1.53,2.69,4,4,0,0,0,2.73,4.31,4.08,4.08,0,0,0,.77.17,4.38,4.38,0,0,0,.51,0,4,4,0,0,0,2.46-.86,4,4,0,0,0-2-7.16Z"/><path class="cls-2" d="M562.39,683.19l.5,0a4,4,0,0,0,3.17-6.5,4,4,0,0,0-7.17,2,4,4,0,0,0,2.72,4.31A3.53,3.53,0,0,0,562.39,683.19Z"/><path class="cls-2" d="M566.75,576.17a4,4,0,0,0,.78.17l.5,0a4,4,0,1,0-1.28-.2Z"/><path class="cls-2" d="M507.9,524.62h0a4.36,4.36,0,0,0,.78.17l.5,0a4,4,0,0,0,2.47-.85,4,4,0,1,0-5.65-.7A4.07,4.07,0,0,0,507.9,524.62Z"/><path class="cls-2" d="M518.54,527.92a4,4,0,0,0,.78.17,4.19,4.19,0,0,0,.5,0,4,4,0,1,0-1.28-.2Z"/><path class="cls-2" d="M520.42,538.59a4,4,0,0,0,.82,3,4,4,0,0,0,1.9,1.35h0a4.83,4.83,0,0,0,1.28.21,4,4,0,0,0,2.46-.86,4,4,0,1,0-6.46-3.67Z"/><path class="cls-2" d="M544.51,453.81a4,4,0,0,0-5.65-.7,4,4,0,0,0,1.2,7,4,4,0,0,0,.78.18,4.19,4.19,0,0,0,.5,0,4,4,0,0,0,3.17-6.5Z"/><path class="cls-2" d="M584.86,428.82a4,4,0,0,0-3,.82,4,4,0,0,0,1.2,7,4.92,4.92,0,0,0,.78.18l.5,0a4,4,0,0,0,3.17-6.5A4,4,0,0,0,584.86,428.82Z"/><path class="cls-2" d="M607.81,454.58h0a4,4,0,0,0,2,7.16,2.81,2.81,0,0,0,.5,0,4,4,0,0,0,4-3.53,4,4,0,0,0-6.47-3.67Z"/><path class="cls-2" d="M605.11,442.72a4,4,0,0,0-1.52,2.68,4,4,0,0,0,2.72,4.31,5.06,5.06,0,0,0,.77.18,4.36,4.36,0,0,0,.51,0,4,4,0,0,0,3.16-6.5,4,4,0,0,0-5.64-.7Z"/><path class="cls-2" d="M610,465.5a4,4,0,0,0,1.2,7,4.92,4.92,0,0,0,.78.18,4,4,0,0,0,3.67-6.47,4,4,0,0,0-5.65-.7Z"/><path class="cls-2" d="M608.32,525.36a4,4,0,0,0-1.76,7.82,4.08,4.08,0,0,0,.77.17l.51,0a4,4,0,0,0,4-3.53,4,4,0,0,0-3.5-4.49Z"/><path class="cls-2" d="M603.89,569.46a4,4,0,0,0,1.2,7,4.92,4.92,0,0,0,.78.18,4,4,0,0,0,3-.82,4,4,0,0,0,1.51-2.68,4,4,0,0,0-.81-3,4,4,0,0,0-5.65-.7Z"/><path class="cls-2" d="M613.07,564.68h0a2.74,2.74,0,0,0,.5,0,4,4,0,0,0,.49-8,3.92,3.92,0,0,0-3,.82,4,4,0,0,0,1.2,7A4.08,4.08,0,0,0,613.07,564.68Z"/><path class="cls-2" d="M623.2,545.05a4,4,0,0,0,2,7.16,2.81,2.81,0,0,0,.5,0,4,4,0,0,0,4-3.53,4,4,0,0,0-3.5-4.49A3.93,3.93,0,0,0,623.2,545.05Z"/><path class="cls-2" d="M522.07,456.33a4,4,0,0,0,1.2,7,3.45,3.45,0,0,0,.77.18l.51,0a4,4,0,0,0,4-3.53,4,4,0,0,0-6.46-3.67Z"/><path class="cls-2" d="M530.24,556.32a4,4,0,0,0,2.47-.85,4,4,0,0,0,.71-5.65,4,4,0,0,0-6.35,4.95,4,4,0,0,0,1.9,1.34A4,4,0,0,0,530.24,556.32Z"/><path class="cls-2" d="M566.21,527.09h0a4,4,0,0,0,5.26-3.32,4,4,0,0,0-3.49-4.49,4,4,0,0,0-3,.82,4,4,0,0,0,1.2,7Z"/><path class="cls-2" d="M563.71,517.58a3.77,3.77,0,0,0,1.14.18,3.59,3.59,0,1,0-2.84-1.38A3.66,3.66,0,0,0,563.71,517.58Z"/><path class="cls-2" d="M579.84,511.91h0a4,4,0,0,0-3,.82,4,4,0,0,0-.7,5.65,4,4,0,0,0,1.9,1.35,4.33,4.33,0,0,0,1.28.2,4,4,0,0,0,2.47-.85,4,4,0,0,0,1.52-2.68,4,4,0,0,0-3.5-4.49Z"/><path class="cls-2" d="M581.75,523.73h0a4,4,0,0,0-3,.82,4,4,0,0,0,1.21,7,3.92,3.92,0,0,0,1.27.2,4,4,0,0,0,3.17-6.49A4,4,0,0,0,581.75,523.73Z"/><path class="cls-2" d="M569.12,552.94a4,4,0,0,0-3.67,6.47,4,4,0,0,0,1.91,1.34,3.93,3.93,0,0,0,1.27.21,4,4,0,0,0,.49-8Z"/><path class="cls-2" d="M561.75,546.19a4,4,0,1,0-7.17,2,4,4,0,0,0,1.9,1.34,4,4,0,0,0,1.27.21,4,4,0,0,0,2.47-.85A4,4,0,0,0,561.75,546.19Z"/><path class="cls-2" d="M585.87,548.36a4,4,0,0,0-2.69-1.52,3.94,3.94,0,0,0-3,.81,4,4,0,1,0,6.46,3.67A3.94,3.94,0,0,0,585.87,548.36Z"/><path class="cls-2" d="M585.59,461.09h0a4,4,0,1,0,2.68,1.52A4,4,0,0,0,585.59,461.09Z"/><path class="cls-2" d="M484.45,631.57a7.85,7.85,0,0,0,1.51.34,7.74,7.74,0,1,0-1.51-.34Z"/><path class="cls-2" d="M378,417.8h0a4,4,0,0,0-.39,3.06,4,4,0,0,0,1.88,2.44,5.4,5.4,0,0,0,.74.33,4.13,4.13,0,0,0,1.25.2,4.23,4.23,0,0,0,1.06-.14,4,4,0,0,0,2.83-4.94,4,4,0,0,0-4.93-2.83A4,4,0,0,0,378,417.8Z"/><path class="cls-2" d="M395.87,461.88a4,4,0,0,0-3.05-.4,4,4,0,0,0-2.83,4.94,4,4,0,0,0,1.88,2.44,3.73,3.73,0,0,0,.74.33,3.86,3.86,0,0,0,2.32.06,4,4,0,0,0,.94-7.37Z"/><path class="cls-2" d="M405.18,507.05a4,4,0,0,0-.95,7.38,5,5,0,0,0,.75.33,4.09,4.09,0,0,0,1.25.2,4.29,4.29,0,0,0,1.06-.14,4,4,0,1,0-2.11-7.77Z"/><path class="cls-2" d="M471.3,559.52a4,4,0,0,0-.94,7.38,4.8,4.8,0,0,0,.73.33,4.25,4.25,0,0,0,1.26.2,4,4,0,1,0-1.05-7.91Z"/><path class="cls-2" d="M493.83,525.94a5,5,0,0,0,.75.33,4.09,4.09,0,0,0,1.25.2,4.23,4.23,0,0,0,1.06-.14,4,4,0,0,0,.95-7.38,4,4,0,0,0-4,7Z"/><path class="cls-2" d="M518.26,477.6a4,4,0,0,0-1,7.37,4.21,4.21,0,0,0,.75.34,4,4,0,0,0,1.25.2,4.29,4.29,0,0,0,1.06-.14,4,4,0,0,0-2.11-7.77Z"/><path class="cls-2" d="M545.47,435.86a5.36,5.36,0,0,0-7.34,2,5.29,5.29,0,0,0-.53,4.08,5.36,5.36,0,0,0,2.52,3.26,5.15,5.15,0,0,0,1,.44,5.39,5.39,0,0,0,6.35-2.43A5.39,5.39,0,0,0,545.47,435.86Z"/><path class="cls-2" d="M568.27,396.07a3.93,3.93,0,0,0-3-.39,4,4,0,0,0-2.44,1.88,3.93,3.93,0,0,0-.39,3.05,4,4,0,0,0,1.88,2.44,3.49,3.49,0,0,0,.74.33,3.82,3.82,0,0,0,2.31.06,4,4,0,0,0,.95-7.37Z"/><path class="cls-2" d="M320,927.29A5.66,5.66,0,0,0,316.45,938a5.71,5.71,0,0,0,1.78.28,5.65,5.65,0,0,0,1.77-11Z"/><path class="cls-2" d="M391.29,943a5.65,5.65,0,0,0-3.55,10.73,5.74,5.74,0,0,0,1.77.28,5.65,5.65,0,0,0,1.78-11Z"/><path class="cls-2" d="M338.48,957.66a5.65,5.65,0,0,0-7.14,3.58,5.64,5.64,0,0,0,7.9,6.83,5.65,5.65,0,0,0-.76-10.41Z"/><path class="cls-2" d="M231.39,749.34a5.65,5.65,0,1,0-3.55,10.73,5.71,5.71,0,0,0,1.77.29,5.56,5.56,0,0,0,2.54-.61,5.65,5.65,0,0,0-.76-10.41Z"/><path class="cls-2" d="M337.85,873.39a4.59,4.59,0,0,0,1.46.23,4.61,4.61,0,1,0-1.46-.23Z"/><path class="cls-2" d="M538.51,517.61a6.71,6.71,0,0,0-4.25-8.48,6.72,6.72,0,0,0-8.48,4.26,6.71,6.71,0,1,0,12.73,4.22Z"/><path class="cls-2" d="M376.77,744a5.3,5.3,0,0,0,4.72,2.91,5.36,5.36,0,0,0,2.37-.56,5.28,5.28,0,1,0-7.39-6.38h0A5.27,5.27,0,0,0,376.77,744Z"/><path class="cls-2" d="M397.73,661.68a7.72,7.72,0,1,0-10.79-9.32,7.71,7.71,0,0,0,4.9,9.75,7.77,7.77,0,0,0,2.43.39A7.65,7.65,0,0,0,397.73,661.68Z"/><path class="cls-2" d="M420.11,580a5.9,5.9,0,0,0,5.44-6.31,5.89,5.89,0,1,0-9.72,4.89,5.79,5.79,0,0,0,3.84,1.43Z"/><path class="cls-2" d="M348.55,521.2a5.9,5.9,0,0,0,5.44-6.31,5.89,5.89,0,0,0-11.74.86,5.87,5.87,0,0,0,4,5.17,6,6,0,0,0,1.83.29Z"/><path class="cls-2" d="M281.86,838a4,4,0,0,0-1,7.84,4.13,4.13,0,0,0,1.25.2h.3a4,4,0,0,0-.58-8Z"/><path class="cls-2" d="M271.59,936.27a4,4,0,0,0-1,7.84,4.13,4.13,0,0,0,1.25.2h.3a4,4,0,0,0,2.34-7.06A4,4,0,0,0,271.59,936.27Z"/><path class="cls-2" d="M252.88,981.38a4,4,0,0,0-1,7.84,4.15,4.15,0,0,0,1.26.2h.3a4,4,0,0,0,2.33-7.06A4,4,0,0,0,252.88,981.38Z"/><path class="cls-2" d="M378,814.54a5.93,5.93,0,0,0,3.86,1.43,5.84,5.84,0,0,0,4.45-2,5.9,5.9,0,0,0-.61-8.3,5.89,5.89,0,0,0-7.7,8.91Z"/><path class="cls-2" d="M386.46,847a6.09,6.09,0,0,0,2,1.13,6,6,0,0,0,1.86.3A5.89,5.89,0,0,0,394.16,838a5.89,5.89,0,0,0-8.3.61,5.89,5.89,0,0,0,.6,8.31Z"/><path class="cls-2" d="M413.31,853.49a5.88,5.88,0,0,0,3.86,1.43,5.89,5.89,0,1,0-3.86-1.43Z"/><path class="cls-2" d="M366.37,870.6a5.8,5.8,0,0,0,2,1.13,5.7,5.7,0,0,0,1.86.3,5.89,5.89,0,1,0-4.46-9.73,5.9,5.9,0,0,0,.61,8.3Z"/><path class="cls-2" d="M356.46,886.63a5.9,5.9,0,1,0,2,4A5.84,5.84,0,0,0,356.46,886.63Z"/><path class="cls-2" d="M415.68,886.72a5.89,5.89,0,1,0-7.7,8.92,5.88,5.88,0,0,0,3.86,1.43,5.89,5.89,0,0,0,3.84-10.35Z"/><path class="cls-2" d="M380,924.38A5.81,5.81,0,0,0,375.7,923a5.89,5.89,0,0,0-3.41,10.33,5.62,5.62,0,0,0,2,1.13,6,6,0,0,0,1.86.3,5.87,5.87,0,0,0,4.45-2,5.89,5.89,0,0,0-.61-8.3Z"/><path class="cls-2" d="M410.61,906.85a5.89,5.89,0,0,0-7.7,8.92,6,6,0,0,0,2,1.13,6.09,6.09,0,0,0,1.87.3,5.89,5.89,0,0,0,3.84-10.35Z"/><path class="cls-2" d="M335.69,456.66a5.9,5.9,0,0,0,.6,8.31,6.09,6.09,0,0,0,2,1.13,6,6,0,0,0,1.86.3,5.89,5.89,0,1,0-.44-11.76A5.79,5.79,0,0,0,335.69,456.66Z"/><path class="cls-2" d="M341.6,402.69A5.89,5.89,0,0,0,338.18,413a5.88,5.88,0,0,0,3.86,1.43,5.88,5.88,0,0,0,3.84-10.34A5.81,5.81,0,0,0,341.6,402.69Z"/><path class="cls-2" d="M335.25,263.38a5.83,5.83,0,0,0,3.85,1.44,5.9,5.9,0,1,0-3.85-1.44Z"/><path class="cls-2" d="M435.46,902.54a4.85,4.85,0,1,0-6.83.5,4.73,4.73,0,0,0,1.63.93,4.84,4.84,0,0,0,5.2-1.43Z"/><path class="cls-2" d="M481.66,841.65A3.6,3.6,0,1,0,477,847.1a3.44,3.44,0,0,0,1.22.69,3.56,3.56,0,0,0,1.13.18h.27a3.59,3.59,0,0,0,2.09-6.31Z"/><path class="cls-2" d="M525.61,711.28a5.89,5.89,0,0,0-10.33-3.42,5.91,5.91,0,0,0,.61,8.31,5.93,5.93,0,0,0,3.84,1.43l.44,0a5.79,5.79,0,0,0,4-2A5.87,5.87,0,0,0,525.61,711.28Z"/><path class="cls-2" d="M302,791.16a4,4,0,0,0,.78.17,2.89,2.89,0,0,0,.5,0,4.06,4.06,0,0,0,2.47-.85,4,4,0,0,0-4.95-6.35,4,4,0,0,0,1.2,7Z"/><path class="cls-2" d="M591.81,468.24a7.52,7.52,0,0,0,5.08,8.06,7.25,7.25,0,0,0,1.45.33,7.57,7.57,0,0,0,.95.06,7.52,7.52,0,0,0,7.44-6.6,7.52,7.52,0,1,0-14.92-1.85Z"/><path class="cls-2" d="M290.38,884.87a4,4,0,0,0,.78.17l.5,0a4,4,0,0,0,2.47-.85,4,4,0,0,0-2-7.17,4,4,0,0,0-1.77,7.82Z"/><path class="cls-2" d="M332.61,735.77a4.19,4.19,0,0,0,.5,0,4,4,0,1,0-1.27-.2A3.76,3.76,0,0,0,332.61,735.77Z"/><path class="cls-2" d="M273.78,906a4,4,0,0,0-3,.82,4,4,0,0,0-1.52,2.68,4,4,0,0,0,2.73,4.32,3.76,3.76,0,0,0,.77.17l.5,0a4,4,0,0,0,.49-8Z"/><path class="cls-2" d="M314.36,887.18a3.57,3.57,0,0,0,1.16.19h.28a3.74,3.74,0,1,0-1.44-.18Z"/><path class="cls-2" d="M386.46,883h0a4.78,4.78,0,0,0,1.54.25h.38a4.95,4.95,0,0,0,2.87-8.68,5,5,0,0,0-7,.52,4.94,4.94,0,0,0,.51,7A4.84,4.84,0,0,0,386.46,883Z"/><path class="cls-2" d="M457.63,876.37a4.53,4.53,0,0,0,1.49.85,4.33,4.33,0,0,0,1.38.22h.33a4.38,4.38,0,0,0,4.05-4.7,4.38,4.38,0,0,0-4.7-4.06,4.39,4.39,0,0,0-4.05,4.7A4.34,4.34,0,0,0,457.63,876.37Z"/><path class="cls-2" d="M333.19,821.54a4,4,0,0,0,.81,3,4,4,0,0,0,1.91,1.34,3.45,3.45,0,0,0,.77.18l.51,0a4,4,0,0,0,4-3.53,3.93,3.93,0,0,0-.82-3,4,4,0,0,0-7.16,2Z"/><path class="cls-2" d="M300.93,944.9a4,4,0,0,0-3.05-.43,4,4,0,0,0-.25,7.72,4.15,4.15,0,0,0,1.26.2,3.81,3.81,0,0,0,1-.13,4,4,0,0,0,2.89-4.9A3.93,3.93,0,0,0,300.93,944.9Z"/><path class="cls-2" d="M346.64,933.09a4,4,0,0,0-3.05-.43,4,4,0,0,0-.25,7.72,4.15,4.15,0,0,0,1.26.2,3.83,3.83,0,0,0,1-.13,4,4,0,0,0,2.46-1.85,4.07,4.07,0,0,0,.43-3.05A4,4,0,0,0,346.64,933.09Z"/><path class="cls-2" d="M504.61,636.16a7.45,7.45,0,0,0,1.35.61,6.91,6.91,0,0,0,8.84-8.29,6.9,6.9,0,1,0-10.19,7.68Z"/><path class="cls-2" d="M438.07,909.47A4.07,4.07,0,0,0,435,909a4,4,0,0,0-.26,7.72A3.92,3.92,0,0,0,436,917a4.3,4.3,0,0,0,1-.13,4,4,0,0,0,1-7.37Z"/><path class="cls-2" d="M488.61,868.17a4,4,0,1,0-3.31,7.29,4.2,4.2,0,0,0,1.26.2,3.83,3.83,0,0,0,1-.13,4,4,0,0,0,1-7.36Z"/><path class="cls-2" d="M138.87,893.87a4,4,0,0,0-1,7.37,4.21,4.21,0,0,0,.75.34,4.13,4.13,0,0,0,1.25.2,4.29,4.29,0,0,0,1.06-.14,4,4,0,0,0,2.83-4.94A4,4,0,0,0,138.87,893.87Z"/><path class="cls-2" d="M218.63,950.53a4,4,0,0,0-.94,7.38,3.79,3.79,0,0,0,.74.33,4,4,0,0,0,2.31.06,4,4,0,1,0-2.11-7.77Z"/><path class="cls-2" d="M360.68,842.57a4,4,0,0,0-3.06-.4,4,4,0,0,0-2.43,1.89,4,4,0,0,0,1.49,5.49,3.28,3.28,0,0,0,.74.33,3.82,3.82,0,0,0,2.31.06,4,4,0,0,0,.95-7.37Z"/><path class="cls-2" d="M372.56,912.75a5.38,5.38,0,1,0-4.08-.52,5.44,5.44,0,0,0,1,.44,5.35,5.35,0,0,0,1.67.27A5.28,5.28,0,0,0,372.56,912.75Z"/><path class="cls-2" d="M396.63,863.11a4,4,0,0,0-4,7,4.46,4.46,0,0,0,.74.34,4,4,0,0,0,2.31.06,4,4,0,0,0,.95-7.38Z"/><path class="cls-2" d="M423.42,824.2a5.51,5.51,0,1,0-8.05,6.22,6.09,6.09,0,0,0,1,.45,5.34,5.34,0,0,0,1.72.28,5.55,5.55,0,0,0,4.79-2.77A5.45,5.45,0,0,0,423.42,824.2Z"/><path class="cls-2" d="M440.54,780.79a4.08,4.08,0,0,0-2.45,1.89,4,4,0,0,0,1.49,5.49,3.57,3.57,0,0,0,.75.33,3.81,3.81,0,0,0,1.25.21,3.88,3.88,0,0,0,1.06-.15,4,4,0,0,0,.95-7.37A4,4,0,0,0,440.54,780.79Z"/><path class="cls-2" d="M428.16,790.09a4,4,0,0,0-1.49-5.49,4,4,0,0,0-3.05-.4,4,4,0,0,0-2.44,1.89,3.92,3.92,0,0,0-.39,3,4,4,0,0,0,1.88,2.44,3.28,3.28,0,0,0,.74.33,3.82,3.82,0,0,0,2.31.06A4,4,0,0,0,428.16,790.09Z"/><path class="cls-2" d="M554.66,760.39h0a7.71,7.71,0,0,0-9.75,4.9,7.71,7.71,0,0,0,4.9,9.75,7.5,7.5,0,0,0,2.43.4,7.72,7.72,0,0,0,2.42-15.05Z"/><path class="cls-2" d="M546.59,368.36h0A7.72,7.72,0,1,0,557,371.79,7.73,7.73,0,0,0,546.59,368.36Z"/><path class="cls-2" d="M409.7,408a6.07,6.07,0,0,0,1.92.31,6.14,6.14,0,1,0-2.75-11.63,6.07,6.07,0,0,0-3.07,3.56A6.14,6.14,0,0,0,409.7,408Z"/><path class="cls-2" d="M403.69,425.59a6.05,6.05,0,0,0,3.55,3.07A6.14,6.14,0,1,0,411.1,417a6.07,6.07,0,0,0-4.69.34,6.12,6.12,0,0,0-2.72,8.24Z"/><path class="cls-2" d="M434.76,297.42a6.17,6.17,0,0,0,3.9,7.76,6.14,6.14,0,1,0-3.9-7.76Z"/><path class="cls-2" d="M445,336.68a6.14,6.14,0,1,0-3.86,11.66,6.39,6.39,0,0,0,1.93.31,6.14,6.14,0,0,0,1.93-12Z"/><path class="cls-2" d="M586.44,477.68a5.66,5.66,0,0,0-3.55,10.74,5.7,5.7,0,0,0,4.31-.32,5.66,5.66,0,0,0-.76-10.42Z"/><path class="cls-2" d="M189.62,264.47a4.66,4.66,0,0,0,4.41,6.12,4.66,4.66,0,1,0-4.41-6.12Z"/><path class="cls-2" d="M413.79,604.74h0a6.71,6.71,0,1,0-4.22,12.74,7,7,0,0,0,2.11.34,6.74,6.74,0,0,0,6.37-4.6A6.72,6.72,0,0,0,413.79,604.74Z"/><path class="cls-2" d="M528.76,442.62a5.2,5.2,0,0,0,.7,9.58,5.45,5.45,0,0,0,1.64.26,5.19,5.19,0,1,0-2.34-9.84Z"/><path class="cls-2" d="M546.75,463.68h0a5.19,5.19,0,0,0,2.35,9.83,5.14,5.14,0,0,0,2.32-.55,5.19,5.19,0,1,0-4.67-9.28Z"/><path class="cls-2" d="M570.14,718a7.63,7.63,0,0,0-.43-5.89,7.72,7.72,0,1,0-9.32,10.79,7.88,7.88,0,0,0,2.44.39,7.78,7.78,0,0,0,3.45-.82A7.68,7.68,0,0,0,570.14,718Z"/><path class="cls-2" d="M559.89,510.09a5.89,5.89,0,0,0-6.3-5.44,5.89,5.89,0,0,0-1.41,11.46,5.71,5.71,0,0,0,1.83.3h.44A5.9,5.9,0,0,0,559.89,510.09Z"/><path class="cls-2" d="M572.18,424a5.81,5.81,0,0,0-4.28-1.42,5.89,5.89,0,0,0-3.42,10.33,6.14,6.14,0,0,0,2,1.14,6,6,0,0,0,1.84.29h.44A5.88,5.88,0,0,0,572.18,424Z"/><path class="cls-2" d="M312.36,462.87a4.19,4.19,0,0,0,1.46,2.9,4.14,4.14,0,0,0,1.44.82,4.25,4.25,0,0,0,1.32.22l.32,0a4.24,4.24,0,1,0-4.54-3.92Z"/><path class="cls-2" d="M449.58,356.07a5.79,5.79,0,0,0-4,2,5.88,5.88,0,0,0,2.6,9.44,5.72,5.72,0,0,0,1.84.3l.44,0a5.84,5.84,0,0,0,4-2,5.9,5.9,0,0,0-.61-8.31A5.83,5.83,0,0,0,449.58,356.07Z"/><path class="cls-2" d="M434.66,422.37a5.87,5.87,0,0,0,.61,8.3,5.62,5.62,0,0,0,2,1.13,5.72,5.72,0,0,0,1.86.31,5.89,5.89,0,1,0-4.46-9.74Z"/><path class="cls-2" d="M247.28,304.93a4.8,4.8,0,0,0,1.67,3.32,4.69,4.69,0,0,0,1.64.93,4.76,4.76,0,0,0,1.53.25,4.85,4.85,0,1,0-.36-9.68,4.77,4.77,0,0,0-3.31,1.66A4.82,4.82,0,0,0,247.28,304.93Z"/><path class="cls-2" d="M447.07,270.13a5.89,5.89,0,1,0-5.7,10.05,5.72,5.72,0,0,0,1.84.3l.44,0a5.88,5.88,0,0,0,4-2,5.91,5.91,0,0,0-.61-8.31Z"/><path class="cls-2" d="M322,436.72a4,4,0,0,0,2.64,2.81,3.87,3.87,0,0,0,1.26.21,3.81,3.81,0,0,0,1-.13,4,4,0,0,0,2.89-4.9,4,4,0,1,0-7.79,2Z"/><path class="cls-2" d="M556.65,563.39a4,4,0,1,0-4-4.52,4,4,0,0,0,2.72,4.31,4.08,4.08,0,0,0,.77.17A2.92,2.92,0,0,0,556.65,563.39Z"/><path class="cls-2" d="M519.53,613.83h0a4,4,0,0,0-6.47-3.67,4,4,0,0,0,1.2,7,4.18,4.18,0,0,0,.78.17l.5,0a4,4,0,0,0,4-3.53Z"/><path class="cls-2" d="M538.34,564.26h0a5.19,5.19,0,0,0,.78.18l.5,0a4,4,0,1,0-2.48-7.2,4,4,0,0,0-1.52,2.68,4,4,0,0,0,2.72,4.31Z"/><path class="cls-2" d="M540,593.89a4,4,0,0,0,.78.17,4.19,4.19,0,0,0,.5,0,4,4,0,0,0,2.46-.85,4,4,0,1,0-3.74.65Z"/><path class="cls-2" d="M547.69,609.27a4,4,0,1,0-7.17,2,4,4,0,0,0,1.9,1.35,4,4,0,0,0,.78.17,2.89,2.89,0,0,0,.5,0,4,4,0,0,0,4-3.53Z"/><path class="cls-2" d="M548.69,604.21l.51,0a4.08,4.08,0,1,0-1.28-.21A5.06,5.06,0,0,0,548.69,604.21Z"/><path class="cls-2" d="M576,601.35a4,4,0,0,0,1.52-2.67,4,4,0,0,0-3.5-4.49,4,4,0,0,0-3,.81,4,4,0,0,0,2,7.17,4.21,4.21,0,0,0,.5,0A4,4,0,0,0,576,601.35Z"/><path class="cls-2" d="M593.77,600.58a4,4,0,0,0,2.72,4.31,4.92,4.92,0,0,0,.78.18,4,4,0,0,0,1-8,4,4,0,0,0-4.49,3.5Z"/><path class="cls-2" d="M562.72,656.82l.5,0a4,4,0,0,0,4-3.53,4,4,0,0,0-6.47-3.67,4,4,0,0,0-.7,5.65,4,4,0,0,0,1.9,1.35A4.18,4.18,0,0,0,562.72,656.82Z"/><path class="cls-2" d="M581.46,656.41a2.92,2.92,0,0,0,.51,0,4,4,0,0,0,4-3.53,4,4,0,0,0-6.47-3.67,4,4,0,0,0,1.2,7A4.18,4.18,0,0,0,581.46,656.41Z"/><path class="cls-2" d="M613.26,613.58h0a4,4,0,1,0-1,8,4.19,4.19,0,0,0,.5,0,4,4,0,0,0,4-3.53A4,4,0,0,0,613.26,613.58Z"/><path class="cls-2" d="M559.61,635a4,4,0,0,0-4.48,3.5,3.93,3.93,0,0,0,.82,3,4,4,0,0,0,1.9,1.35,3.91,3.91,0,0,0,.77.17l.51,0a4,4,0,0,0,4-3.53A4,4,0,0,0,559.61,635Z"/><path class="cls-2" d="M556.68,669.47a4,4,0,0,0,2.47-.85,4,4,0,0,0,1.52-2.68,4,4,0,0,0-6.47-3.67,4,4,0,0,0-1.52,2.68,4,4,0,0,0,2.72,4.31,3.53,3.53,0,0,0,.78.18Z"/><path class="cls-2" d="M617.12,597.69h0l.51,0a4,4,0,0,0,4-3.53,4,4,0,1,0-5.26,3.32A3.45,3.45,0,0,0,617.12,597.69Z"/><path class="cls-2" d="M593.41,631.15a4,4,0,0,0-1.77,7.81,4.92,4.92,0,0,0,.78.18l.5,0a4,4,0,0,0,.49-8Z"/><path class="cls-2" d="M609.33,653.55a4.18,4.18,0,0,0,.78.17l.5,0a4,4,0,0,0,4-3.53,4,4,0,0,0-6.47-3.67,4,4,0,0,0,1.2,7Z"/><path class="cls-2" d="M607.54,681.5a4,4,0,0,0-1.77,7.81,3.4,3.4,0,0,0,.78.18,4.19,4.19,0,0,0,.5,0,4,4,0,0,0,.49-8Z"/><path class="cls-2" d="M512.67,640.42a4,4,0,0,0-1.77,7.82h0a4.36,4.36,0,0,0,.78.17l.5,0a4,4,0,0,0,4-3.53A4,4,0,0,0,512.67,640.42Z"/><path class="cls-2" d="M536.55,662a4.36,4.36,0,0,0,.78.17l.51,0a4,4,0,0,0,4-3.53,4,4,0,1,0-5.27,3.33Z"/><path class="cls-2" d="M585.54,604.36h0a4,4,0,1,0,1.77-7.81,3.92,3.92,0,0,0-3,.82,4,4,0,0,0,1.2,7Z"/><path class="cls-2" d="M552.64,742.89a7.25,7.25,0,0,0,1.45.33,7.54,7.54,0,0,0,.94.06,7.52,7.52,0,0,0,.91-15,7.53,7.53,0,0,0-8.38,6.53,7.52,7.52,0,0,0,5.08,8.06Z"/><path class="cls-2" d="M411,583.4a4,4,0,0,0-1.77,7.81,5.49,5.49,0,0,0,.78.18l.51,0a4,4,0,0,0,.48-8Z"/><path class="cls-2" d="M139.29,328.68a4.92,4.92,0,0,0,.78.18,4,4,0,0,0,1-8,4,4,0,0,0-4.49,3.5A4,4,0,0,0,139.29,328.68Z"/><path class="cls-2" d="M232.26,412.75a4,4,0,0,0-3.5-4.49,4,4,0,0,0-3.67,6.47,4,4,0,0,0,1.91,1.34,3.45,3.45,0,0,0,.77.18l.51,0a4,4,0,0,0,4-3.53Z"/><path class="cls-2" d="M347.92,328a4.28,4.28,0,1,0-2.69,8.12,4.24,4.24,0,0,0,3.27-.24,4.28,4.28,0,0,0-.58-7.88Z"/><path class="cls-2" d="M428.29,387.89h0a3.73,3.73,0,0,0-.9,7.26,3.85,3.85,0,0,0,1.16.18h.28a3.72,3.72,0,0,0-.54-7.43Z"/><path class="cls-2" d="M239.5,279.05a4.82,4.82,0,0,0,3.23,1.2h.37a4.94,4.94,0,0,0,2.87-8.67,4.95,4.95,0,0,0-7,.51,4.94,4.94,0,0,0,.51,7Z"/><path class="cls-2" d="M472.05,288.05a5.89,5.89,0,0,0,2,4,5.74,5.74,0,0,0,3.83,1.43h.44a5.9,5.9,0,0,0,5.45-6.31,5.91,5.91,0,0,0-6.3-5.44A5.9,5.9,0,0,0,472.05,288.05Z"/><path class="cls-2" d="M190.63,222.81a3.45,3.45,0,0,0,.77.18l.51,0a4,4,0,0,0,.48-8,4,4,0,0,0-3.67,6.47A4,4,0,0,0,190.63,222.81Z"/><path class="cls-2" d="M172,288.11a4,4,0,0,0-.25,7.72,4.2,4.2,0,0,0,1.26.2,3.83,3.83,0,0,0,1-.13,4,4,0,0,0,2.46-1.85,4,4,0,0,0-1.43-5.51A4,4,0,0,0,172,288.11Z"/><path class="cls-2" d="M546.28,656.12h0a4.2,4.2,0,0,0,1.26.2,3.83,3.83,0,0,0,1-.13,4,4,0,0,0,1-7.36,4,4,0,0,0-3.05-.43,4,4,0,0,0-.25,7.72Z"/><path class="cls-2" d="M537,384.72a6.9,6.9,0,1,0,3.18,4.22A6.85,6.85,0,0,0,537,384.72Z"/><path class="cls-2" d="M513.49,377.54a6.91,6.91,0,1,0-7,11.9,7.49,7.49,0,0,0,1.35.62,6.91,6.91,0,0,0,5.67-12.52Z"/><path class="cls-2" d="M496.28,301.05a6.91,6.91,0,1,0-5.67,12.52,7.13,7.13,0,0,0,2.17.35,7.75,7.75,0,0,0,6.14-3.33C500.57,306.86,499.48,302.94,496.28,301.05Z"/><path class="cls-2" d="M287.28,307.86a4,4,0,0,0,2.2,5.86,3.92,3.92,0,0,0,1.26.21,4.3,4.3,0,0,0,1-.13,4,4,0,0,0,2.89-4.91,4,4,0,0,0-1.86-2.45,4,4,0,0,0-3-.44A4,4,0,0,0,287.28,307.86Z"/><path class="cls-2" d="M338.5,294.63a4,4,0,1,0-3.31,7.28,3.92,3.92,0,0,0,1.26.21,3.83,3.83,0,0,0,1-.13,4,4,0,0,0,2.46-1.85,4,4,0,0,0-1.42-5.51Z"/><path class="cls-2" d="M378.7,284.24a4,4,0,0,0,1.42,5.51,3.76,3.76,0,0,0,.79.36,4,4,0,0,0,1.25.2,3.83,3.83,0,0,0,1-.13,4,4,0,1,0-2-7.79A4,4,0,0,0,378.7,284.24Z"/><path class="cls-2" d="M374.9,336.52h0a4.1,4.1,0,0,0,.77.18,4.36,4.36,0,0,0,.51,0,4,4,0,0,0,2.46-.85,4,4,0,1,0-4.94-6.35,4,4,0,0,0-1.52,2.68,4,4,0,0,0,2.72,4.31Z"/><path class="cls-2" d="M489.05,382.4a4,4,0,0,0-1.77,7.81,4.92,4.92,0,0,0,.78.18,4,4,0,0,0,3.67-6.47A4,4,0,0,0,489.05,382.4Z"/><path class="cls-2" d="M368.58,361.52a4,4,0,0,0,1.52-2.68,4,4,0,0,0-6.47-3.67,4,4,0,0,0,1.21,7,3.92,3.92,0,0,0,1.27.2A4,4,0,0,0,368.58,361.52Z"/><path class="cls-2" d="M212.05,420.11a4,4,0,0,0,1.27.21,4,4,0,0,0,2.47-.85,4,4,0,1,0-4.94-6.35,4,4,0,0,0-1.52,2.68,4,4,0,0,0,2.72,4.31Z"/><path class="cls-2" d="M254.55,387.77a3.93,3.93,0,0,0-.82-3,4,4,0,0,0-5.64-.7,4,4,0,0,0,2.47,7.2,4,4,0,0,0,4-3.53Z"/><path class="cls-2" d="M529,679.67h0a7.75,7.75,0,0,0,1.5.34,7.89,7.89,0,0,0,1,.06,7.76,7.76,0,1,0-2.47-.4Z"/><path class="cls-2" d="M323.77,333.05a4,4,0,0,0,5.26-3.32,4,4,0,0,0-3.5-4.49,4,4,0,0,0-1.76,7.81Z"/><path class="cls-2" d="M517.56,317.12a6.17,6.17,0,0,0-2.71,12,6.27,6.27,0,0,0,2,.31,6.16,6.16,0,0,0,.75-12.28Z"/><path class="cls-2" d="M462.19,812.82a6.89,6.89,0,1,0-5.24-.73,7.38,7.38,0,0,0,1.35.61,7,7,0,0,0,3.89.12Z"/><path class="cls-2" d="M445.24,867.62a6.91,6.91,0,0,0-7,11.9,6.57,6.57,0,0,0,1.35.61,6.8,6.8,0,0,0,2.14.35,7.34,7.34,0,0,0,1.74-.22,6.91,6.91,0,0,0,1.78-12.64Z"/><path class="cls-2" d="M462.85,894a6.9,6.9,0,1,0,3.18,4.22A6.87,6.87,0,0,0,462.85,894Z"/><path class="cls-2" d="M495.76,676.27a6.91,6.91,0,0,0-8.41-5A6.91,6.91,0,0,0,485.57,684a6.78,6.78,0,0,0,5.23.73A6.9,6.9,0,0,0,495.76,676.27Z"/><path class="cls-2" d="M476,761.9a5.77,5.77,0,0,0,1.84.3l.45,0a5.89,5.89,0,1,0-4.89-9.72,5.9,5.9,0,0,0,.61,8.31A5.8,5.8,0,0,0,476,761.9Z"/><path class="cls-2" d="M511.84,840.84a5.89,5.89,0,1,0-7.7,8.91,6,6,0,0,0,2,1.14,6.1,6.1,0,0,0,1.84.29h.45a5.89,5.89,0,0,0,3.42-10.33Z"/><path class="cls-2" d="M485.2,813.39a5.88,5.88,0,0,0,3.83,1.43l.45,0a5.89,5.89,0,1,0-4.89-9.72A5.9,5.9,0,0,0,485.2,813.39Z"/><path class="cls-2" d="M410.8,242.11a6,6,0,0,0,2,1.14,5.76,5.76,0,0,0,1.84.29h.44a5.89,5.89,0,1,0-4.28-1.42Z"/><path class="cls-2" d="M485.62,262.65a5.79,5.79,0,0,0,3.84,1.43h.44a5.89,5.89,0,0,0,4-2,5.9,5.9,0,0,0-.61-8.3,5.87,5.87,0,0,0-4.28-1.42,5.91,5.91,0,0,0-5.44,6.3A5.88,5.88,0,0,0,485.62,262.65Z"/><path class="cls-2" d="M541.37,321.33a5.78,5.78,0,0,0,2,1.14,6,6,0,0,0,1.84.29h.44a5.89,5.89,0,1,0-4.28-1.42Z"/><path class="cls-2" d="M574,460.59a5.89,5.89,0,0,0-8.31.6,5.9,5.9,0,0,0,2.61,9.45,6,6,0,0,0,1.84.29h.44A5.89,5.89,0,0,0,574,460.59Z"/><path class="cls-2" d="M534.5,801.86a6.71,6.71,0,1,0-4.22,12.73,6.71,6.71,0,0,0,8.48-4.26,6.72,6.72,0,0,0-4.26-8.47Z"/><path class="cls-2" d="M506.1,781.45h0a6.17,6.17,0,1,0-11,3,6.17,6.17,0,0,0,2.92,2.06,6.27,6.27,0,0,0,2,.32,6.19,6.19,0,0,0,6.12-5.41Z"/><path class="cls-2" d="M395.52,270.69a4,4,0,0,0,2.72,4.32,4.36,4.36,0,0,0,.78.17l.51,0a4,4,0,0,0,4-3.53,4,4,0,1,0-8-1Z"/><path class="cls-2" d="M492.08,585.46A4,4,0,0,0,494,587.9a4.17,4.17,0,0,0,.75.33,4.09,4.09,0,0,0,1.25.2,4.29,4.29,0,0,0,1.06-.14,4,4,0,1,0-4.94-2.83Z"/><path class="cls-2" d="M534.73,599.93a4,4,0,0,0,.4-3,4,4,0,0,0-1.89-2.44,4,4,0,0,0-3-.39,4,4,0,0,0-2.83,4.94,4,4,0,0,0,1.88,2.43,4.46,4.46,0,0,0,.74.34,4,4,0,0,0,2.31.06A4,4,0,0,0,534.73,599.93Z"/><path class="cls-2" d="M547.37,419.78a4,4,0,0,0-4,7,5.4,5.4,0,0,0,.74.33,4.15,4.15,0,0,0,1.26.2,4.29,4.29,0,0,0,1.06-.14,4,4,0,0,0,2.83-4.94A4,4,0,0,0,547.37,419.78Z"/><path class="cls-2" d="M148.49,451.3a4.41,4.41,0,0,0,.74.33,4,4,0,0,0,1.26.2,4,4,0,0,0,3.89-5.07,4,4,0,0,0-4.94-2.84,4,4,0,0,0-.95,7.38Z"/><path class="cls-2" d="M175.42,384.44h0a4,4,0,0,0-.39,3.06,4,4,0,0,0,1.89,2.44,4.5,4.5,0,0,0,.74.33,4.13,4.13,0,0,0,1.25.2,4.23,4.23,0,0,0,1.06-.14,4,4,0,1,0-4.55-5.89Z"/><path class="cls-2" d="M198.51,346.54a4,4,0,0,0,1.88,2.44,5,5,0,0,0,.75.33,4,4,0,0,0,1.25.2,4.29,4.29,0,0,0,1.06-.14,4,4,0,0,0,2.83-4.94,4,4,0,0,0-7.38-.95A4,4,0,0,0,198.51,346.54Z"/><path class="cls-2" d="M480.6,664.4a5.18,5.18,0,1,0-4.63,7.53,5.19,5.19,0,0,0,4.63-7.53Z"/><path class="cls-2" d="M546.84,721.89a7.72,7.72,0,1,0-9.75,4.9,7.71,7.71,0,0,0,9.75-4.9Z"/><path class="cls-2" d="M457.59,732.81a4.92,4.92,0,1,0-.66-9.07h0a4.92,4.92,0,0,0,.68,9.06Z"/><path class="cls-2" d="M411.22,692.64a6,6,0,0,0,1.84.29h.44a5.9,5.9,0,0,0,5.44-6.31,5.89,5.89,0,0,0-11.74.86A5.88,5.88,0,0,0,411.22,692.64Z"/><path class="cls-2" d="M497.39,554.75a5.72,5.72,0,0,0,1.84.3l.43,0a5.9,5.9,0,0,0,5.45-6.3,5.89,5.89,0,1,0-7.72,6Z"/><path class="cls-2" d="M393,702.87a5.88,5.88,0,0,0-10.32-3.42,5.9,5.9,0,0,0,.6,8.31,5.79,5.79,0,0,0,3.84,1.43,3.24,3.24,0,0,0,.44,0,5.87,5.87,0,0,0,5.44-6.3Z"/><path class="cls-2" d="M438.22,682a4,4,0,0,0-2.68-1.52,4,4,0,0,0-1.77,7.81,5.19,5.19,0,0,0,.78.18l.5,0a4,4,0,0,0,3.17-6.5Z"/><path class="cls-2" d="M500.92,740.78a4,4,0,1,0-5.5,1.49,5,5,0,0,0,.75.33,4,4,0,0,0,1.25.2,4.29,4.29,0,0,0,1.06-.14A4,4,0,0,0,500.92,740.78Z"/><path class="cls-2" d="M567.64,697.12a6.07,6.07,0,0,0,1.92.31,6.14,6.14,0,1,0-2.75-11.63,6.07,6.07,0,0,0-3.07,3.56A6.14,6.14,0,0,0,567.64,697.12Z"/><path class="cls-2" d="M536.2,762.56a5.72,5.72,0,0,0,1.78.29,5.69,5.69,0,0,0,5.36-3.88,5.65,5.65,0,1,0-7.14,3.59Z"/><path class="cls-2" d="M522.79,778.06a5.88,5.88,0,1,0-3.86,10.34,3.17,3.17,0,0,0,.44,0,5.88,5.88,0,0,0,3.42-10.32Z"/><path class="cls-2" d="M576.6,745.52h0a4,4,0,0,0-3,.82,4,4,0,0,0-1.52,2.68,4,4,0,0,0,2.73,4.31,3.92,3.92,0,0,0,.77.18,4.19,4.19,0,0,0,.5,0,4,4,0,0,0,.49-8Z"/><path class="cls-2" d="M561.26,747a4,4,0,0,0-1.76,7.82,3.91,3.91,0,0,0,.77.17,4.19,4.19,0,0,0,.5,0,4,4,0,0,0,.49-8Z"/><path class="cls-2" d="M571.16,766.85a4,4,0,0,0-1.76,7.81,4.08,4.08,0,0,0,.77.17,2.89,2.89,0,0,0,.5,0,4,4,0,0,0,.49-8Z"/><path class="cls-2" d="M547.32,809.39h0a4,4,0,0,0-1.76,7.81,4.1,4.1,0,0,0,.77.18l.5,0a4,4,0,0,0,2.47-.85,4,4,0,0,0-2-7.17Z"/><path class="cls-2" d="M529.93,828.79a4,4,0,0,0-1.76,7.82,3.76,3.76,0,0,0,.77.17,4,4,0,0,0,1-8Z"/><path class="cls-2" d="M493.25,825.13a4,4,0,0,0-1.76,7.81,4.08,4.08,0,0,0,.77.17l.5,0a4,4,0,0,0,4-3.53A4,4,0,0,0,493.25,825.13Z"/><path class="cls-2" d="M571.08,729.13a4.15,4.15,0,0,0,1.18,7.17,3.32,3.32,0,0,0,.77.18,4.19,4.19,0,0,0,.5,0,4,4,0,0,0,2.43-.84,4.14,4.14,0,0,0-1.94-7.35A4,4,0,0,0,571.08,729.13Z"/><path class="cls-2" d="M579.44,704.8a4.11,4.11,0,0,0-3.5-4.59A4,4,0,0,0,573,701a4.14,4.14,0,0,0,1.17,7.17,3.21,3.21,0,0,0,.77.18,4.19,4.19,0,0,0,.5,0,4,4,0,0,0,2.44-.84A4.12,4.12,0,0,0,579.44,704.8Z"/><path class="cls-2" d="M604.62,694.28a3.94,3.94,0,0,0-2.93.82,4.09,4.09,0,0,0-1.56,2.76,4.15,4.15,0,0,0,2.73,4.41,4.08,4.08,0,0,0,.77.17,2.92,2.92,0,0,0,.51,0,3.91,3.91,0,0,0,2.43-.85,4.14,4.14,0,0,0-2-7.35Z"/><path class="cls-2" d="M589.69,665.45h0a3.45,3.45,0,0,0,.77.18l.51,0a4,4,0,0,0,2.43-.84,4.14,4.14,0,0,0-1.94-7.35,4,4,0,0,0-2.94.81,4.16,4.16,0,0,0,1.17,7.17Z"/><path class="cls-2" d="M556.86,706.9a4.07,4.07,0,0,0,.5,0,4,4,0,0,0,2.43-.84,4.14,4.14,0,0,0-1.94-7.35,4,4,0,0,0-2.94.82,4,4,0,0,0-1.55,2.76,4.13,4.13,0,0,0,2.72,4.41A4,4,0,0,0,556.86,706.9Z"/><path class="cls-2" d="M512.09,747.61a4.12,4.12,0,0,0,2.73,4.4,3.45,3.45,0,0,0,.77.18,4.19,4.19,0,0,0,.5,0,4,4,0,0,0,2.44-.84,4.14,4.14,0,0,0-1.95-7.35,4,4,0,0,0-2.93.81A4.14,4.14,0,0,0,512.09,747.61Z"/><path class="cls-2" d="M466.2,748.38a4,4,0,1,0-5.26,3.32,3.92,3.92,0,0,0,.77.18l.5,0a4,4,0,0,0,2.47-.85A4,4,0,0,0,466.2,748.38Z"/><path class="cls-2" d="M437.07,808.63a4.56,4.56,0,0,0,.77.18l.5,0a4.06,4.06,0,0,0,2.47-.85,4,4,0,0,0-4.95-6.35,4,4,0,0,0-1.52,2.67A4,4,0,0,0,437.07,808.63Z"/><path class="cls-2" d="M455.15,823.7a4,4,0,0,0-6.47-3.67,4,4,0,0,0-1.52,2.68,4,4,0,0,0,2.73,4.32,4.08,4.08,0,0,0,.77.17l.5,0a4,4,0,0,0,4-3.53Z"/><path class="cls-2" d="M513.75,819.21A4,4,0,0,0,512,827a4.08,4.08,0,0,0,.77.17l.51,0a4,4,0,0,0,4-3.53,4,4,0,0,0-.82-3A4,4,0,0,0,513.75,819.21Z"/><path class="cls-2" d="M464.31,849.73a4,4,0,0,0-4.49,3.5,4,4,0,0,0,3.5,4.49l.51,0a4,4,0,0,0,.48-8Z"/><path class="cls-2" d="M502.8,693a4,4,0,0,0,2.46-1.85,4,4,0,0,0-6.93-4.09,4,4,0,0,0,2.2,5.87,4.2,4.2,0,0,0,1.26.2A3.83,3.83,0,0,0,502.8,693Z"/><path class="cls-2" d="M517.82,694.73h0a3.92,3.92,0,0,0,1.26.21,3.83,3.83,0,0,0,1-.13,4,4,0,0,0,2.89-4.9,4,4,0,0,0-4.91-2.89,3.94,3.94,0,0,0-2.45,1.85,4,4,0,0,0,2.2,5.86Z"/><path class="cls-2" d="M476.69,827.8h0a3.85,3.85,0,0,0,1.25.2,4,4,0,0,0,3.5-2,4,4,0,1,0-5.49,1.49A4.5,4.5,0,0,0,476.69,827.8Z"/><path class="cls-2" d="M504.17,489.38a5,5,0,0,0,.75.33,4,4,0,0,0,1.25.2,4.29,4.29,0,0,0,1.06-.14,4,4,0,1,0-3.06-.39Z"/><path class="cls-2" d="M476.65,687.68a4,4,0,0,0-4,7,4.17,4.17,0,0,0,.75.33,3.8,3.8,0,0,0,1.25.2,3.86,3.86,0,0,0,1.06-.14,4,4,0,0,0,2.83-4.94A4,4,0,0,0,476.65,687.68Z"/><path class="cls-2" d="M224.47,299.33a5.38,5.38,0,0,0-1.27,9.86,5.15,5.15,0,0,0,1,.44,5.38,5.38,0,1,0,.28-10.3Z"/><path class="cls-2" d="M254.21,230.14a5.4,5.4,0,0,0,.74.33,4.15,4.15,0,0,0,1.26.2,4.29,4.29,0,0,0,1.06-.14,4,4,0,0,0,2.43-1.88,4,4,0,0,0,.39-3.06,4,4,0,1,0-5.88,4.55Z"/><path class="cls-2" d="M406.21,710.49a5.51,5.51,0,1,0-7.51,2,4.88,4.88,0,0,0,1,.46,5.6,5.6,0,0,0,1.71.27A5.52,5.52,0,0,0,406.21,710.49Z"/><path class="cls-2" d="M294.3,185.13a4.21,4.21,0,0,0,.75.34,4,4,0,0,0,1.25.2,3.88,3.88,0,0,0,1.06-.15,4,4,0,0,0,.95-7.37,4,4,0,0,0-3.06-.39,4,4,0,0,0-.95,7.37Z"/></svg>