<svg id="Layer_1" data-name="Layer 1" xmlns="http://www.w3.org/2000/svg" viewBox="0 0 832 454"><defs><style>.cls-1{fill:#2d2d2d;}.cls-2{fill:#fff;}</style></defs><rect class="cls-1" x="-19.04" y="-20.96" width="872.39" height="497.34"/><path class="cls-2" d="M667.71,260.37,658.05,255l1.1,2.53a64.93,64.93,0,0,1-17.6-7.66c-12.43-7.4-23.73-17.28-36.58-32V81.74L481.53,127.27l-1.12.41v142.6a174.66,174.66,0,0,1-11.58,13.13V81.74L345.4,127.27l-1.12.41v50.4a86.08,86.08,0,0,0-11.58-15.17V81.74L209.26,127.27l-1.12.41V219.6c-12.55,9.43-27.71,16.74-43.7,15.36l-.3,3.4c1.42.13,2.83.19,4.23.19,14.53,0,28.18-6.41,39.77-14.71V326.32L332.7,372.26V168a95.58,95.58,0,0,1,11.58,17V326.32l124.55,45.94v-84a158.76,158.76,0,0,0,11.58-12.55v50.64L605,372.26V223.05c12,13.43,22.92,22.71,34.83,29.8a67.74,67.74,0,0,0,19,8.17l-1.73,2.31ZM329.27,162.44l-.92,1,.92.9v203L211.56,323.93V221.29a141.81,141.81,0,0,0,15.28-13.8c6.39-6.62,11.7-14.33,16.83-21.78,5.62-8.14,11.42-16.55,18.57-23.41l.44,2.75,5.28-9.69-10.55,3.23,2.71,1c-7.52,7.14-13.49,15.78-19.26,24.16-5.06,7.34-10.29,14.92-16.48,21.34a143,143,0,0,1-12.82,11.82V130.07L329.27,86.65ZM465.41,286.77l-.45.42.45.48v79.68L347.7,323.93V191.54c4.76,9.77,8.7,20.2,12.39,30,2.76,7.29,5.36,14.17,8.13,20.43.51,1.14,1,2.29,1.53,3.47,7.46,16.94,15.92,36.14,29.67,49.16.82.78,1.66,1.51,2.5,2.23L399.27,298,410,300.56l-.89,1.46c.52.31,1,.61,1.54.89l1.66-3c-.48-.26-1-.54-1.43-.83l-.88,1.47-5.87-9.35-.27,2.77c-.7-.61-1.4-1.23-2.09-1.88-13.26-12.55-21.57-31.42-28.9-48.06l-1.53-3.47c-2.73-6.18-5.32-13-8.06-20.26C358.8,208.42,354,195.6,347.7,184v-54L465.41,86.65Zm136.13-68.66-.52.45.52.61V367.35L483.83,323.93V271.47c6.8-8.54,12.86-17.36,18.15-25.06,1.87-2.72,3.63-5.29,5.26-7.59,2.88-4.08,5.66-8.61,8.61-13.41,7.07-11.5,14.39-23.39,24.29-31.28l1.28-1v2.75l6.74-8.74-10.93,1.53,2.53,1.44c-.59.43-1.17.87-1.75,1.33-10.38,8.25-18.18,20.95-25.07,32.16-2.92,4.75-5.68,9.23-8.5,13.23-1.64,2.31-3.41,4.89-5.28,7.62-4.55,6.63-9.67,14.07-15.33,21.45V130.07L601.54,86.65Z"/><path class="cls-2" d="M550.36,188.09l-1.25-3.19c-.55.22-1.11.45-1.66.7l.71,1.56.71,1.56C549.36,188.5,549.86,188.28,550.36,188.09Z"/><path class="cls-2" d="M589.93,205.3l2.58-2.24c-.79-.92-1.58-1.8-2.33-2.62l-2.52,2.31C588.39,203.55,589.15,204.41,589.93,205.3Z"/><path class="cls-2" d="M582.62,193c-.92-.79-1.85-1.54-2.76-2.24l-2.07,2.73c.85.65,1.73,1.36,2.61,2.11Z"/><path class="cls-2" d="M598.76,215.91l2.62-2.2c-.74-.88-1.48-1.76-2.21-2.65l-2.64,2.19Z"/><path class="cls-2" d="M593.28,209.3l1.05,1.28L597,208.4l-1-1.26-1.16-1.42-2.63,2.19Z"/><path class="cls-2" d="M585.32,200.27l2.45-2.39c-.84-.86-1.69-1.69-2.52-2.47l-2.35,2.49C583.7,198.65,584.51,199.45,585.32,200.27Z"/><path class="cls-2" d="M576.94,188.74c-1-.68-2.07-1.3-3.09-1.85l-1.63,3c.94.51,1.89,1.09,2.84,1.71Z"/><path class="cls-2" d="M563.58,183.26a26.9,26.9,0,0,0-3.67-.33l-.08,3.42a23.35,23.35,0,0,1,3.21.29Z"/><path class="cls-2" d="M556.62,186.5l-.4-3.4a27.1,27.1,0,0,0-3.62.68l.85,3.31A23.53,23.53,0,0,1,556.62,186.5Z"/><path class="cls-2" d="M570.59,185.31a31.37,31.37,0,0,0-3.43-1.23l-1,3.28a29,29,0,0,1,3.07,1.1Z"/><path class="cls-2" d="M270.3,155.87l-1.83-2.9c-.5.32-1,.64-1.48,1l1.93,2.82Q269.61,156.31,270.3,155.87Z"/><path class="cls-2" d="M276.12,152.81l-1.34-3.14c-1.08.46-2.17,1-3.22,1.53l1.59,3C274.12,153.72,275.12,153.24,276.12,152.81Z"/><path class="cls-2" d="M302.65,146.79c-1.17-.19-2.34-.36-3.5-.48l-.37,3.4c1.09.12,2.2.27,3.3.46Z"/><path class="cls-2" d="M322.35,154.38c-1-.64-2-1.25-3-1.81l-1.65,3c1,.53,1.91,1.1,2.84,1.7Z"/><path class="cls-2" d="M328,158.58c-.9-.76-1.84-1.5-2.77-2.19l-2,2.75c.88.65,1.76,1.35,2.61,2.06Z"/><path class="cls-2" d="M316.15,151c-1.07-.5-2.16-1-3.26-1.39l-1.23,3.2c1,.39,2,.83,3,1.29Z"/><path class="cls-2" d="M309.54,148.42c-1.12-.35-2.27-.66-3.42-.93l-.79,3.33c1.08.25,2.16.55,3.2.87Z"/><path class="cls-2" d="M288.86,149.62l-.32-3.41c-1.17.11-2.36.27-3.52.46l.57,3.38C286.67,149.86,287.77,149.72,288.86,149.62Z"/><path class="cls-2" d="M293.22,149.41c.73,0,1.5,0,2.25.05l.16-3.42c-.78,0-1.57,0-2.33,0h-1.22l.08,3.42Z"/><path class="cls-2" d="M282.36,150.72l-.83-3.32c-1.15.29-2.3.62-3.42,1l1.09,3.24C280.24,151.3,281.3,151,282.36,150.72Z"/><path class="cls-2" d="M452.93,300.79l-1.77-2.93c-1,.6-2,1.18-3,1.7l1.6,3C450.79,302,451.86,301.43,452.93,300.79Z"/><path class="cls-2" d="M446.43,304.19,445,301.07c-1.06.47-2.14.9-3.19,1.28l1.16,3.22C444.14,305.16,445.29,304.7,446.43,304.19Z"/><path class="cls-2" d="M464.6,292.13l-2.25-2.57c-.88.77-1.78,1.53-2.67,2.25l2.15,2.66C462.76,293.72,463.69,292.93,464.6,292.13Z"/><path class="cls-2" d="M459,296.7,456.92,294c-.94.71-1.9,1.39-2.84,2l1.92,2.84C457,298.15,458,297.44,459,296.7Z"/><path class="cls-2" d="M418.54,302.72c-1.05-.37-2.12-.79-3.16-1.27L414,304.57c1.14.52,2.3,1,3.45,1.38Z"/><path class="cls-2" d="M425.14,304.3a31.68,31.68,0,0,1-3.34-.63L421,307c1.22.29,2.45.52,3.68.69Z"/><path class="cls-2" d="M432.14,307.92l-.25-3.42c-.79.06-1.6.09-2.39.09-.33,0-.66,0-1,0L428.4,308h1.05C430.33,308,431.24,308,432.14,307.92Z"/><path class="cls-2" d="M439.47,306.67l-.88-3.31c-1.11.3-2.22.54-3.33.73l.58,3.38C437.05,307.26,438.27,307,439.47,306.67Z"/></svg>