<svg id="Layer_1" data-name="Layer 1" xmlns="http://www.w3.org/2000/svg" viewBox="0 0 544 362"><defs><style>.cls-1{fill:#fff;}.cls-2,.cls-3{fill:none;stroke:#000;stroke-linejoin:bevel;stroke-width:3px;}.cls-2{stroke-linecap:round;}.cls-3{stroke-linecap:square;}</style></defs><rect class="cls-1" y="0.11" width="544" height="362"/><polygon class="cls-2" points="289.6 286.34 206.56 243.12 206.56 133.12 289.6 176.34 289.6 286.34"/><polyline class="cls-2" points="289.6 286.34 323.05 276.14 323.05 166.14 240.01 122.92 206.56 133.12"/><line class="cls-2" x1="323.05" y1="166.14" x2="289.6" y2="176.34"/><path class="cls-2" d="M229.34,125.25V102.51c0-29.73,19.52-44.66,40.3-36.69,40.29,15.45,40.29,60.43,40.29,82.69V170"/><path class="cls-2" d="M217.61,128.85V102.51c0-29.73,19.52-44.66,40.3-36.69,40.3,15.45,40.3,60.43,40.3,82.69v23.93"/><polyline class="cls-2" points="228.44 212.12 238.72 225.45 264.51 198.8"/><line class="cls-3" x1="466.76" y1="167.55" x2="445.05" y2="150.18"/><polyline class="cls-3" points="440.38 181.34 484 181.34 474.57 173.8"/><line class="cls-3" x1="393.93" y1="181.34" x2="430.38" y2="181.34"/><line class="cls-3" x1="352.22" y1="181.34" x2="383.93" y2="181.34"/><polyline class="cls-2" points="484 209.87 352.22 209.87 391.17 241.03"/><line class="cls-3" x1="61.46" y1="223.65" x2="83.17" y2="241.03"/><polyline class="cls-3" points="87.84 209.87 44.22 209.87 53.65 217.4"/><line class="cls-3" x1="134.29" y1="209.87" x2="97.84" y2="209.87"/><line class="cls-3" x1="176" y1="209.87" x2="144.29" y2="209.87"/><polyline class="cls-2" points="44.22 181.34 176 181.34 137.05 150.18"/></svg>