<svg id="Layer_1" data-name="Layer 1" xmlns="http://www.w3.org/2000/svg" viewBox="0 0 544 362"><defs><style>.cls-1{fill:#fff;}.cls-2,.cls-3,.cls-4,.cls-5,.cls-6{fill:none;stroke:#000;}.cls-2,.cls-3,.cls-4,.cls-6{stroke-linecap:round;}.cls-2,.cls-3,.cls-4,.cls-5{stroke-miterlimit:10;}.cls-2,.cls-3,.cls-4{stroke-width:4px;}.cls-3{stroke-dasharray:0 8.04;}.cls-4{stroke-dasharray:0 8.04;}.cls-5,.cls-6{stroke-width:3px;}.cls-6{stroke-linejoin:bevel;}</style></defs><rect class="cls-1" y="0.11" width="544" height="362"/><line class="cls-2" x1="102.8" y1="223.1" x2="102.8" y2="223.1"/><path class="cls-3" d="M102.8,215.06V136.31A81.19,81.19,0,0,1,184,55.13c39.7,0,72.73,27.21,79.79,64.71"/><line class="cls-2" x1="264.41" y1="123.81" x2="264.41" y2="123.81"/><line class="cls-2" x1="455.48" y1="123.11" x2="455.48" y2="123.11"/><path class="cls-4" d="M455.48,131.15v98.09A81.19,81.19,0,0,1,309,277.51"/><line class="cls-2" x1="306.71" y1="274.22" x2="306.71" y2="274.22"/><circle class="cls-5" cx="455.49" cy="79.67" r="38.2"/><polyline class="cls-6" points="433.96 82.54 446.23 98.45 477.02 66.64"/><rect class="cls-5" x="64.41" y="202.12" width="76.78" height="128.93" transform="translate(-163.79 369.39) rotate(-90)"/><rect class="cls-5" x="56.3" y="249.69" width="33.8" height="33.8"/><rect class="cls-5" x="115.5" y="249.69" width="33.8" height="33.8"/><polyline class="cls-6" points="64.3 260.33 76.57 276.24 107.36 244.43"/><polygon class="cls-6" points="289.32 273.96 192.55 223.13 192.55 143.51 289.32 194.34 289.32 273.96"/><polyline class="cls-6" points="289.32 273.96 345.97 258.62 345.97 179 249.2 128.17 192.55 143.51"/><line class="cls-6" x1="345.97" y1="179" x2="289.32" y2="194.34"/><polygon class="cls-6" points="279.64 177.13 233.25 152.89 258.56 145.47 304.95 169.72 279.64 177.13"/><line class="cls-2" x1="265.16" y1="155.26" x2="265.16" y2="155.26"/><line class="cls-2" x1="265.16" y1="162.61" x2="265.16" y2="162.61"/><circle cx="264.76" cy="142.04" r="2.02"/><circle cx="264.9" cy="131.12" r="2.02"/></svg>