<svg id="Layer_1" data-name="Layer 1" xmlns="http://www.w3.org/2000/svg" viewBox="0 0 544 362"><defs><style>.cls-1,.cls-4{fill:#fff;}.cls-2,.cls-3{fill:none;}.cls-2,.cls-3,.cls-4,.cls-5{stroke:#000;stroke-width:3px;}.cls-2,.cls-4,.cls-5{stroke-miterlimit:10;}.cls-3{stroke-linecap:square;stroke-linejoin:bevel;}</style></defs><rect class="cls-1" y="0.62" width="544" height="362"/><rect class="cls-2" x="148" y="229" width="56" height="92" transform="translate(451 99) rotate(90)"/><rect class="cls-2" x="216" y="271" width="20" height="8" transform="translate(501 49) rotate(90)"/><rect class="cls-2" x="182.5" y="265.5" width="38" height="19" transform="translate(476.5 73.5) rotate(90)"/><rect class="cls-2" x="157.5" y="265.5" width="38" height="19" transform="translate(451.5 98.5) rotate(90)"/><rect class="cls-2" x="132.5" y="265.5" width="38" height="19" transform="translate(426.5 123.5) rotate(90)"/><polyline class="cls-2" points="116 61 116 45 156 45"/><polyline class="cls-2" points="220 61 220 45 168 45"/><line class="cls-2" x1="220" y1="69" x2="220" y2="115"/><polyline class="cls-2" points="220 125 220 195.93 348.07 195.93 348.07 219.26"/><polyline class="cls-2" points="116 171 116 185 182 185 182 247"/><circle class="cls-2" cx="117" cy="116" r="23"/><path class="cls-2" d="M172,123V109l-10.79-1.35a44.57,44.57,0,0,0-7-17l6.67-8.58-9.9-9.9-8.58,6.67a44.57,44.57,0,0,0-17-7L124,61H110l-1.35,10.79a44.57,44.57,0,0,0-17,7l-8.58-6.67-9.9,9.9,6.67,8.58a44.57,44.57,0,0,0-7,17L62,109v14l10.79,1.35a44.57,44.57,0,0,0,7,17l-6.67,8.58,9.9,9.9,8.58-6.67a44.57,44.57,0,0,0,17,7L110,171h14l1.35-10.79a44.57,44.57,0,0,0,17-7l8.58,6.67,9.9-9.9-6.67-8.58a44.57,44.57,0,0,0,7-17Z"/><line class="cls-2" x1="130" y1="275" x2="100" y2="275"/><polyline class="cls-2" points="90 275 60 275 60 265"/><polyline class="cls-2" points="76 137 60 137 60 147"/><line class="cls-2" x1="60" y1="157" x2="60" y2="199"/><line class="cls-2" x1="60" y1="209" x2="60" y2="255"/><rect class="cls-2" x="258" y="45" width="84" height="108"/><rect class="cls-2" x="260" y="71" width="80" height="56" transform="translate(399 -201) rotate(90)"/><polyline class="cls-2" points="342 70.58 448 70.58 448 101"/><polygon class="cls-2" points="484 205 416 189 416 109 484 93 484 205"/><polyline class="cls-3" points="464 113 434 120.56 464 128.11 464 128.11 434 135.67 464 143.22 464 143.22 434 150.78 464 158.33 464 158.33 434 165.89 464 173.44 464 173.44 434 181"/><polyline class="cls-2" points="448 197 448 275 230 275"/><circle class="cls-4" cx="348.07" cy="274.26" r="55"/><polygon class="cls-5" points="346.63 277.27 331.57 251.26 349.57 275.26 346.63 277.27"/><line class="cls-2" x1="374.15" y1="308.46" x2="381.21" y2="318.16"/><line class="cls-2" x1="389.27" y1="286.59" x2="400.69" y2="290.3"/><line class="cls-2" x1="388.65" y1="260.02" x2="400.07" y2="256.31"/><line class="cls-2" x1="372.53" y1="238.88" x2="379.59" y2="229.17"/><line class="cls-2" x1="321.98" y1="240.06" x2="314.93" y2="230.35"/><line class="cls-2" x1="306.86" y1="261.92" x2="295.45" y2="258.21"/><line class="cls-2" x1="307.48" y1="288.49" x2="296.07" y2="292.2"/><line class="cls-2" x1="323.6" y1="309.63" x2="316.55" y2="319.34"/><line class="cls-2" x1="300" y1="153" x2="300" y2="195.93"/></svg>