<svg id="Layer_1" data-name="Layer 1" xmlns="http://www.w3.org/2000/svg" viewBox="0 0 544 362"><defs><style>.cls-1,.cls-2,.cls-5{fill:#fff;}.cls-2,.cls-3,.cls-5,.cls-6{stroke:#000;stroke-linejoin:bevel;stroke-width:3px;}.cls-2,.cls-3{stroke-linecap:round;}.cls-3,.cls-6{fill:none;}.cls-4{fill:#2d2d2d;}.cls-5,.cls-6{stroke-linecap:square;}</style></defs><rect class="cls-1" x="0.05" y="0.11" width="544" height="362"/><rect class="cls-2" x="152.05" y="54.99" width="278.59" height="184.56"/><polygon class="cls-3" points="328.09 277.69 254.6 277.69 262.29 239.54 320.4 239.54 328.09 277.69"/><rect class="cls-2" x="254.1" y="110.02" width="74.5" height="74.5"/><path class="cls-4" d="M291.46,167.12A2.35,2.35,0,0,0,294,164.9l.38-3a12.65,12.65,0,0,1-5.74,0l.38,3a2.39,2.39,0,0,0,2.49,2.22m16.91-.65H313v-26.6c0-3.64-1.68-6.07-4.66-7Zm-38.48,0h4.66v-33.6c-3,.93-4.66,3.36-4.66,7Zm24.44-4.55c3-.76,5-2.92,5.53-6.72l2.93-22.6c-3.36.82-5.2,3.36-5.75,7.54Zm-5.74,0-2.71-21.78c-.54-4.18-2.39-6.72-5.75-7.54l2.93,22.6c.49,3.8,2.44,6,5.53,6.72m19.78-29v-2.11c0-1.84-1.08-2.87-2.55-2.87s-2.49.87-2.76,2.76l-.27,1.95a11.92,11.92,0,0,1,5.58.27m-33.82,0a11.92,11.92,0,0,1,5.58-.27l-.27-1.95c-.27-1.89-1.3-2.76-2.76-2.76s-2.55,1-2.55,2.87Z"/><line class="cls-5" x1="253.94" y1="208.75" x2="288.06" y2="208.75"/><line class="cls-5" x1="210.17" y1="208.75" x2="244.28" y2="208.75"/><circle cx="291.35" cy="225.14" r="2.47"/><line class="cls-5" x1="297.56" y1="208.75" x2="326.54" y2="208.75"/><line class="cls-5" x1="336.24" y1="208.75" x2="363.82" y2="208.75"/><polygon class="cls-3" points="253.94 302.65 35.41 302.65 58.35 288.8 231.01 288.8 253.94 302.65"/><rect class="cls-2" x="57.17" y="172.94" width="175.02" height="117.18"/><rect class="cls-2" x="114.8" y="201.65" width="59.75" height="59.75"/><path class="cls-4" d="M144.77,247.46a1.9,1.9,0,0,0,2-1.78l.3-2.39a10.35,10.35,0,0,1-4.61,0l.31,2.39a1.92,1.92,0,0,0,2,1.78m13.56-.52h3.74V225.6c0-2.92-1.35-4.87-3.74-5.61Zm-30.86,0h3.74V220c-2.39.74-3.74,2.69-3.74,5.61Zm19.6-3.65c2.44-.61,4-2.35,4.44-5.39l2.34-18.13c-2.69.65-4.17,2.7-4.61,6Zm-4.61,0-2.17-17.48c-.43-3.34-1.91-5.39-4.61-6L138,237.9c.39,3,2,4.78,4.43,5.39M158.33,220v-1.7a2,2,0,0,0-2-2.3c-1.18,0-2,.7-2.22,2.22l-.22,1.56a8.39,8.39,0,0,1,1.87-.17,8.22,8.22,0,0,1,2.61.39m-27.12,0a9.43,9.43,0,0,1,4.47-.22l-.21-1.56c-.22-1.52-1.05-2.22-2.22-2.22a2,2,0,0,0-2,2.3Z"/><rect class="cls-2" x="349.29" y="172.07" width="133.68" height="102.42" transform="translate(639.41 -192.85) rotate(90)"/><rect class="cls-2" x="395.31" y="201.65" width="41.63" height="41.63"/><path class="cls-4" d="M416.19,233.57a1.32,1.32,0,0,0,1.4-1.24l.21-1.67a6.78,6.78,0,0,1-1.61.18,6.7,6.7,0,0,1-1.6-.18l.21,1.67a1.34,1.34,0,0,0,1.39,1.24m9.45-.36h2.61V218.34a3.71,3.71,0,0,0-2.61-3.91Zm-21.5,0h2.6V214.43a3.71,3.71,0,0,0-2.6,3.91Zm13.66-2.55a4,4,0,0,0,3.09-3.75l1.63-12.63c-1.87.45-2.9,1.88-3.21,4.21Zm-3.21,0-1.52-12.17c-.3-2.33-1.33-3.76-3.21-4.21l1.64,12.63a4,4,0,0,0,3.09,3.75m11.05-16.23v-1.18a1.42,1.42,0,0,0-1.42-1.61c-.82,0-1.39.49-1.55,1.55l-.15,1.09a5.9,5.9,0,0,1,1.31-.12,5.73,5.73,0,0,1,1.81.27m-18.9,0a6.59,6.59,0,0,1,3.12-.15l-.15-1.09c-.15-1.06-.73-1.55-1.54-1.55a1.43,1.43,0,0,0-1.43,1.61Z"/><line class="cls-5" x1="367.94" y1="270.03" x2="388.11" y2="270.03"/><line class="cls-5" x1="398.04" y1="270.03" x2="408.99" y2="270.03"/><circle cx="416.13" cy="281.56" r="2.47"/><line class="cls-5" x1="417.65" y1="270.03" x2="446.31" y2="270.03"/><rect class="cls-2" x="422.14" y="238.46" width="93.28" height="44.93" transform="translate(729.7 -207.85) rotate(90)"/><rect class="cls-2" x="454.27" y="238.1" width="29.01" height="29.01"/><path class="cls-4" d="M468.82,260.34a.92.92,0,0,0,1-.86l.15-1.17a4.89,4.89,0,0,1-2.24,0l.15,1.17a.93.93,0,0,0,1,.86m6.59-.25h1.81V249.73a2.59,2.59,0,0,0-1.81-2.73Zm-15,0h1.82V247a2.6,2.6,0,0,0-1.82,2.73Zm9.52-1.78a2.79,2.79,0,0,0,2.15-2.61l1.14-8.8c-1.31.31-2,1.31-2.24,2.93Zm-2.24,0-1.05-8.48c-.21-1.62-.93-2.62-2.24-2.93l1.14,8.8a2.77,2.77,0,0,0,2.15,2.61M475.41,247v-.82a1,1,0,0,0-1-1.12c-.57,0-1,.34-1.07,1.08l-.11.76a3.7,3.7,0,0,1,.91-.09,4.23,4.23,0,0,1,1.27.19m-13.17,0a4.16,4.16,0,0,1,1.26-.19,3.65,3.65,0,0,1,.91.09l-.1-.76c-.11-.74-.51-1.08-1.08-1.08a1,1,0,0,0-1,1.12Z"/><circle cx="468.78" cy="297.4" r="2.47"/><line class="cls-6" x1="453.94" y1="290.25" x2="464.41" y2="290.25"/><line class="cls-6" x1="473.23" y1="290.25" x2="491.12" y2="290.25"/></svg>