<svg id="Layer_1" data-name="Layer 1" xmlns="http://www.w3.org/2000/svg" viewBox="0 0 544 362"><defs><style>.cls-1,.cls-3,.cls-5,.cls-6{fill:#fff;}.cls-2,.cls-4{fill:none;}.cls-2,.cls-3,.cls-4,.cls-5,.cls-6{stroke:#000;stroke-linecap:round;}.cls-2,.cls-3{stroke-linejoin:bevel;}.cls-2,.cls-3,.cls-4{stroke-width:3px;}.cls-4,.cls-5,.cls-6{stroke-miterlimit:10;}.cls-5,.cls-6{stroke-width:4px;}.cls-5{stroke-dasharray:0 8;}.cls-6{stroke-dasharray:0 8.1;}</style></defs><rect class="cls-1" y="0.62" width="544" height="362"/><polyline class="cls-2" points="484.18 187.34 426.67 210.61 369.16 187.34"/><line class="cls-2" x1="426.67" y1="210.61" x2="426.67" y2="278.05"/><polyline class="cls-2" points="426.67 278.05 484.18 254.78 484.18 187.34 426.67 164.08 369.16 187.47 369.16 187.34 369.16 254.78 426.67 278.05"/><polyline class="cls-3" points="311.93 326.04 369.44 302.78 369.44 235.34 311.93 212.07 254.42 235.46 254.42 235.34 254.42 302.78 311.93 326.04"/><polyline class="cls-2" points="369.44 235.34 311.93 258.6 254.42 235.34"/><line class="cls-2" x1="311.93" y1="258.6" x2="311.93" y2="326.04"/><line class="cls-4" x1="217.56" y1="160.51" x2="318.49" y2="198.31"/><path d="M207.9,156.81c5.12-.15,10-.17,15-.31l.1.21c-.87.73-3.2,2-4.07,4.28s-.07,5,.11,6.18l-.2.14c-3.66-3.38-7.26-6.88-11-10.36Z"/><path d="M329.68,202.16c-5.12.15-10.05.17-15,.31l-.1-.21c.87-.73,3.2-2,4.07-4.28s.07-5-.11-6.18l.21-.14c3.65,3.38,7.26,6.88,11,10.36Z"/><path class="cls-5" d="M197.15,127.34c0,8-21.29,14.58-47.55,14.58s-47.55-6.53-47.55-14.58"/><circle cx="102.05" cy="115.64" r="2"/><circle cx="102.05" cy="121.59" r="2"/><circle cx="197.15" cy="115.64" r="2"/><circle cx="197.15" cy="121.59" r="2"/><path class="cls-5" d="M197.15,110.18c0,8-21.29,14.57-47.55,14.57s-47.55-6.52-47.55-14.57"/><circle cx="102.05" cy="98.48" r="2"/><circle cx="102.05" cy="104.42" r="2"/><circle cx="197.15" cy="98.48" r="2"/><circle cx="197.15" cy="104.42" r="2"/><ellipse class="cls-6" cx="149.6" cy="75.54" rx="47.55" ry="14.57"/><path class="cls-5" d="M197.15,92.86c0,8-21.29,14.57-47.55,14.57s-47.55-6.52-47.55-14.57"/><circle cx="102.05" cy="81.16" r="2"/><circle cx="102.05" cy="87.1" r="2"/><circle cx="197.15" cy="81.16" r="2"/><circle cx="197.15" cy="87.1" r="2"/><ellipse class="cls-6" cx="261.55" cy="104.39" rx="47.55" ry="14.57"/><path class="cls-5" d="M309.1,121.71c0,8-21.29,14.58-47.55,14.58S214,129.76,214,121.71"/><circle cx="214" cy="110.01" r="2"/><circle cx="214" cy="115.96" r="2"/><circle cx="309.1" cy="110.01" r="2"/><circle cx="309.1" cy="115.96" r="2"/><path class="cls-5" d="M144.54,175.78c0,8-21.28,14.57-47.55,14.57s-47.55-6.53-47.55-14.57"/><circle cx="49.44" cy="164.08" r="2"/><circle cx="49.44" cy="170.02" r="2"/><circle cx="144.54" cy="164.08" r="2"/><circle cx="144.54" cy="170.02" r="2"/><ellipse class="cls-6" cx="96.99" cy="141.29" rx="47.55" ry="14.57"/><path class="cls-5" d="M144.54,158.61c0,8-21.28,14.57-47.55,14.57s-47.55-6.52-47.55-14.57"/><circle cx="49.44" cy="146.91" r="2"/><circle cx="49.44" cy="152.86" r="2"/><circle cx="144.54" cy="146.91" r="2"/><circle cx="144.54" cy="152.86" r="2"/><line class="cls-4" x1="398.24" y1="229.6" x2="370.64" y2="240.33"/></svg>