<svg width="40" height="60" viewBox="0 0 40 60" fill="none" xmlns="http://www.w3.org/2000/svg">
<path d="M36.4723 0H2.84684C1.30214 0 0 1.26384 0 2.80854V8.79582C0 10.3405 1.30214 11.6171 2.84684 11.6171H3.44684V15.8171C3.44684 17.8469 4.36596 19.7363 5.94896 21.0001L17.1834 29.9874L6.15354 38.5276C4.51949 39.7914 3.57482 41.7063 3.57482 43.7744V48.3829H2.84714C1.30245 48.3829 0.000306683 49.6467 0.000306683 51.2042V57.1915C0.000306683 58.7362 1.30245 60 2.84714 60H36.4602C38.0048 60 39.307 58.7362 39.307 57.1915V51.2042C39.307 49.6595 38.0048 48.3829 36.4602 48.3829H36.0006V43.7999C36.0006 41.7446 35.0303 39.7659 33.3836 38.5148L22.1492 29.9616L33.3705 20.9874C34.9535 19.7235 35.8726 17.8342 35.8726 15.8044V11.6172H36.4726C38.0173 11.6172 39.3194 10.3533 39.3194 8.79588V2.8086C39.3194 1.2639 38.0173 6.5139e-05 36.4726 6.5139e-05L36.4723 0ZM36.2552 51.447V56.9364H3.06382V51.447H36.2552ZM31.5318 40.9532C32.4127 41.6298 32.936 42.6893 32.936 43.8V48.383H6.63833V43.7744C6.63833 42.6765 7.16173 41.617 8.02982 40.9532L19.6597 31.9404L31.5318 40.9532ZM32.8084 15.8169C32.8084 16.9148 32.3105 17.9233 31.4679 18.6126L19.6597 28.0339L7.85138 18.5996C6.99606 17.923 6.49819 16.9017 6.49819 15.8039V11.6166H32.7959V15.8167L32.8084 15.8169ZM36.2552 8.55326H3.06375V3.0639H36.2552V8.55326Z" fill="#2D2D2D"/>
</svg>
